<svg xmlns="http://www.w3.org/2000/svg" xmlns:xlink="http://www.w3.org/1999/xlink" width="843.968" height="637.974" viewBox="0 0 843.968 637.974"><defs><linearGradient id="a" x1="0.506" y1="0.808" x2="0.491" y2="0.125" gradientUnits="objectBoundingBox"><stop offset="0" stop-color="#3076a1"/><stop offset="1" stop-color="#639c38"/></linearGradient><linearGradient id="b" y1="0.5" x2="1" y2="0.5" gradientUnits="objectBoundingBox"><stop offset="0" stop-color="#404b61"/><stop offset="0.486" stop-color="#3b475f"/><stop offset="1" stop-color="#2f3e5c"/></linearGradient><linearGradient id="c" x1="0" y1="0.5" x2="1" y2="0.5" xlink:href="#a"/><linearGradient id="h" x1="0.028" y1="1.449" x2="0.657" y2="0.244" xlink:href="#a"/><linearGradient id="j" y1="0.5" x2="1" y2="0.5" gradientUnits="objectBoundingBox"><stop offset="0" stop-color="#ff9340"/><stop offset="1" stop-color="#ffce45"/></linearGradient><linearGradient id="k" y1="0.5" x2="1" y2="0.5" gradientUnits="objectBoundingBox"><stop offset="0" stop-color="#c97332"/><stop offset="1" stop-color="#ffce45"/></linearGradient><linearGradient id="l" x1="0.496" y1="1.377" x2="0.518" y2="-0.546" xlink:href="#a"/><linearGradient id="m" x1="-0.463" y1="0.5" x2="0.537" y2="0.5" xlink:href="#a"/></defs><g transform="translate(-61.043 -45.013)"><path d="M425.48,281.77H602.345V233.337h64.131" transform="translate(202.675 104.733)" fill="none" stroke="#639c38" stroke-miterlimit="10" stroke-width="1"/><g transform="translate(252.649 230.831)"><path d="M0,0H420.821a0,0,0,0,1,0,0V302.235a9.474,9.474,0,0,1-9.474,9.474H9.474A9.474,9.474,0,0,1,0,302.235V0A0,0,0,0,1,0,0Z" transform="translate(420.821 311.709) rotate(180)" fill="url(#a)"/></g><g transform="translate(267.525 246.1)"><rect width="390.325" height="239.782" transform="translate(390.325 239.782) rotate(180)" fill="url(#b)"/></g><g transform="translate(127.239 216.67)"><path d="M202.868,185.861H103.582l.173-.884a17.479,17.479,0,0,1,20.739-13.742,29.8,29.8,0,0,1,50.426-3.693,21.761,21.761,0,0,1,27.816,17.464Zm-97.456-1.485h95.705a20.4,20.4,0,0,0-19.87-16.286,20.171,20.171,0,0,0-6.382,1.029l-.524.173-.316-.451a28.318,28.318,0,0,0-48.474,3.581l-.266.528-.574-.14a15.791,15.791,0,0,0-3.8-.461A16.017,16.017,0,0,0,105.412,184.376Z" transform="translate(-103.582 -155.323)" fill="#6aafe8"/></g><g transform="translate(560.128 63.142)"><path d="M412.788,118.518l-.336-.173c-35.232-17.989-30.5-52.826-30.45-53.176l.095-.633h.64c22.4,0,29.442-7.219,29.51-7.292l.545-.58.545.584c.067.07,7.105,7.289,29.507,7.289h.64l.093.633c.053.35,4.785,35.187-30.45,53.176ZM383.4,66.017c-.448,4.72-1.931,34.624,29.386,50.833,31.32-16.209,29.836-46.113,29.391-50.833-19.45-.121-27.366-5.538-29.391-7.258C410.767,60.479,402.851,65.9,383.4,66.017Z" transform="translate(-381.764 -56.663)" fill="#6aafe8"/></g><g transform="translate(709.228 360.949)"><g transform="translate(73.382 71.274)"><path d="M526.072,449.613c-5.3-24.235,6.156-30.284,17.237-36.13,9.055-4.782,17.609-9.295,17.153-23.579-.6-18.935,12.3-25.822,23.675-31.9,8.468-4.522,16.462-8.792,17.656-17.409,2.871-20.729,21.993-46.5,22.184-46.754l1.189.889c-.193.252-19.086,25.72-21.9,46.071-1.3,9.362-9.617,13.806-18.425,18.512-11.539,6.161-23.468,12.532-22.892,30.545.486,15.208-8.884,20.154-17.945,24.935-11.078,5.846-21.542,11.369-16.479,34.5Z" transform="translate(-524.735 -293.841)" fill="url(#c)"/></g><g transform="translate(64.658 48.168)"><path d="M535.009,451.694c-.254,0-.507-.009-.764-.028-4.793-.355-9.491-4-14.785-11.458l-.331-.468.37-.439c.086-.1,8.571-10.445,5.456-29.862a90.864,90.864,0,0,0-2.48-10.781c-1.139-4.065-1.891-6.747-.632-8.89,1.6-2.719,5.927-4.144,18.112-7.046,12.975-3.09,17.312-17.707,21.14-30.606,3.6-12.147,7.02-23.6,17.114-23.25,9.278.355,23.365-14.183,35.8-27,11.536-11.89,22.421-23.093,29.383-22.872a5.552,5.552,0,0,1,4.191,2.082c6.2,7.39.417,18.6-5.18,29.444-4.776,9.248-9.289,17.984-6.386,23.747,3.651,7.239,4.161,13.792,1.478,18.943-3.174,6.1-10.574,10.029-22,11.683-10.443,1.516-11.571,12.9-12.766,24.962-1.394,14.072-2.975,30.019-20.5,31.537-13.012,1.127-21.784,10.261-29.524,18.32C546.55,446.123,541.2,451.694,535.009,451.694ZM520.99,439.8c4.822,6.679,9.2,10.079,13.364,10.389,5.825.431,11.133-5.1,17.281-11.5,7.921-8.247,16.9-17.6,30.466-18.77,16.3-1.41,17.746-16.05,19.15-30.2,1.254-12.653,2.438-24.6,14.03-26.285,10.924-1.583,17.951-5.249,20.894-10.9,2.453-4.71,1.94-10.793-1.486-17.591-3.245-6.436,1.436-15.5,6.389-25.1,5.376-10.409,10.935-21.174,5.364-27.81a4.077,4.077,0,0,0-3.109-1.553c-6.292-.209-16.965,10.776-28.264,22.422-13.095,13.5-26.63,27.453-36.536,27.455-.126,0-.252,0-.378-.006-8.952-.333-12.052,10.106-15.639,22.189-3.94,13.283-8.408,28.339-22.219,31.627-11.02,2.625-15.84,4.088-17.175,6.355-.941,1.6-.293,3.909.781,7.739A92.342,92.342,0,0,1,526.42,409.2C529.314,427.249,522.666,437.543,520.99,439.8Z" transform="translate(-519.129 -278.993)" fill="url(#c)"/></g><g transform="translate(34.531 13.57)"><path d="M546.318,458.981c-.174,0-.347-.008-.52-.025-7.86-.716-13.906-17.934-19.75-34.587-2.773-7.9-5.39-15.361-7.943-20.149-1.978-3.716-4.493-7.589-6.923-11.336-6.475-9.976-13.171-20.294-10.993-29.346,1.145-4.763,4.564-8.725,10.449-12.118,12.88-7.424,10.9-11.615,6.559-20.8-3.187-6.741-7.552-15.974-7.72-30.5-.072-6.245-.216-11.643-.345-16.406-.409-15.312-.615-23,2.653-25.777,1.354-1.152,3.248-1.447,5.958-.932,4.639.882,6.643,4.628,8.766,8.59,2.708,5.057,5.778,10.787,15.042,12.726,8.694,1.819,17.057,4.3,19.365,10.077,1.623,4.062.087,9.4-4.7,16.332-1.159,1.679-1.558,3.108-1.215,4.367.756,2.79,5.087,4.81,10.105,7.15,7.136,3.332,16.02,7.477,18.537,16.059,2.028,6.919-.319,15.547-7.172,26.378-16.213,25.626-15.561,43.007-14.987,58.338.426,11.363.829,22.094-6.022,34.084C552.439,456.4,549.442,458.98,546.318,458.981Zm-30.894-200.74a3.977,3.977,0,0,0-2.678.822c-2.726,2.322-2.516,10.238-2.13,24.61.128,4.768.272,10.172.345,16.427.165,14.2,4.449,23.269,7.577,29.886,4.307,9.114,6.908,14.614-7.158,22.719-5.513,3.179-8.7,6.836-9.749,11.181-2.029,8.433,4.491,18.478,10.795,28.192,2.449,3.774,4.981,7.672,6.989,11.444,2.6,4.891,5.241,12.4,8.033,20.356,5.425,15.456,11.575,32.974,18.485,33.6,2.638.235,5.411-2.154,8.246-7.112,6.64-11.623,6.264-21.664,5.828-33.3-.582-15.547-1.243-33.171,15.216-59.184,6.61-10.452,8.9-18.686,7-25.17-2.326-7.938-10.516-11.76-17.74-15.13-5.352-2.5-9.975-4.653-10.91-8.106-.462-1.707,0-3.537,1.427-5.6,4.48-6.488,5.965-11.374,4.539-14.939-2.054-5.14-10.4-7.522-18.289-9.173-9.942-2.082-13.327-8.4-16.047-13.479-2.035-3.8-3.794-7.083-7.734-7.832A11,11,0,0,0,515.424,258.242Z" transform="translate(-499.769 -256.759)" fill="url(#c)"/></g><g transform="translate(58.04 40.959)"><path d="M538.07,458.382l-1.413-.447c7.924-25.046-6.41-81.239-10.68-94.915-2.1-6.724-.162-16.848,1.716-26.638,2.426-12.644,4.933-25.718-1.461-30.62-12.006-9.2-11.374-30.5-11.341-31.4l1.481.056c-.006.212-.633,21.433,10.762,30.17,7.121,5.457,4.525,18.989,2.015,32.077-1.843,9.609-3.747,19.545-1.76,25.916C532.676,379.491,545.975,433.4,538.07,458.382Z" transform="translate(-514.876 -274.36)" fill="url(#c)"/></g><path d="M498.879,290c-3.3-8.374-16.184-7.1-15,4.737s9.472,24.472-3.157,44.6S496.9,363.41,507.167,376.04s13.815,30,22.5,41.049,14.6,37.5,21.707,27.629.42-22.7,1.208-40.461,16.6-29.006.789-40.452-31.709-14.956-26.489-40.771C529.182,311.644,509.141,316.048,498.879,290Z" transform="translate(-477.579 -227.697)" fill="url(#c)"/><g transform="translate(26.101 92.532)"><path d="M553.549,434.275c-.087-.524-8.865-52.552-28.518-66.811-20.038-14.539-23.68-27.97-30.679-59.643l1.447-.319c6.915,31.281,10.5,44.543,30.1,58.764,20.144,14.614,28.753,65.6,29.109,67.768Z" transform="translate(-494.352 -307.502)" fill="#fff"/></g><path d="M526.429,465.48s5.84-14.441-4.787-34.966-19.229-17.37,6.388-33.161.162-65.529,21.969-71.844,40.755-86.821,57.334-76.569-5.526,49.726,6.316,61.568,13.423,26.913-11.053,39.113,17.371,58.786-15.789,73S563.16,492.552,526.429,465.48Z" transform="translate(-458.863 -248.039)" fill="url(#h)"/><g transform="translate(77.131 46.962)"><path d="M527.71,464.012c-.039-.185-3.6-18.675,7.662-42.565,11.476-24.339,16.97-50.946,14.695-71.176-1.234-10.955,5.784-15.239,12.572-19.383,6.682-4.082,13.593-8.3,13.21-19.094-.342-9.751,3.783-32.609,3.959-33.577l1.461.266c-.044.235-4.276,23.667-3.936,33.259.409,11.66-6.875,16.108-13.923,20.409-6.685,4.083-13,7.938-11.87,17.953,2.3,20.491-3.238,47.4-14.827,71.973-11.044,23.42-7.588,41.462-7.55,41.641Z" transform="translate(-527.145 -278.218)" fill="#fff"/></g><path d="M556.49,333.934c7.446-6.915,17.293-7.913,15.242,2.347s-9.088,13.191-5.569,19.64,9.38,12.9-.585,20.813-15.538,8.792-18.47,23.745-2.344,25.158-15.244,25.8-7.913-18.177-3.811-26.678a28.2,28.2,0,0,0,2.052-22.438c-4.1-12.737-12.018-19.617,4.69-23.944S551.468,338.6,556.49,333.934Z" transform="translate(-451.998 -203.205)" fill="#fff"/><g transform="translate(80.751 137.802)"><path d="M529.519,431.418c-.042-1.828-.929-44.894,7.127-52.143,8.226-7.4,9.807-20.487,10.017-27.626.274-9.3,12.292-14.827,12.8-15.056l.61,1.351c-.117.053-11.685,5.373-11.932,13.747-.265,9.01-2.3,21.3-10.507,28.686-7.553,6.8-6.648,50.567-6.637,51.008Z" transform="translate(-529.471 -336.593)" fill="url(#c)"/></g><path d="M569.165,386.234,555.8,436.926h-29.86l-13.361-50.691Z" transform="translate(-458.112 -171.184)" fill="url(#j)"/><path d="M569.165,386.234s-29.414,5.523-29.414,50.693H525.943l-13.361-50.693Z" transform="translate(-458.112 -171.184)" fill="url(#k)"/></g><g transform="translate(254.552 443.528)"><rect width="39.327" height="4.453" fill="#1487e3"/></g><g transform="translate(183.576 240.401)"><path d="M202.552,250.842H139.785V170.573h1.483v78.785h61.283Z" transform="translate(-139.785 -170.573)" fill="#78c2ff"/></g><g transform="translate(510.534 115.401)"><path d="M351.378,242.625h-1.483V159.854h79.876V90.246h1.485v71.093H351.378Z" transform="translate(-349.895 -90.246)" fill="#78c2ff"/></g><g transform="translate(686.952 310.239)"><path d="M546.372,265.194H463.264V263.71h81.624V215.452h1.485Z" transform="translate(-463.264 -215.452)" fill="#78c2ff"/></g><g transform="translate(135.496 416.147)"><path d="M122.112,294.41s-1.78,24.97,3.1,27.957c3.056,1.874,15.242,8.187,14.881,9.373s-6.881,10.533-6.881,10.533S109.8,326.86,109.047,322c-.736-4.746,1.153-36.561,4.371-38.027,2.41-1.1,3.68-.19,6.719,2.065C124.4,289.2,122.112,294.41,122.112,294.41Z" transform="translate(-108.888 -283.511)" fill="#ff7e55"/></g><g transform="translate(136.433 608.111)"><path d="M119.056,407.522s-.728,5.053-.819,5.811-8.1-.447-8.1-.447l-.649-6.014S118.055,406.809,119.056,407.522Z" transform="translate(-109.49 -406.87)" fill="#424773"/></g><g transform="translate(135.183 613.59)"><path d="M118.769,410.732a21.589,21.589,0,0,0,4.989,4.373c2.454,1.327,6.309,1.852,7.76,3.227,1.046.991,3.816,5.258-6.375,5.173s-15.1.6-16.193-1.033,1.578-12.08,1.578-12.08S112.941,411.258,118.769,410.732Z" transform="translate(-108.687 -410.391)" fill="#292c47"/></g><g transform="translate(176.503 608.111)"><path d="M144.806,407.522s-.73,5.053-.822,5.811-8.1-.447-8.1-.447l-.647-6.014S143.8,406.809,144.806,407.522Z" transform="translate(-135.24 -406.87)" fill="#424773"/></g><g transform="translate(175.251 613.59)"><path d="M144.519,410.732a21.626,21.626,0,0,0,4.989,4.373c2.454,1.327,11.483,2.417,12.935,3.791,1.047.991,2.789,4.984-11.548,4.609-10.188-.265-15.1.6-16.2-1.033s1.579-12.08,1.579-12.08S138.551,411.317,144.519,410.732Z" transform="translate(-134.435 -410.391)" fill="#292c47"/></g><g transform="translate(135.183 478.938)"><path d="M122.375,323.861s-7.522,11.954-6.962,22.757-.671,22.348-1.8,33.633c-1.259,12.583-4.692,38.768-4.878,45.5s.244,32.058.244,32.058l13.05-.1s4.631-51.163,6.878-56.477,11.458-43.751,11.831-48S122.375,323.861,122.375,323.861Z" transform="translate(-108.687 -323.861)" fill="#292c47"/></g><g transform="translate(145.085 476.88)"><path d="M158.438,326.216s2.972,29.372,3.719,35.986.238,35.267.61,39.4-2.5,47.845-3.209,56.169l-14.341-.09s-.99-35.362-.99-52.541-4.409-37.181-9.46-48.517-16.613-11.6-19.718-32.635C115.05,323.986,154.235,319.547,158.438,326.216Z" transform="translate(-115.05 -322.539)" fill="#292c47"/></g><g transform="translate(152.446 375.625)"><path d="M124.153,260.01s8.963-5.988,15.258.426,9.388,21.495,4.869,24.5-12.189,3.8-15.829-.285-7.525-10.312-8.481-14.86S121.879,261.924,124.153,260.01Z" transform="translate(-119.78 -257.47)" fill="#eea886"/></g><g transform="translate(157.977 397.727)"><path d="M139.254,278.056s-.118,6.3.577,7.644-13.082,1.377-13.082,1.377a90.5,90.5,0,0,0-3.24-13.476C121.39,267.428,139.254,278.056,139.254,278.056Z" transform="translate(-123.335 -271.673)" fill="#eea886"/></g><g transform="translate(151.239 374.251)"><path d="M126.264,281.889s1.284,1.309,4.922-.174,7.062-7.6,8.509-8.517,1.245-1.855,1.245-1.855l1.327,1.211,1.7-.291s-2.588-4.135-.714-6.511-5.821-13.991-16.942-6.9c0,0-8.7,4.759-7.115,9.97S123.56,279.745,126.264,281.889Z" transform="translate(-119.005 -256.588)" fill="#754836"/></g><g transform="translate(159.818 407.818)"><path d="M139.991,281.932s-.042-2.565-1.206-2.812-12.838-1.368-14.267-.806V281.3S127.269,282.994,139.991,281.932Z" transform="translate(-124.518 -278.158)" fill="#e2d2ca"/></g><g transform="translate(168.958 385.687)"><path d="M133.9,265.391c-.42-.839-3.277-2.843-3.5.076s2.807,6.061,3.945,5.465S134.972,267.513,133.9,265.391Z" transform="translate(-130.391 -263.937)" fill="#eea886"/></g><g transform="translate(149.498 379.706)"><path d="M122.615,260.093s-12.819,3.438,3.752,19.351Z" transform="translate(-117.886 -260.093)" fill="#754836"/></g><g transform="translate(242.896 445.17)"><path d="M203.768,304.855l-13.062-.12c1.128-.657,2.949-1.836,2.547-2.375-.576-.766-4.275.917-5.778,1.071-1.379.14-3.69-.037-5.443.6l-4.127,1.758,3.783,3.5s6.833.98,8.833,1.12c3.252.229,13.2-3.644,13.367-4.233C204.185,305.121,203.768,304.855,203.768,304.855Z" transform="translate(-177.905 -302.161)" fill="#eea886"/></g><g transform="translate(138.037 410.959)"><path d="M164.828,284.365c-8.31-1.46-17.054-3.556-17.054-3.556l-15.473-.632s-14.2,3.126-19.792,5.653c-.532.24-.532,12.668-1.989,15.927l4.636,9.782s2.68,19.377,3.234,27.993c.255,3.957-5.523,37.1-5.523,37.1a106.875,106.875,0,0,0,16.753,2.986c10.558,1.164,36.944-.42,37.111-1.667s-5.11-46.443-5.344-48.783c-.358-3.592,1.036-20.189,1.036-20.189,1.99,2.67,13.495,12.7,19.109,15.882,4,2.266,13.8.881,16.68.588,6.248-.641,23.505-1.874,23.842-2.488.269-.367-.991-6.66-1.713-6.9-.632-.21-22.911-1.31-28.5-1.022-2.267.12-9.664-8.14-9.664-8.14S169.411,286.423,164.828,284.365Z" transform="translate(-110.521 -280.177)" fill="#ff7e55"/></g><g transform="translate(97.19 352.603)"><path d="M84.271,242.676h40.9v35.885l-6.244-6.243H84.271Z" transform="translate(-84.271 -242.676)" fill="#1487e3"/></g><g transform="translate(700.276 197.404)"><g transform="translate(15.784 21.124)"><path d="M521.7,196.253H481.969V156.517H521.7Zm-38.412-1.326h37.086V157.841H483.293Z" transform="translate(-481.969 -156.517)" fill="#6aafe8"/><g transform="translate(47.683 4.855)"><path d="M603.561,169.35h-90.95v-9.713h90.95Zm-89.627-1.324h88.3v-7.063h-88.3Z" transform="translate(-512.611 -159.637)" fill="#6aafe8"/></g><g transform="translate(0 50.028)"><path d="M620.6,198.378H481.969v-9.712H620.6Zm-137.308-1.324H619.276V189.99H483.293Z" transform="translate(-481.969 -188.666)" fill="#6aafe8"/></g><g transform="translate(0 68.68)"><path d="M570.27,210.367h-88.3v-9.715h88.3Zm-86.977-1.324h85.651v-7.065H483.293Z" transform="translate(-481.969 -200.652)" fill="#6aafe8"/></g><g transform="translate(47.683 23.384)"><path d="M574.2,181.259h-61.59v-9.715H574.2Zm-60.267-1.326h58.942V172.87H513.934Z" transform="translate(-512.611 -171.544)" fill="#6aafe8"/></g></g><g transform="translate(0 0)"><path d="M642.026,263.584h-170.2V142.942h170.2ZM473.152,262.26H640.7V144.268H473.152Z" transform="translate(-471.826 -142.942)" fill="#6aafe8"/></g></g><g transform="translate(627.53 130.649)"><path d="M437.813,112.769H425.078v-1.485H436.33V100.044h1.483Z" transform="translate(-425.078 -100.044)" fill="#6aafe8"/></g><g transform="translate(541.897 130.649)"><path d="M382.785,112.769H370.049V100.044h1.486v11.239h11.25Z" transform="translate(-370.049 -100.044)" fill="#6aafe8"/></g><g transform="translate(541.903 45.013)"><path d="M371.538,57.747h-1.485V45.013h12.726V46.5H371.538Z" transform="translate(-370.053 -45.013)" fill="#6aafe8"/></g><g transform="translate(627.53 45.018)"><path d="M437.813,57.74H436.33V46.5H425.078V45.016h12.735Z" transform="translate(-425.078 -45.016)" fill="#6aafe8"/></g><g transform="translate(638.781 76.758)"><rect width="1.483" height="34.876" fill="#6aafe8"/></g><g transform="translate(541.897 76.758)"><rect width="1.486" height="34.876" fill="#6aafe8"/></g><g transform="translate(178.869 230.243)"><path d="M142.211,174.946a5.45,5.45,0,1,1,5.45-5.451A5.455,5.455,0,0,1,142.211,174.946Zm0-9.416a3.966,3.966,0,1,0,3.965,3.965A3.971,3.971,0,0,0,142.211,165.53Z" transform="translate(-136.76 -164.045)" fill="#78c2ff"/></g><g transform="translate(585.702 105.243)"><path d="M403.649,94.619a5.45,5.45,0,1,1,5.451-5.451A5.458,5.458,0,0,1,403.649,94.619Zm0-9.418a3.967,3.967,0,1,0,3.967,3.967A3.973,3.973,0,0,0,403.649,85.2Z" transform="translate(-398.199 -83.718)" fill="#78c2ff"/></g><g transform="translate(763.869 300.336)"><path d="M518.141,219.99a5.451,5.451,0,1,1,5.45-5.451A5.458,5.458,0,0,1,518.141,219.99Zm0-9.418a3.967,3.967,0,1,0,3.967,3.967A3.972,3.972,0,0,0,518.141,210.573Z" transform="translate(-512.692 -209.088)" fill="#78c2ff"/></g><g transform="translate(183.056 52.38)"><path d="M176.864,87.161H139.451V49.747h37.413Zm-35.93-1.485h34.445V51.232H140.934Z" transform="translate(-139.451 -49.747)" fill="#a1d4ff"/></g><g transform="translate(201.021 62.577)"><rect width="1.483" height="17.439" fill="#a1d4ff"/></g><g transform="translate(193.044 70.554)"><rect width="17.437" height="1.484" fill="#a1d4ff"/></g><g transform="translate(737.131 96.748)"><path d="M548.99,116.436H495.51V78.259h53.48ZM497,114.951h50.509V79.742H497Z" transform="translate(-495.51 -78.259)" fill="#a1d4ff"/></g><g transform="translate(737.403 96.918)"><path d="M522.152,101.321,495.685,79.513l.944-1.145L522.152,99.4,547.68,78.368l.942,1.145Z" transform="translate(-495.685 -78.368)" fill="#a1d4ff"/></g><g transform="translate(770.137 113.436)"><rect width="1.484" height="27.892" transform="translate(0 1.021) rotate(-43.487)" fill="#a1d4ff"/></g><g transform="translate(737.343 113.429)"><rect width="27.891" height="1.484" transform="translate(0 20.25) rotate(-46.555)" fill="#a1d4ff"/></g><g transform="translate(304.987 154.633)"><path d="M226.645,134.1l-.556-1.455a7.943,7.943,0,0,1-1.463-.335l-1.136,1.064-3.294-2.345.635-1.421a7.87,7.87,0,0,1-.8-1.273l-1.558-.05-.669-3.988,1.453-.557a7.82,7.82,0,0,1,.336-1.463l-1.064-1.136,2.344-3.294,1.422.635a7.8,7.8,0,0,1,1.273-.8l.048-1.558,3.988-.671.557,1.453a7.821,7.821,0,0,1,1.463.336l1.138-1.066,3.294,2.345-.635,1.422a7.9,7.9,0,0,1,.8,1.273l1.558.048.669,3.988-1.452.557a8.061,8.061,0,0,1-.338,1.464l1.066,1.134-2.345,3.3-1.421-.635a7.9,7.9,0,0,1-1.273.8l-.05,1.556Zm-2.278-3.073.325.126a6.761,6.761,0,0,0,1.844.422l.347.03.476,1.246,2.193-.367.042-1.335.319-.143a6.741,6.741,0,0,0,1.6-1l.268-.226,1.218.545,1.288-1.81-.913-.973.125-.327a6.765,6.765,0,0,0,.423-1.844l.031-.347,1.245-.476-.369-2.191-1.334-.044-.143-.317a6.769,6.769,0,0,0-1-1.6l-.224-.268.545-1.217-1.81-1.288-.974.912-.325-.124a6.79,6.79,0,0,0-1.842-.422l-.347-.031-.478-1.246-2.191.369-.042,1.335-.319.142a6.8,6.8,0,0,0-1.6,1l-.265.224-1.218-.543-1.29,1.81.913.973-.126.325a6.819,6.819,0,0,0-.422,1.844l-.031.347-1.245.478.37,2.189,1.334.044.142.317a6.752,6.752,0,0,0,1.005,1.6l.223.268-.543,1.217,1.81,1.288Zm2.75-1.85a4.412,4.412,0,1,1,.741-.062A4.367,4.367,0,0,1,227.116,129.176Zm.016-7.681a3.284,3.284,0,0,0-1.909,5.958h0a3.284,3.284,0,1,0,1.909-5.958Z" transform="translate(-217.806 -115.457)" fill="#a1d4ff"/></g><g transform="translate(262.796 136.137)"><path d="M210.829,145.361l-1.243-3.246a17.659,17.659,0,0,1-3.9-.892l-2.532,2.376-6.88-4.9,1.418-3.171a17.614,17.614,0,0,1-2.123-3.391l-3.473-.111-1.4-8.325,3.246-1.242a17.578,17.578,0,0,1,.895-3.9l-2.378-2.532,4.894-6.878,3.173,1.416a17.653,17.653,0,0,1,3.392-2.123l.109-3.473,8.324-1.4,1.243,3.246a17.687,17.687,0,0,1,3.9.895l2.532-2.378,6.878,4.9-1.416,3.17a17.7,17.7,0,0,1,2.123,3.392l3.473.11,1.4,8.325-3.246,1.242a17.689,17.689,0,0,1-.895,3.9l2.378,2.532-4.9,6.878-3.17-1.416a17.7,17.7,0,0,1-3.392,2.123l-.109,3.473Zm-5.485-5.853.434.167a16.2,16.2,0,0,0,4.4,1.008l.464.04,1.138,2.972,5.929-1,.1-3.181.425-.19a16.2,16.2,0,0,0,3.828-2.395l.355-.3,2.905,1.3,3.486-4.9-2.177-2.319.167-.434a16.185,16.185,0,0,0,1.008-4.4l.039-.464,2.975-1.138-1-5.929-3.182-.1-.188-.425A16.146,16.146,0,0,0,224.053,114l-.3-.356,1.3-2.905-4.9-3.486-2.32,2.177-.433-.167a16.165,16.165,0,0,0-4.4-1.008l-.464-.04-1.138-2.972-5.927,1-.1,3.182-.423.19A16.2,16.2,0,0,0,201.116,112l-.356.3-2.9-1.3-3.484,4.9,2.175,2.32-.167.434a16.188,16.188,0,0,0-1.01,4.4l-.039.464-2.972,1.138,1,5.929,3.182.1.188.425a16.2,16.2,0,0,0,2.4,3.828l.3.356-1.3,2.9,4.9,3.486Zm6.231-5.443a9.6,9.6,0,1,1,7.838-4.032A9.558,9.558,0,0,1,211.575,134.065Zm.025-17.713a8.115,8.115,0,1,0,4.7,1.5A8.112,8.112,0,0,0,211.6,116.352Z" transform="translate(-190.693 -103.571)" fill="#a1d4ff"/></g><g transform="translate(61.043 130.358)"><path d="M88.731,155.234a27.72,27.72,0,0,1-27.688-27.688h1.483a26.205,26.205,0,1,0,26.205-26.2V99.857a27.688,27.688,0,1,1,0,55.377Zm0-3.848a23.839,23.839,0,1,1,23.838-23.84h-1.485A22.354,22.354,0,1,0,88.731,149.9Z" transform="translate(-61.043 -99.857)" fill="#78c2ff"/></g><g transform="translate(75.352 149.399)"><path d="M80.226,129.914l-9.987-9.987,1.05-1.049,8.937,8.938,15.722-15.722L97,113.142Z" transform="translate(-70.238 -112.093)" fill="#78c2ff"/></g><path d="M621.376,335.812H200.719L154.686,507.869H667.408Z" transform="translate(52.078 161.723)" fill="url(#l)"/><path d="M196.163,355.21h25.846a1.558,1.558,0,0,1,1.693,1.746L221.2,368.2a1.676,1.676,0,0,1-1.693,1.194H193.218a1.547,1.547,0,0,1-1.682-1.791l2.944-11.241A1.687,1.687,0,0,1,196.163,355.21Z" transform="translate(72.548 172.511)" fill="#fff"/><path d="M219.781,355.21h19.537l-2.6,14.183H216.809Z" transform="translate(86.626 172.511)" fill="#fff"/><path d="M238.417,355.21h19.537l-2.042,14.183-19.914.02Z" transform="translate(97.298 172.511)" fill="#fff"/><path d="M257.05,355.21h19.538L275.1,369.393H255.192Z" transform="translate(107.972 172.511)" fill="#fff"/><path d="M275.685,355.21h19.538l-.93,14.183H274.384Z" transform="translate(118.646 172.511)" fill="#fff"/><path d="M294.318,355.21h19.54l-.371,14.183-19.912.02Z" transform="translate(129.319 172.511)" fill="#fff"/><path d="M455.24,355.21H425.932l3.158,14.183h29.864Z" transform="translate(202.926 172.511)" fill="#fff"/><path d="M426.636,355.21H407.1l2.6,14.183h19.909Z" transform="translate(192.452 172.511)" fill="#fff"/><path d="M407.8,355.21h-19.54l2.042,14.183,19.914.02Z" transform="translate(181.978 172.511)" fill="#fff"/><path d="M388.97,355.21H369.43l1.486,14.183h19.911Z" transform="translate(171.504 172.511)" fill="#fff"/><path d="M370.136,355.21H350.6l.93,14.183h19.909Z" transform="translate(161.03 172.511)" fill="#fff"/><path d="M351.3,355.21h-19.54l.374,14.183,19.911.02Z" transform="translate(150.555 172.511)" fill="#fff"/><path d="M312.887,355.21h19.54l.322,14.183H312.887Z" transform="translate(140.058 172.511)" fill="#fff"/><path d="M190.078,371.115h40.829l-2.327,14.631h-41.6Z" transform="translate(70.036 181.356)" fill="#fff"/><path d="M466.9,371.115H416.43l2.875,14.631H470.73Z" transform="translate(197.642 181.356)" fill="#fff"/><path d="M417.157,371.115H396.972l2.3,14.631h20.57Z" transform="translate(186.821 181.356)" fill="#fff"/><path d="M397.7,371.115H377.513l1.725,14.631h20.57Z" transform="translate(175.999 181.356)" fill="#fff"/><path d="M378.242,371.115H358.055l1.149,14.631h20.57Z" transform="translate(165.178 181.356)" fill="#fff"/><path d="M358.783,371.115H338.6l.574,14.631h20.57Z" transform="translate(154.356 181.356)" fill="#fff"/><path d="M186.412,387.875h41.739l-3.045,14.533H182.6Z" transform="translate(67.604 190.677)" fill="#fff"/><path d="M219.6,387.875h20.87L238,402.408H216.744Z" transform="translate(86.59 190.677)" fill="#fff"/><path d="M239.513,387.875H396.026l.582,14.533H237.229Z" transform="translate(97.983 190.677)" fill="#fff"/><path d="M345.988,387.875h20.868L368,402.408H346.748Z" transform="translate(158.467 190.677)" fill="#fff"/><path d="M366.105,387.875h20.869l1.713,14.533H367.437Z" transform="translate(169.655 190.677)" fill="#fff"/><path d="M386.223,387.875h20.868l2.285,14.533H388.125Z" transform="translate(180.843 190.677)" fill="#fff"/><path d="M406.34,387.875h20.869l2.856,14.533H408.814Z" transform="translate(192.031 190.677)" fill="#fff"/><path d="M426.457,387.875H468.2L472,402.408H429.5Z" transform="translate(203.219 190.677)" fill="#fff"/><path d="M339.293,371.115H319.27v14.631h20.407Z" transform="translate(143.608 181.356)" fill="#fff"/><path d="M320.1,371.115H299.912l-.576,14.631h20.57Z" transform="translate(132.522 181.356)" fill="#fff"/><path d="M300.845,371.115H280.659l-1.151,14.631h20.57Z" transform="translate(121.496 181.356)" fill="#fff"/><path d="M281.593,371.115H261.406l-1.726,14.631h20.572Z" transform="translate(110.468 181.356)" fill="#fff"/><path d="M262.34,371.115H242.152l-2.3,14.631h20.57Z" transform="translate(99.441 181.356)" fill="#fff"/><path d="M243.085,371.115H222.9l-2.874,14.631h20.57Z" transform="translate(88.415 181.356)" fill="#fff"/><path d="M195.108,354.008l3.316-12.663h9.487l-3.1,12.663Z" transform="translate(74.558 164.8)" fill="#fff"/><path d="M210.5,341.345H229.47l-2.653,12.663h-19.3Z" transform="translate(81.457 164.8)" fill="#fff"/><path d="M228.61,341.345h18.971l-2.155,12.663H226.121Z" transform="translate(91.805 164.8)" fill="#fff"/><path d="M246.721,341.345h18.971l-1.658,12.663h-19.3Z" transform="translate(102.155 164.8)" fill="#fff"/><path d="M264.831,341.345H283.8l-1.161,12.663h-19.3Z" transform="translate(112.503 164.8)" fill="#fff"/><path d="M282.943,341.345h18.973l-.662,12.663H281.947Z" transform="translate(122.852 164.8)" fill="#fff"/><path d="M301.054,341.345h18.973l-.166,12.663h-19.3Z" transform="translate(133.201 164.8)" fill="#fff"/><path d="M319.164,341.345h18.975l.331,12.663H319.164Z" transform="translate(143.55 164.8)" fill="#fff"/><path d="M337.453,341.345h18.974l.83,12.663H337.952Z" transform="translate(153.721 164.8)" fill="#fff"/><path d="M355.742,341.345h18.974l1.327,12.663h-19.3Z" transform="translate(163.892 164.8)" fill="#fff"/><path d="M374.031,341.345h18.975l1.823,12.663H375.524Z" transform="translate(174.063 164.8)" fill="#fff"/><path d="M392.32,341.345h18.974l2.322,12.663H394.311Z" transform="translate(184.234 164.8)" fill="#fff"/><path d="M410.609,341.345h18.973l2.82,12.663H413.1Z" transform="translate(194.405 164.8)" fill="#fff"/><path d="M428.9,341.345h18.973l3.317,12.663H431.883Z" transform="translate(204.576 164.8)" fill="#fff"/><path d="M654.013,459.774H168.08a13.394,13.394,0,0,1-13.394-13.4H667.408A13.4,13.4,0,0,1,654.013,459.774Z" transform="translate(52.078 223.213)" fill="url(#m)"/><path d="M402.749,412.526a6.275,6.275,0,0,0-6.192-5.25H289.732a6.271,6.271,0,0,0-6.189,5.25l-6.674,40.386a6.271,6.271,0,0,0,6.189,7.3H403.231a6.275,6.275,0,0,0,6.192-7.3Z" transform="translate(119.98 201.466)" fill="#639c38"/><g transform="translate(293.879 266.444)"><rect width="43.484" height="4.453" fill="#e0e0e0"/><g transform="translate(55.653 33.525)"><rect width="31.395" height="4.452" fill="#e0e0e0"/></g><g transform="translate(91.938 33.525)"><rect width="20.833" height="4.452" fill="#1487e3"/></g><g transform="translate(0.494 117.833)"><rect width="20.833" height="4.453" fill="#1487e3"/></g><g transform="translate(116.889 33.525)"><rect width="50.301" height="4.452" fill="#e0e0e0"/></g><g transform="translate(0.494 100.946)"><rect width="32.322" height="4.453" fill="#e0e0e0"/></g><g transform="translate(45.55 134.596)"><rect width="19.731" height="4.451" fill="#e0e0e0"/></g><g transform="translate(0.494 134.596)"><rect width="39.093" height="4.451" fill="#1487e3"/></g><g transform="translate(0.494 151.358)"><rect width="21.562" height="4.453" fill="#e0e0e0"/></g><g transform="translate(51.942)"><rect width="30.869" height="4.453" fill="#78c2ff"/></g><g transform="translate(51.942 50.288)"><rect width="30.869" height="4.453" fill="#1487e3"/></g><g transform="translate(36.508 67.05)"><rect width="13.189" height="4.453" fill="#e0e0e0"/></g><g transform="translate(23.319 84.061)"><rect width="29.626" height="4.452" fill="#78c2ff"/></g><g transform="translate(57.422 84.061)"><rect width="40.897" height="4.452" fill="#1487e3"/></g><g transform="translate(0.494 67.174)"><rect width="30.869" height="4.453" fill="#1487e3"/></g><g transform="translate(0.494 84.061)"><rect width="18.316" height="4.452" fill="#1487e3"/></g><g transform="translate(55.916 67.174)"><rect width="17.28" height="4.453" fill="#ff8761"/></g><g transform="translate(1.012 168.122)"><rect width="17.279" height="4.451" fill="#ff8761"/></g><g transform="translate(0.371 33.525)"><rect width="30.867" height="4.452" fill="#78c2ff"/></g><g transform="translate(27.668 117.833)"><rect width="30.869" height="4.453" fill="#78c2ff"/></g><g transform="translate(28.05 151.358)"><rect width="30.867" height="4.453" fill="#78c2ff"/></g><g transform="translate(82.885 151.358)"><rect width="30.867" height="4.453" fill="#78c2ff"/></g><g transform="translate(0.371 50.288)"><rect width="44.003" height="4.453" fill="#78c2ff"/></g><g transform="translate(206.57)"><rect width="30.867" height="4.453" fill="#78c2ff"/></g><g transform="translate(96.605 168.122)"><rect width="30.869" height="4.451" fill="#78c2ff"/></g><g transform="translate(247.042)"><rect width="20.664" height="4.453" fill="#78c2ff"/></g><g transform="translate(316.953 16.763)"><rect width="20.663" height="4.452" fill="#78c2ff"/></g><g transform="translate(91.122)"><rect width="39.329" height="4.453" fill="#1487e3"/></g><g transform="translate(244.355 16.763)"><rect width="39.327" height="4.452" fill="#1487e3"/></g><g transform="translate(196.121 33.525)"><rect width="39.329" height="4.452" fill="#1487e3"/></g><g transform="translate(144.919 50.288)"><rect width="39.327" height="4.453" fill="#1487e3"/></g><g transform="translate(240.398 33.525)"><rect width="27.957" height="4.452" fill="#78c2ff"/></g><g transform="translate(159.537)"><rect width="39.327" height="4.453" fill="#ff8761"/></g><g transform="translate(114.661 50.288)"><rect width="23.059" height="4.453" fill="#ff8761"/></g><g transform="translate(96.605 118.081)"><rect width="23.059" height="4.453" fill="#ff8761"/></g><g transform="translate(137.721)"><rect width="14.397" height="4.453" fill="#e0e0e0"/></g><g transform="translate(91.122 50.288)"><rect width="14.394" height="4.453" fill="#e0e0e0"/></g><g transform="translate(293.167 16.763)"><rect width="14.397" height="4.452" fill="#e0e0e0"/></g><g transform="translate(0 16.763)"><rect width="22.521" height="4.452" fill="#1487e3"/></g><g transform="translate(60.091 101.07)"><rect width="17.78" height="4.453" fill="#1487e3"/></g><g transform="translate(28.05 16.763)"><rect width="7.27" height="4.452" fill="#1487e3"/></g><g transform="translate(177.334 16.763)"><rect width="60.104" height="4.452" fill="#e0e0e0"/></g><g transform="translate(119.664 151.358)"><rect width="60.106" height="4.453" fill="#e0e0e0"/></g><g transform="translate(40.665 16.763)"><rect width="7.419" height="4.452" fill="#ff8761"/></g><g transform="translate(152.118 16.763)"><rect width="19.663" height="4.452" fill="#1487e3"/></g><g transform="translate(171.781 33.525)"><rect width="19.664" height="4.452" fill="#ff8761"/></g><g transform="translate(70.667 168.122)"><rect width="19.664" height="4.451" fill="#ff8761"/></g><g transform="translate(105.072 16.763)"><rect width="41.839" height="4.452" fill="#1487e3"/></g><g transform="translate(66.128 118.081)"><rect width="24.444" height="4.453" fill="#1487e3"/></g><g transform="translate(64.555 151.358)"><rect width="12.224" height="4.453" fill="#1487e3"/></g><g transform="translate(84.739 16.763)"><rect width="14.397" height="4.452" fill="#78c2ff"/></g><g transform="translate(36.287 33.525)"><rect width="14.394" height="4.452" fill="#ff8761"/></g><g transform="translate(39.156 101.07)"><rect width="14.394" height="4.453" fill="#ff8761"/></g><g transform="translate(54.168 16.763)"><rect width="25.082" height="4.452" fill="#1487e3"/></g></g><g transform="translate(527.164 322.303)" opacity="0.76"><path d="M4.015,0H190.366a4.014,4.014,0,0,1,4.014,4.014V134.567a4.015,4.015,0,0,1-4.015,4.015H4.015A4.015,4.015,0,0,1,0,134.567V4.015A4.015,4.015,0,0,1,4.015,0Z" fill="#fff"/></g><g transform="translate(666.837 393.624)"><path d="M1.539,0H34.572a1.541,1.541,0,0,1,1.541,1.541V8.089a1.54,1.54,0,0,1-1.54,1.54H1.541A1.541,1.541,0,0,1,0,8.088V1.539A1.539,1.539,0,0,1,1.539,0Z" fill="#4aafff"/></g><g transform="translate(666.837 411.654)"><path d="M1.539,0H34.572a1.541,1.541,0,0,1,1.541,1.541V8.088a1.54,1.54,0,0,1-1.54,1.54H1.541A1.541,1.541,0,0,1,0,8.088V1.539A1.539,1.539,0,0,1,1.539,0Z" fill="#4aafff"/></g><g transform="translate(666.837 429.683)"><path d="M1.54,0H34.572a1.541,1.541,0,0,1,1.541,1.541V8.089A1.541,1.541,0,0,1,34.572,9.63H1.541A1.541,1.541,0,0,1,0,8.089V1.54A1.54,1.54,0,0,1,1.54,0Z" fill="#4aafff"/></g><g transform="translate(545.193 336.546)"><path d="M476.352,267.956a53.651,53.651,0,1,0-101.035,36.135q.607,1.706,1.32,3.346a53.654,53.654,0,0,0,99.715-39.481ZM439.379,323.9a40.181,40.181,0,0,1-50.43-21.825c-.355-.817-.686-1.656-.991-2.507A40.225,40.225,0,1,1,439.379,323.9Z" transform="translate(-372.167 -232.358)" fill="#639c38"/></g><g transform="translate(547.643 336.57)"><path d="M386.56,274.028l-12.819-4a53.721,53.721,0,0,1,49.613-37.651l.4,13.423a40.285,40.285,0,0,0-37.195,28.231Z" transform="translate(-373.741 -232.373)" fill="#2a3d19"/></g><g transform="translate(545.193 374.221)"><path d="M388.95,288.612l-12.314,5.361q-.712-1.641-1.32-3.346a53.415,53.415,0,0,1-.7-34.059l12.819,4a40.04,40.04,0,0,0,.523,25.533C388.264,286.956,388.6,287.795,388.95,288.612Z" transform="translate(-372.167 -256.568)" fill="#50722b"/></g><g transform="translate(549.662 406.265)"><path d="M383.357,295.876a53.456,53.456,0,0,1-8.318-13.355l12.314-5.361a39.982,39.982,0,0,0,6.234,10.015Z" transform="translate(-375.039 -277.16)" fill="#5b8733"/></g><g transform="translate(564.104 370.595)"><g transform="translate(51.859 25.844)"><path d="M418.453,296.441s-2.6-4.549,1.523-16.738a12.283,12.283,0,0,1,22.169-3.167c4.385,7.552,2.905,12.244-3.551,20.77S421.133,300.339,418.453,296.441Z" transform="translate(-417.645 -270.846)" fill="#eea886"/></g><g transform="translate(84.717 260.503)"><path d="M438.76,422.288s.682,5,.769,5.759,7.6-.443,7.6-.443l.607-5.96S439.7,421.583,438.76,422.288Z" transform="translate(-438.76 -421.642)" fill="#eea886"/></g><g transform="translate(72.372 265.932)"><path d="M443.858,425.47a20.689,20.689,0,0,1-4.681,4.329c-2.3,1.316-5.916,1.836-7.278,3.2-.982.98-3.578,5.211,5.98,5.126s14.167.6,15.191-1.024-1.48-11.968-1.48-11.968S449.25,425.791,443.858,425.47Z" transform="translate(-430.827 -425.131)" fill="#414773"/></g><g transform="translate(32.714 260.503)"><path d="M405.342,422.288s.683,5,.769,5.759,7.6-.443,7.6-.443l.608-5.96S406.28,421.583,405.342,422.288Z" transform="translate(-405.342 -421.642)" fill="#eea886"/></g><g transform="translate(15.955 265.932)"><path d="M412.021,425.47a20.674,20.674,0,0,1-4.682,4.329c-2.3,1.316-10.77,2.395-12.13,3.756-.983.983-2.617,4.938,10.832,4.567,9.555-.263,14.167.6,15.191-1.024s-1.481-11.968-1.481-11.968A39.748,39.748,0,0,1,412.021,425.47Z" transform="translate(-394.572 -425.131)" fill="#414773"/></g><g transform="translate(62.168 136.505)"><path d="M444.29,341.959s3.85,11.965,3.343,22.278,1.992,21.6,3.013,32.371c1.139,12.009,5.8,40.441,5.966,46.865s-.722,26.938-.722,26.938l-9.327.224s-7.832-49.7-9.861-54.776-12.091-41.228-12.427-45.285S444.29,341.959,444.29,341.959Z" transform="translate(-424.269 -341.959)" fill="#2d314f"/></g><g transform="translate(31.656 132.72)"><path d="M416.524,342.065s-5.661,31.639-6.34,37.953-1.128,30.544-1.464,34.489-2.255,51.62-4.058,57.48h10.4s10.677-34.658,10.677-51.057,7.07-35.649,11.635-46.468,15.012-11.076,17.819-31.151C455.194,343.312,420.323,335.7,416.524,342.065Z" transform="translate(-404.662 -339.527)" fill="#2d314f"/></g><g transform="translate(56.378 50.923)"><path d="M420.61,290.695s1.173,3.416,0,5.853,14.987.974,14.987.974a17.374,17.374,0,0,1,1.382-9.178C439.089,284.2,420.61,290.695,420.61,290.695Z" transform="translate(-420.549 -286.963)" fill="#eea886"/></g><g transform="translate(42.997 135.259)"><path d="M451.89,345.013s-5.812,5.971-39.94-.931l.521-2.924,38.8,1.463Z" transform="translate(-411.95 -341.158)" fill="#2b3b57"/></g><g transform="translate(6.414 19.737)"><path d="M436.02,308.483s-5.969.608-7.675.935-13.185-2.056-15.54-2.3-12.4-7.122-12.723-7.936-6.109-15.457-6.435-18.624-5.635-1.534-5.179.649c.851,4.083,1.945,13.993,2.546,16.865.647,3.1,2.381,10.126,3.357,10.991s10.017,7.742,18.868,10.664a75.189,75.189,0,0,1,15.516,7.23h43.626s16.968-24.255,17.334-27.911-11.853-27.943-14.288-30.99-5.96.994-5.96.994,7.3,21.422,8.272,24.467-8.49,16.425-11.091,16.467-9.27-.814-12.234-.935a20.8,20.8,0,0,1-6.092-1.422Z" transform="translate(-388.441 -266.922)" fill="#eea886"/></g><g transform="translate(25.934 53.643)"><path d="M410.242,312.567s5.341,3.551,5.829,9.64a126.109,126.109,0,0,0,3.409,19c.976,3.291-.853,27.165-1.1,28.871s33.759,5.758,38.981,1.707c0,0,1.461-22.293,2.071-28.628s3.532-21.682,4.507-23.753,12.79-18.646,13.279-20.83c0,0-6.114-9.746-10.5-9.867,0,0-6.965,8.162-9.236,8.528s-16.19-2.186-16.193-2.207c0,0-1.52,2.07-9.6-.369,0,0-9.62,1.085-11.184,1.284-1.9.244-15.063-1.651-15.063-1.651s-5.285,8.923-4.359,13.426Z" transform="translate(-400.985 -288.71)" fill="#ffc655"/></g><g transform="translate(0 11.107)"><path d="M396.245,285.546s-1.192-5.646.246-7.267c.817-.921,2.781-3.366,2.96-3.724s2.289-1.572,2.289-2.155-2.063-1.3-3.859.359-2.916,2.02-3.634,1.839-1.751-6.147-1.839-7.627-.661-5.386-1.589-5.115-.879,1.973-.879,1.973-1.078-2.963-1.8-2.378-.629,2.02-.629,2.02-1.346-1.662-1.706-.45a4.2,4.2,0,0,0,0,2.288s-1.391-.763-1.48,1.122.4,7.4,1.391,9.379,4.682,7.138,5.123,9.155S396.245,285.546,396.245,285.546Z" transform="translate(-384.319 -261.376)" fill="#eea886"/></g><g transform="translate(74.311)"><path d="M446.391,279.6s-4.06-6.824-5.442-7.432-3.327-.954-5.034-2.174-3.959-2.232-3.837-2.638,2.132-.244,4.284.689,3.1.482,3.3,0-1.145-3.928-1.8-4.738-5.28-5.47-4.507-6.159,3.775,1.869,4.264,2.395c0,0-2.4-5.034-1.463-5.278s2.68,1.542,2.68,1.542-.2-4.3,4.427,2.681c0,0-.976-2.314.447-1.542s2.8,5.117,3.249,7.309,2.473,9.177,4.2,10.86S446.391,279.6,446.391,279.6Z" transform="translate(-432.073 -254.238)" fill="#eea886"/></g><g transform="translate(54.077 24.807)"><path d="M437.8,297.677s-2.138.19-6.687-1.38-4.888-9.522-5.871-8.582a2.874,2.874,0,0,1-4.661-.542s2.221-2.922,1.192-4.332a10.9,10.9,0,0,0-2.7-2.434s3.2-15.417,17.757-8.394C453.881,280.245,437.8,297.677,437.8,297.677Z" transform="translate(-419.07 -270.18)" fill="#353a3d"/></g><g transform="translate(56.439 58.258)"><path d="M420.588,293.926l.512-2.228a118.171,118.171,0,0,1,14.36.545l.534,2.664S429.5,297.851,420.588,293.926Z" transform="translate(-420.588 -291.676)" fill="#d4d8e8"/></g><g transform="translate(57.428 39.182)"><path d="M422.527,280.628c.843-1.4,3.963-2.347,4.331,1.625.283,3.081-5.577,6.444-5.632,3.574A8.663,8.663,0,0,1,422.527,280.628Z" transform="translate(-421.223 -279.417)" fill="#eea886"/></g><g transform="translate(6.714 33.996)"><path d="M393.626,276.085s-3.352.081-4.978,1.55a3.327,3.327,0,0,0,.271,1.667,20.686,20.686,0,0,1,5.134-1.609S394.015,276.474,393.626,276.085Z" transform="translate(-388.634 -276.085)" fill="#e55353"/></g><g transform="translate(7.641 33.95)"><path d="M389.342,276.936a1.442,1.442,0,1,0,1.889-.767A1.444,1.444,0,0,0,389.342,276.936Z" transform="translate(-389.229 -276.055)" fill="#353a3d"/></g></g><g transform="translate(481.581 282.296)"><path d="M339.226,201.492s4.791,8.121,6.814,9.449c2.747,1.8,1.025,3.621-.279,3.623s-7.964.479-9.433-1.187-2.194-6.657-3.56-7.961-2.773-6.5.664-7.756C336.474,196.542,339.226,201.492,339.226,201.492Z" transform="translate(-331.288 -197.495)" fill="#6069a8"/></g><g transform="translate(483.494 282.46)"><path d="M336.468,197.861s5.487,9.511,6.433,10.918-1.782,1.4-3.472.734-5.938-7.49-6.55-8.731a4.584,4.584,0,0,1-.131-3.181Z" transform="translate(-332.518 -197.601)" fill="#202338"/></g><g transform="translate(481.883 287.838)"><path d="M331.483,201.057l1.267,9.752.672.03-.21-7.016Z" transform="translate(-331.483 -201.057)" fill="#6069a8"/></g><g transform="translate(434.047 282.326)"><path d="M308.7,201.482s4.793,8.121,6.814,9.449c2.747,1.8,1.027,3.621-.277,3.623s-7.966.479-9.433-1.187-2.2-6.657-3.56-7.961-2.82-6.629.664-7.756C305.963,196.659,308.7,201.482,308.7,201.482Z" transform="translate(-300.742 -197.515)" fill="#6069a8"/></g><g transform="translate(435.979 282.46)"><g transform="translate(0)"><path d="M306.218,197.88s5.2,9.492,6.147,10.9-1.782,1.4-3.47.734-5.94-7.49-6.55-8.731a4.584,4.584,0,0,1-.131-3.181Z" transform="translate(-301.984 -197.601)" fill="#202338"/></g></g><g transform="translate(434.366 287.838)"><g transform="translate(0)"><path d="M300.947,201.057l1.267,9.752.672.03-.208-7.016Z" transform="translate(-300.947 -201.057)" fill="#6069a8"/></g></g><g transform="translate(420.741 205.605)"><g transform="translate(0)"><path d="M292.192,154.977l43.362,19.757a8.342,8.342,0,0,1,5.383,6.948c1.693,16.775,14.239,43.387,14.239,43.387,4.027,1.967,3.719.26,3.719.26-2.536-8.145-5.625-41.711-6.727-55.205-.235-2.859-.38-4.816-.411-5.442-.022-.425-.487-.982-1.289-1.632-5.951-4.826-30.433-14.814-30.433-14.814C301.653,147.767,292.192,154.977,292.192,154.977Z" transform="translate(-292.192 -148.212)" fill="#202338"/></g></g><g transform="translate(412.396 202.624)"><g transform="translate(0 0)"><path d="M287,164.526c1.341,11.721,18.073,10.378,18.073,10.378h20.276s-5.327,11.852-7.384,21.848c-2.182,10.61-7.326,29.381-7.326,29.381s.336.636,4,.279c0,0,15.918-31.722,22.012-39.7,1.31-1.716,5.067-11.033,5.714-16.59.218-1.869.083-3.313-.615-3.9a50.738,50.738,0,0,0-4.477-3.061c-6.352-4-17.382-10.171-23.527-11.551-8.23-1.85-21.247-5.317-21.247-5.317S285.66,152.806,287,164.526Z" transform="translate(-286.829 -146.297)" fill="#202338"/></g></g><g transform="translate(424.407 108.536)"><path d="M296.51,107.875s-3.036-5.762-1.556-11.9,7.172-12.248,15.508-9.441,15.076,9.284,10.079,16.772,4.522,10.868,2.1,14.432-1.506,7.284-.479,8.114,4.34,3.783,3.976,7.283-16.174-10.2-16.174-10.2S301.35,105.639,296.51,107.875Z" transform="translate(-294.548 -85.834)" fill="#464240"/></g><g transform="translate(418.14 201.403)"><path d="M324.159,148.33s-1.256,6.1-33.639-1.6C290.52,146.729,301.374,143.122,324.159,148.33Z" transform="translate(-290.52 -145.512)" fill="#eb4747"/></g><g transform="translate(411.188 145.98)"><g transform="translate(0)"><path d="M292.635,168.246q-.754,1.438-1.5,2.876,17.756.516,35.512,1.035c-1.87-6.27-1.265-14.762-.937-21.207.4-7.872,4.748-13.345,4.286-21.308,2.342.38,2.747.451,5.093.811-3.588-10.221-4.816-15.284-15.958-19.218a20.823,20.823,0,0,0-9.939-1.211c-12.905,1.063-16.8,1.215-23.135,12.91,9.922,1.581,8.288,5.143,11.3,15.014,1.467,4.813,3,10.185,2.211,15.263C298.787,158.206,292.635,163.688,292.635,168.246Z" transform="translate(-286.053 -109.896)" fill="#325bb3"/></g></g><g transform="translate(434.108 135.777)"><g transform="translate(0 0)"><path d="M305.04,117.358c-5.283-1-4.158-3.935-4.158-3.935s.244-1.657.341-3.753c.023-.535.037-1.1.034-1.676a22.288,22.288,0,0,0-.145-2.6c-.433-3.545,9.586-1.43,9.586-1.43s-.577,7.174.806,9.323S310.321,118.355,305.04,117.358Z" transform="translate(-300.781 -103.34)" fill="#eea886"/></g></g><g transform="translate(428.29 144.88)"><path d="M297.043,110.151s10.653,12.3,14.592,15.152c0,0,4.524-4.088,1.735-14.884C313.37,110.418,308.227,107.841,297.043,110.151Z" transform="translate(-297.043 -109.189)" fill="#eea886"/></g><g transform="translate(426.108 114.252)"><path d="M298.114,91.49s-5.534,10.661-.048,20.759,16.269-4.4,16.966-6.1,4.394-11.319-2.958-14.243S299.68,88.6,298.114,91.49Z" transform="translate(-295.64 -89.507)" fill="#eea886"/></g><g transform="translate(425.899 112.044)"><path d="M300.026,96.061s-3.808,5-4.259,8.7a19.812,19.812,0,0,1,2.77-13.7c4.287-6.715,15.188-.319,16.647,2.362s5.739,5.047-1.449,16.574C313.736,110,300.809,101.015,300.026,96.061Z" transform="translate(-295.507 -88.088)" fill="#464240"/></g><g transform="translate(434.549 138.056)"><path d="M305.777,104.8s-.96,2.1-4.712,4.051c.023-.535.037-1.1.034-1.676A8.962,8.962,0,0,0,305.777,104.8Z" transform="translate(-301.065 -104.804)" fill="#a77860"/></g><g transform="translate(372.367 194.363)"><path d="M272.083,141.365s-2.628,1.169-3.878.638a11.634,11.634,0,0,0-3.783-.635c-.812,0-3.36-.909-3.316.086s4.135,1.688,4.972,2-2.5,2.149-2.815,2.966,3.462,6.179,5.588,4.651,3.28-4.578,3.713-4.771a15.642,15.642,0,0,0,1.6-1.05Z" transform="translate(-261.106 -140.988)" fill="#eea886"/></g><g transform="translate(368.647 199.319)"><path d="M265,144.173s-6.169,5.115-6.263,5.8.227,1.015.826.56,6.117-4.766,6.117-4.766-6.181,7.3-6.389,7.84c-.121.317.472.977.817.764s6.917-7.085,6.917-7.085-5.758,6.827-5.789,7.337a.67.67,0,0,0,1.131.453c.465-.476,6.193-6.5,6.193-6.5s-3.85,5.241-3.613,5.7c.146.283.632.875,1.581-.51s3.553-4.4,3.553-4.4Z" transform="translate(-258.715 -144.173)" fill="#eea886"/></g><g transform="translate(412.397 202.624)"><g transform="translate(0 0)"><path d="M323.236,174.9h-18.16S288.344,176.246,287,164.527s5.5-18.23,5.5-18.23,8.837,2.354,16.554,4.217a59.856,59.856,0,0,1,13.957-1.215s32.71,10.807,31.725,16.5C354.741,165.8,341.058,158.482,323.236,174.9Z" transform="translate(-286.83 -146.297)" fill="#ff7e55"/></g></g><g transform="translate(436.983 210.427)"><path d="M302.629,151.821l34.624-.51-17.482,8.877Z" transform="translate(-302.629 -151.311)" fill="#5e5853"/></g><g transform="translate(429.954 203.236)"><path d="M315.9,149.967a29.617,29.617,0,0,1-17.337.288l-.448-3.565,19.66,1.094Z" transform="translate(-298.112 -146.69)" fill="#325bb3"/></g><g transform="translate(436.983 210.937)"><path d="M319.771,160.006l-17.142-6.641v-1.726l18.5,6.673Z" transform="translate(-302.629 -151.639)" fill="#91887f"/></g><g transform="translate(380.322 145.074)"><g transform="translate(64.295 1.033)"><path d="M310.535,172.033a1.713,1.713,0,0,0,2.382,1.7l2.009-.857a1.429,1.429,0,0,0,.851-1.545c-.836-5.236-2.631-25.623-.006-29.121a12.713,12.713,0,0,0,1.916-3.417c1.734,4.468,3.89,10.224,4.746,13.319l16.358,21.763,5.487,1.391c-6.847-16.492-12.343-25.23-12.343-25.23-1.072-2.874-4.141-11.578-6.859-19.327-1.718-4.894-3.293-9.407-4.139-11.831a5.55,5.55,0,0,0-2.395-2.933c-2.533-1.516-6.755-3.9-10.585-5.761l-.047-.022-.366-.177-.008,0,0,0c7.28,11.014,4.441,42.12,3,62.012Z" transform="translate(-307.535 -109.978)" fill="#eddad3"/></g><g transform="translate(0 0)"><path d="M306.491,111.287c-2.333.361-8.115,5.974-11.185,11.64-3.5,6.467-7.073,13.829-9.744,16.251-4.917,4.455-18.678,20.2-19.332,19.817a42.473,42.473,0,0,0,4.286,4.927c.255.114,22.618-19.265,24.766-22.217,2.037-2.8,7.482-14.547,9.111-14.288l0,.009,0,0a87.327,87.327,0,0,1,3.982,10.84c.03.1.061.209.092.313,1.293,4.379,1.175,9.133.475,14.475-.529,4.032-3.54,10.624-5.355,13.832a2.185,2.185,0,0,0,.073,1.679h0a1.208,1.208,0,0,0,.6.7l6.565,2.432,1.544.573a3.364,3.364,0,0,0,4.5-2.719c1.458-11.229,3.307-22.7,4.779-27.024,6.458-18.965-2.524-33.214-2.524-33.214S308.536,110.523,306.491,111.287Z" transform="translate(-266.218 -109.314)" fill="#eddad3"/></g></g><g transform="translate(454.125 191.184)"><path d="M313.645,167.065l10.3-28.12,33.2.542L347.329,165.4Z" transform="translate(-313.645 -138.945)" fill="#6e6760"/></g><g transform="translate(474.451 201.005)"><path d="M327.3,147.875c-1.011,2.026-.707,4.231.683,4.928s3.341-.384,4.353-2.409.708-4.231-.683-4.927S328.316,145.85,327.3,147.875Z" transform="translate(-326.707 -145.256)" fill="#807066"/></g><g transform="translate(437.976 126.624)"><path d="M305.34,97.684s2.126,3.308.162,6.165.5,5.661.921,8.68-8.2,11.053,1.4,15.094,12.648-2.639,10.2-6.316-4.184-6.66-4.391-11.9S311.7,95.992,305.34,97.684Z" transform="translate(-303.267 -97.458)" fill="#464240"/></g><g transform="translate(370.542 87.143)"><path d="M259.933,72.086h40.9v35.887l-6.243-6.244H259.933Z" transform="translate(-259.933 -72.086)" fill="#639c38"/></g><text transform="translate(804.349 334.329)" fill="#639c38" font-size="8" font-family="DigitalDare, Digital Dare"><tspan x="0" y="0">ACE AFRICA’S</tspan></text><text transform="translate(829.919 346.519)" fill="#639c38" font-size="8" font-family="DigitalDare, Digital Dare"><tspan x="0" y="0">BEST</tspan></text></g></svg>