<svg xmlns="http://www.w3.org/2000/svg" width="467.334" height="447.019" viewBox="0 0 467.334 447.019"><defs><style>.a,.f{fill:#173d7a;}.a,.k{opacity:0.5;}.b{fill:#ff2c9c;}.c{fill:#d3008d;}.d{fill:#e573b5;}.e{fill:#fff;}.g{fill:#396caa;}.h{fill:#274f89;}.i,.k{fill:#d4ecff;}.j{fill:#5793ce;}.l{fill:#983be9;}.m{fill:#ffc2b0;}.n{fill:#ea9c92;}</style></defs><g transform="translate(-179.987 -38.967)"><path class="a" d="M429.672,407.317,271.311,315.887a5.338,5.338,0,0,1,0-9.246l150.575-86.923,168.471,97.267a5.338,5.338,0,0,1,0,9.246L449.894,407.318A20.225,20.225,0,0,1,429.672,407.317Z" transform="translate(19.927 40.628)"/><g transform="translate(276.739 200.418)"><path class="b" d="M427.264,182.064c.009-10.055-7.073-14.152-15.786-9.132L263.37,258.266a9.583,9.583,0,0,0-4.343,7.505c0,2.764,1.939,3.886,4.334,2.507L411.47,182.945c3.93-2.265,7.123-.418,7.12,4.118l-.016,16.564c2.875-.179,5.759-.181,8.671-.131Z" transform="translate(-258.973 -170.788)"/><path class="c" d="M263.316,292.064l148.108-53.97c8.713-5.02,15.809-17.285,15.819-27.342l.011-13.255c-2.913-.05-5.8-.048-8.671.131l-.016,18.122a15.763,15.763,0,0,1-7.134,12.331L263.325,282.053a9.585,9.585,0,0,0-4.342,7.505C258.981,292.323,260.921,293.444,263.316,292.064Z" transform="translate(-258.983 -164.791)"/><path class="c" d="M259.9,277.644,440.066,381.9l152.539-90.97,12.1-18.062-1.256,6.4L600.2,262.511l-283.153,10.8L267.159,270.1Z" transform="translate(-258.777 -150.171)"/><path class="d" d="M264.786,249.18l-.049,22.178L438.868,372.1l4.7-21.137Z" transform="translate(-257.69 -153.168)"/><path class="b" d="M602.432,275.788,422.551,171.718,260.369,266.032l-.335,2.316L440.181,372.571Z" transform="translate(-258.747 -170.579)"/><g transform="translate(181.116 113.522)"><path class="e" d="M512.084,308.606l42.294-25.088c3.563-2.5,6.357-7.565,6.36-11.795l.032-3.323c0-2.687-1.123-4.42-2.854-4.925L474.66,309.793l-67.8,36.668.063,22.424Z" transform="translate(-406.86 -263.476)"/></g><path class="c" d="M446.169,352.652,267.429,249.243l-3.788-2.192-3.461-2a8.728,8.728,0,0,0-1.152,4.032,3.067,3.067,0,0,0,1.232,2.778v.009l.028.016.013.007,180.105,104.2Z" transform="translate(-258.973 -154.096)"/><path class="e" d="M405.167,359.021l2.247,1.3.414-.716-1.4-1.1Z" transform="translate(-226.125 -128.595)"/><path class="e" d="M405.215,334.6l2.3,1.332-.577-1.257Z" transform="translate(-226.114 -133.966)"/><g transform="translate(180.145 104.222)"><path class="b" d="M410.464,343.36l148.108-85.332c8.713-5.02,15.795-.923,15.786,9.132l-.031,3.323c-.01,10.055-7.106,22.321-15.819,27.341L410.4,383.157c-2.4,1.38-4.336.258-4.333-2.506a9.589,9.589,0,0,1,4.342-7.507L558.518,287.81a15.762,15.762,0,0,0,7.133-12.33l.032-3.323c0-4.535-3.189-6.382-7.12-4.119L410.455,353.372c-2.4,1.38-4.336.258-4.333-2.506A9.586,9.586,0,0,1,410.464,343.36Z" transform="translate(-406.067 -255.883)"/></g><g transform="translate(177.771 102.853)"><path class="e" d="M406.5,378.589a9.589,9.589,0,0,1,4.342-7.507L558.954,285.75a15.767,15.767,0,0,0,7.133-12.331l.032-3.323c0-2.969-1.371-4.777-3.418-5.041a5.963,5.963,0,0,1,1.045,3.668l-.031,3.323a15.768,15.768,0,0,1-7.134,12.331L408.472,369.709a9.587,9.587,0,0,0-4.343,7.507c0,2.094,1.115,3.241,2.7,3.074A4.164,4.164,0,0,1,406.5,378.589Z" transform="translate(-404.129 -252.452)"/><path class="e" d="M406.548,351.118a9.582,9.582,0,0,1,4.342-7.505L559,258.279c3.753-2.163,7.2-2.625,9.91-1.657-2.9-2.469-7.322-2.574-12.282.284L408.517,342.24a9.583,9.583,0,0,0-4.343,7.505c0,2.094,1.115,3.241,2.7,3.074A4.143,4.143,0,0,1,406.548,351.118Z" transform="translate(-404.119 -254.765)"/></g></g><g transform="translate(298.477 59.49)"><path class="f" d="M579.874,148.972l-159.8-92.261a6.451,6.451,0,0,0-5.415-.664l.01-.016-.29.109-.071.027-5.775,2.209,5.183,2.538c-.023.1-.053.185-.075.283L387.616,179.679c-1.3,5.929,1.306,12.852,5.826,15.462L549.4,285.181l-.556,6.609,6.311-2.446c2.12-.992,3.819-3.235,4.521-6.429L585.7,164.434C587,158.5,584.4,151.581,579.874,148.972Z" transform="translate(-251.883 -55.724)"/><path class="g" d="M578.184,148.972l-159.8-92.261a6.451,6.451,0,0,0-5.415-.664l.01-.016-.29.109-.071.027-5.775,2.209,5.183,2.538c-.023.1-.053.185-.075.283L394.8,139.283,472.986,200.2,583.232,155.34A12.4,12.4,0,0,0,578.184,148.972Z" transform="translate(-250.193 -55.724)"/><path class="h" d="M541.816,149.915l12.164-5.18c.223-4.71-1.728-9.578-4.928-12.18l-19.256,8.1Z" transform="translate(-219.849 -38.454)"/><path class="i" d="M545.116,290.752l-159.8-92.26c-4.521-2.61-7.129-9.532-5.826-15.462L405.518,64.55c1.3-5.929,6.023-8.62,10.544-6.01l159.8,92.26c4.521,2.61,7.129,9.532,5.828,15.462L555.66,284.742C554.356,290.671,549.636,293.362,545.116,290.752Z" transform="translate(-253.709 -55.315)"/><path class="e" d="M571.5,150.338,411.7,58.08a6.318,6.318,0,0,0-6.292-.274,6.567,6.567,0,0,1,4.757.835l159.8,92.259c4.521,2.611,7.129,9.534,5.827,15.463L549.759,284.843a9,9,0,0,1-4.252,6.283c2.7-.589,4.949-3.036,5.787-6.845L577.322,165.8C578.625,159.872,576.016,152.948,571.5,150.338Z" transform="translate(-247.809 -55.415)"/><path class="e" d="M540.446,280.345,390.158,193.619c-4.136-2.388-6.523-8.723-5.331-14.149L408.644,71.05c1.192-5.426,5.511-7.888,9.649-5.5L568.58,152.277c4.137,2.388,6.524,8.723,5.333,14.149L550.095,274.845C548.9,280.27,544.582,282.733,540.446,280.345Z" transform="translate(-252.503 -53.72)"/><path class="f" d="M540.446,280.345,390.158,193.619c-4.136-2.388-6.523-8.723-5.331-14.149L408.644,71.05c1.192-5.426,5.511-7.888,9.649-5.5L568.58,152.277c4.137,2.388,6.524,8.723,5.333,14.149L550.095,274.845C548.9,280.27,544.582,282.733,540.446,280.345Z" transform="translate(-252.503 -53.72)"/><path class="j" d="M541.755,279.781,391.468,193.053c-4.137-2.387-6.524-8.723-5.333-14.147L409.955,70.485a8.317,8.317,0,0,1,3.786-5.707c-2.382.614-4.35,2.846-5.1,6.24L384.826,179.438c-1.192,5.427,1.2,11.762,5.331,14.15l150.288,86.726a5.776,5.776,0,0,0,5.861.207A5.993,5.993,0,0,1,541.755,279.781Z" transform="translate(-252.503 -53.688)"/><path class="f" d="M570.342,267.027,548.5,264.143l-141-81.408c-4.519-2.61-12.415-2.283-17.635.731L289.945,241.13l-13.209-1.744v7.493l.013,0c-.086,1.732.9,3.4,3.032,4.63l159.8,92.26c4.521,2.61,12.417,2.282,17.637-.731l108.811-62.8c2.936-1.7,4.4-3.879,4.314-5.93h0Z" transform="translate(-276.73 -27.571)"/><path class="g" d="M464.4,210.3l-10.019-5.783H344.242l-54.3,31.327L276.736,234.1v7.493l.013,0c-.086,1.732.9,3.4,3.032,4.63l159.8,92.26a16.539,16.539,0,0,0,9.1,1.706Z" transform="translate(-276.73 -22.28)"/><path class="j" d="M282.6,229.44l-5.862-.774v7.493l.013,0c-.086,1.732.9,3.4,3.032,4.63l2.816,1.625Z" transform="translate(-276.73 -16.851)"/><path class="h" d="M411.009,317.743a20.469,20.469,0,0,0,14.985-.93V300.1H411.009Z" transform="translate(-246.549 -0.795)"/><path class="i" d="M439.582,338.565l-159.8-92.26c-4.521-2.61-3.954-7.169,1.266-10.183l108.811-62.8c5.22-3.013,13.116-3.34,17.635-.73l159.8,92.26c4.521,2.61,3.953,7.169-1.266,10.182l-108.811,62.8C452,340.848,444.1,341.175,439.582,338.565Z" transform="translate(-276.731 -29.851)"/><path class="e" d="M566.028,259.51l-108.811,62.8c-5.22,3.014-13.116,3.341-17.637.732l-159.8-92.261a5.939,5.939,0,0,1-2.81-3.074c-.708,2.138.194,4.3,2.81,5.812l159.8,92.26c4.521,2.61,12.417,2.283,17.637-.731l108.811-62.8c3.508-2.025,4.9-4.747,4.076-7.109A8.494,8.494,0,0,1,566.028,259.51Z" transform="translate(-276.729 -17.066)"/><g transform="translate(63.394 146.66)"><path class="j" d="M336.114,209.485l-7.231-4.174c-.581-.336-.507-.921.163-1.308l8.534-4.927a2.519,2.519,0,0,1,2.265-.094l7.231,4.175c.581.334.507.92-.163,1.307l-8.534,4.927A2.519,2.519,0,0,1,336.114,209.485Z" transform="translate(-328.491 -170.233)"/><path class="j" d="M345.23,214.748,338,210.574c-.581-.336-.508-.921.163-1.308l8.534-4.927a2.515,2.515,0,0,1,2.265-.093l7.23,4.174c.581.336.508.921-.163,1.308l-8.534,4.927A2.515,2.515,0,0,1,345.23,214.748Z" transform="translate(-326.442 -169.05)"/><path class="j" d="M354.347,220.012l-7.231-4.175c-.581-.334-.507-.92.163-1.307l8.534-4.927a2.519,2.519,0,0,1,2.265-.094l7.231,4.175c.581.334.507.92-.163,1.307l-8.534,4.927A2.519,2.519,0,0,1,354.347,220.012Z" transform="translate(-324.393 -167.867)"/><path class="j" d="M366.955,215.52l-7.23-4.174c-.581-.336-.507-.921.163-1.308l7.164-4.136a2.519,2.519,0,0,1,2.265-.094l7.231,4.175c.581.334.507.92-.163,1.307l-7.164,4.136A2.518,2.518,0,0,1,366.955,215.52Z" transform="translate(-321.559 -168.699)"/><path class="j" d="M376.072,220.783l-7.23-4.174c-.581-.334-.508-.92.162-1.307l7.165-4.137a2.515,2.515,0,0,1,2.265-.093l7.23,4.174c.581.336.508.921-.163,1.308l-7.164,4.136A2.515,2.515,0,0,1,376.072,220.783Z" transform="translate(-319.51 -167.516)"/><path class="j" d="M385.188,226.047l-7.23-4.174c-.581-.336-.507-.921.163-1.308l7.164-4.136a2.519,2.519,0,0,1,2.265-.094l7.231,4.175c.581.334.507.92-.163,1.307l-7.164,4.136A2.518,2.518,0,0,1,385.188,226.047Z" transform="translate(-317.46 -166.333)"/><path class="j" d="M394.3,231.31l-7.23-4.174c-.581-.336-.508-.921.162-1.308l7.165-4.136a2.515,2.515,0,0,1,2.265-.093l7.23,4.174c.581.336.508.921-.163,1.308l-7.164,4.136A2.515,2.515,0,0,1,394.3,231.31Z" transform="translate(-315.411 -165.15)"/><path class="j" d="M403.422,236.574l-7.231-4.175c-.581-.334-.507-.92.163-1.307l7.164-4.136a2.516,2.516,0,0,1,2.265-.094l7.231,4.174c.581.336.507.921-.163,1.308l-7.164,4.136A2.519,2.519,0,0,1,403.422,236.574Z" transform="translate(-313.362 -163.967)"/><path class="j" d="M412.538,241.837l-7.23-4.174c-.581-.336-.508-.921.162-1.308l7.165-4.136a2.515,2.515,0,0,1,2.265-.093l7.23,4.174c.581.334.508.921-.162,1.307l-7.165,4.136A2.515,2.515,0,0,1,412.538,241.837Z" transform="translate(-311.313 -162.784)"/><path class="j" d="M421.655,247.1l-7.231-4.175c-.581-.334-.507-.92.163-1.307l7.164-4.136a2.516,2.516,0,0,1,2.265-.094l7.231,4.174c.581.336.507.921-.163,1.308l-7.164,4.136A2.519,2.519,0,0,1,421.655,247.1Z" transform="translate(-309.264 -161.601)"/><path class="j" d="M430.771,252.364l-7.23-4.174c-.581-.336-.508-.921.163-1.308l7.164-4.136a2.519,2.519,0,0,1,2.265-.094l7.23,4.175c.581.334.508.92-.162,1.307l-7.165,4.136A2.516,2.516,0,0,1,430.771,252.364Z" transform="translate(-307.215 -160.418)"/><path class="j" d="M439.888,257.628l-7.231-4.175c-.581-.334-.507-.92.163-1.308l7.164-4.136a2.522,2.522,0,0,1,2.266-.093l7.23,4.174c.581.336.507.921-.163,1.308l-7.164,4.136A2.519,2.519,0,0,1,439.888,257.628Z" transform="translate(-305.166 -159.234)"/><path class="j" d="M449,262.891l-7.23-4.174c-.581-.336-.508-.921.163-1.308l7.164-4.136a2.519,2.519,0,0,1,2.265-.094l7.23,4.175c.581.334.508.92-.162,1.307l-7.165,4.136A2.515,2.515,0,0,1,449,262.891Z" transform="translate(-303.116 -158.051)"/><path class="j" d="M380.388,213.028l-7.23-4.174c-.581-.336-.508-.921.162-1.308l7.165-4.136a2.519,2.519,0,0,1,2.265-.094l7.23,4.175c.581.334.508.92-.163,1.307l-7.164,4.136A2.516,2.516,0,0,1,380.388,213.028Z" transform="translate(-318.54 -169.259)"/><path class="j" d="M371.135,207.686l-7.23-4.174c-.581-.336-.507-.921.163-1.308l7.164-4.136a2.519,2.519,0,0,1,2.265-.094l7.231,4.175c.581.334.507.92-.163,1.307l-7.164,4.136A2.518,2.518,0,0,1,371.135,207.686Z" transform="translate(-320.619 -170.46)"/><path class="j" d="M363.4,203.219l-15.573-8.99c-.581-.336-.507-.921.163-1.308l7.164-4.136a2.522,2.522,0,0,1,2.266-.094l15.572,8.991c.581.336.507.921-.163,1.308l-7.164,4.136A2.515,2.515,0,0,1,363.4,203.219Z" transform="translate(-324.233 -172.546)"/><path class="j" d="M369.338,196.4,356.7,189.1c-.581-.334-.508-.92.163-1.308l7.164-4.136a2.519,2.519,0,0,1,2.265-.093l12.637,7.3c.581.334.508.92-.163,1.308l-7.164,4.136A2.515,2.515,0,0,1,369.338,196.4Z" transform="translate(-322.239 -173.698)"/><path class="j" d="M389.5,218.291l-7.231-4.174c-.581-.334-.507-.92.163-1.307l7.164-4.137a2.515,2.515,0,0,1,2.265-.093l7.231,4.174c.581.336.507.921-.163,1.308L391.77,218.2A2.515,2.515,0,0,1,389.5,218.291Z" transform="translate(-316.49 -168.076)"/><path class="j" d="M398.621,223.555l-7.23-4.174c-.581-.336-.508-.921.163-1.308l7.164-4.136a2.519,2.519,0,0,1,2.265-.094l7.23,4.175c.581.334.508.92-.162,1.307l-7.165,4.136A2.516,2.516,0,0,1,398.621,223.555Z" transform="translate(-314.441 -166.893)"/><path class="j" d="M407.738,228.818l-7.231-4.174c-.581-.336-.507-.921.163-1.308l7.164-4.136a2.518,2.518,0,0,1,2.266-.093l7.23,4.174c.581.336.507.921-.163,1.308L410,228.725A2.515,2.515,0,0,1,407.738,228.818Z" transform="translate(-312.392 -165.71)"/><path class="j" d="M416.854,234.082l-7.23-4.174c-.581-.336-.508-.921.163-1.308l7.164-4.136a2.519,2.519,0,0,1,2.265-.094l7.23,4.174c.581.336.508.921-.162,1.308l-7.165,4.136A2.516,2.516,0,0,1,416.854,234.082Z" transform="translate(-310.343 -164.527)"/><path class="j" d="M425.971,239.345l-7.231-4.174c-.581-.336-.507-.921.163-1.308l7.164-4.136a2.518,2.518,0,0,1,2.266-.093l7.23,4.174c.581.336.507.921-.163,1.308l-7.164,4.136A2.515,2.515,0,0,1,425.971,239.345Z" transform="translate(-308.294 -163.344)"/><path class="j" d="M435.087,244.609l-7.23-4.175c-.581-.334-.508-.92.163-1.307l7.164-4.136a2.515,2.515,0,0,1,2.265-.094l7.23,4.174c.581.336.508.921-.162,1.308l-7.165,4.136A2.519,2.519,0,0,1,435.087,244.609Z" transform="translate(-306.245 -162.161)"/><path class="j" d="M444.2,249.872l-7.231-4.174c-.581-.336-.507-.921.163-1.308l7.164-4.136a2.518,2.518,0,0,1,2.266-.093l7.23,4.174c.581.334.508.92-.163,1.307l-7.164,4.136A2.516,2.516,0,0,1,444.2,249.872Z" transform="translate(-304.195 -160.978)"/><path class="j" d="M453.32,255.136l-7.23-4.175c-.581-.334-.508-.92.163-1.307l7.164-4.136a2.515,2.515,0,0,1,2.265-.094l7.231,4.174c.581.336.507.921-.163,1.308l-7.164,4.136A2.522,2.522,0,0,1,453.32,255.136Z" transform="translate(-302.146 -159.795)"/><path class="j" d="M462.437,260.4l-7.23-4.174c-.581-.336-.508-.921.162-1.308l7.165-4.136a2.519,2.519,0,0,1,2.265-.094l7.23,4.175c.581.334.508.92-.163,1.307L464.7,260.3A2.516,2.516,0,0,1,462.437,260.4Z" transform="translate(-300.097 -158.611)"/><path class="j" d="M480.212,270.661l-15.776-9.107c-.581-.336-.507-.921.163-1.308l7.164-4.136a2.522,2.522,0,0,1,2.266-.094l15.775,9.109c.581.334.508.92-.163,1.308l-7.164,4.136A2.515,2.515,0,0,1,480.212,270.661Z" transform="translate(-298.023 -157.414)"/><path class="j" d="M497.51,260.154l-13.316-7.688c-.581-.334-.507-.92.163-1.307l7.164-4.137a2.515,2.515,0,0,1,2.265-.093l13.316,7.688c.581.334.508.92-.163,1.307l-7.164,4.136A2.515,2.515,0,0,1,497.51,260.154Z" transform="translate(-293.581 -159.456)"/><path class="j" d="M405.47,217.262l-7.231-4.175c-.581-.334-.507-.92.163-1.307l7.164-4.136a2.516,2.516,0,0,1,2.265-.094l7.231,4.174c.581.336.507.921-.163,1.308l-7.164,4.136A2.519,2.519,0,0,1,405.47,217.262Z" transform="translate(-312.902 -168.308)"/><path class="j" d="M396.126,211.867l-7.23-4.174c-.581-.336-.508-.921.163-1.308l7.164-4.136a2.515,2.515,0,0,1,2.265-.093l7.23,4.174c.581.336.508.921-.162,1.308l-7.165,4.136A2.515,2.515,0,0,1,396.126,211.867Z" transform="translate(-315.002 -169.52)"/><path class="j" d="M386.783,206.473l-7.23-4.174c-.581-.336-.508-.921.162-1.308l7.165-4.136a2.519,2.519,0,0,1,2.265-.094l7.23,4.175c.581.334.508.92-.163,1.307l-7.164,4.136A2.516,2.516,0,0,1,386.783,206.473Z" transform="translate(-317.102 -170.733)"/><path class="j" d="M377.44,201.079l-7.231-4.175c-.581-.334-.507-.92.163-1.307l7.164-4.136a2.518,2.518,0,0,1,2.266-.094l7.23,4.174c.581.336.507.921-.163,1.308l-7.164,4.136A2.519,2.519,0,0,1,377.44,201.079Z" transform="translate(-319.202 -171.945)"/><path class="j" d="M414.586,222.525l-7.23-4.174c-.581-.336-.508-.921.163-1.308l7.164-4.136a2.519,2.519,0,0,1,2.265-.094l7.23,4.175c.581.334.508.92-.162,1.307l-7.165,4.136A2.515,2.515,0,0,1,414.586,222.525Z" transform="translate(-310.853 -167.125)"/><path class="j" d="M423.7,227.789l-7.231-4.175c-.581-.334-.507-.92.163-1.307l7.164-4.137a2.522,2.522,0,0,1,2.266-.093l7.23,4.174c.581.336.507.921-.163,1.308l-7.164,4.136A2.519,2.519,0,0,1,423.7,227.789Z" transform="translate(-308.804 -165.941)"/><path class="j" d="M432.819,233.052l-7.23-4.174c-.581-.336-.508-.921.163-1.308l7.164-4.136a2.519,2.519,0,0,1,2.265-.094l7.23,4.175c.581.334.508.92-.162,1.307l-7.165,4.136A2.515,2.515,0,0,1,432.819,233.052Z" transform="translate(-306.754 -164.758)"/><path class="j" d="M441.936,238.315l-7.231-4.174c-.581-.336-.507-.92.163-1.308l7.164-4.136a2.518,2.518,0,0,1,2.266-.093l7.23,4.174c.581.336.507.921-.163,1.308l-7.164,4.136A2.515,2.515,0,0,1,441.936,238.315Z" transform="translate(-304.705 -163.575)"/><path class="j" d="M451.052,243.579l-7.23-4.174c-.581-.336-.508-.921.163-1.308l7.164-4.136a2.515,2.515,0,0,1,2.265-.094l7.23,4.175c.581.334.508.92-.162,1.307l-7.165,4.136A2.516,2.516,0,0,1,451.052,243.579Z" transform="translate(-302.656 -162.392)"/><path class="j" d="M460.169,248.842l-7.231-4.174c-.581-.336-.507-.921.163-1.308l7.164-4.136a2.518,2.518,0,0,1,2.266-.093l7.23,4.174c.581.336.508.921-.163,1.308l-7.164,4.136A2.515,2.515,0,0,1,460.169,248.842Z" transform="translate(-300.607 -161.209)"/><path class="j" d="M469.285,254.106l-7.23-4.175c-.581-.334-.508-.92.163-1.307l7.164-4.136a2.516,2.516,0,0,1,2.265-.094l7.231,4.174c.581.336.507.921-.163,1.308l-7.164,4.136A2.522,2.522,0,0,1,469.285,254.106Z" transform="translate(-298.558 -160.026)"/><path class="j" d="M478.4,259.369l-7.23-4.174c-.581-.336-.508-.921.162-1.308l7.165-4.136a2.519,2.519,0,0,1,2.265-.094l7.23,4.175c.581.336.508.92-.163,1.307l-7.164,4.136A2.516,2.516,0,0,1,478.4,259.369Z" transform="translate(-296.509 -158.843)"/><path class="j" d="M487.518,264.633l-7.23-4.175c-.581-.334-.507-.92.163-1.307l7.164-4.136a2.515,2.515,0,0,1,2.265-.094l7.231,4.174c.581.336.507.921-.163,1.308l-7.164,4.136A2.522,2.522,0,0,1,487.518,264.633Z" transform="translate(-294.459 -157.66)"/><path class="j" d="M400.669,204.243l-7.23-4.174c-.581-.336-.508-.921.163-1.308l7.164-4.136a2.519,2.519,0,0,1,2.265-.094l7.23,4.175c.581.334.508.92-.162,1.307l-7.165,4.136A2.516,2.516,0,0,1,400.669,204.243Z" transform="translate(-313.981 -171.234)"/><path class="j" d="M391.6,199.006l-7.23-4.175c-.581-.334-.508-.92.162-1.307l7.165-4.136a2.515,2.515,0,0,1,2.265-.094l7.23,4.174c.581.336.508.921-.163,1.308l-7.164,4.136A2.519,2.519,0,0,1,391.6,199.006Z" transform="translate(-316.02 -172.411)"/><path class="j" d="M382.527,193.768l-7.231-4.174c-.581-.336-.507-.921.163-1.308l7.164-4.136a2.518,2.518,0,0,1,2.266-.093l7.23,4.174c.581.336.508.921-.163,1.308l-7.164,4.136A2.515,2.515,0,0,1,382.527,193.768Z" transform="translate(-318.059 -173.588)"/><path class="j" d="M373.456,188.531l-7.231-4.174c-.581-.336-.507-.921.163-1.308l7.164-4.136a2.515,2.515,0,0,1,2.265-.093l7.231,4.174c.581.334.507.921-.163,1.307l-7.164,4.137A2.515,2.515,0,0,1,373.456,188.531Z" transform="translate(-320.098 -174.765)"/><path class="j" d="M382.784,182.638l-7.231-4.175c-.581-.334-.507-.92.163-1.307l2.369-1.368a2.515,2.515,0,0,1,2.265-.093l7.23,4.174c.581.336.508.921-.163,1.308l-2.367,1.367A2.519,2.519,0,0,1,382.784,182.638Z" transform="translate(-318.001 -175.468)"/><path class="j" d="M394.621,189.472l-7.23-4.174c-.581-.336-.507-.921.163-1.308l2.367-1.367a2.522,2.522,0,0,1,2.266-.094l7.23,4.175c.581.334.508.92-.163,1.307l-2.367,1.368A2.518,2.518,0,0,1,394.621,189.472Z" transform="translate(-315.34 -173.932)"/><path class="j" d="M403.655,194.688l-7.231-4.175c-.581-.334-.507-.92.163-1.307l2.369-1.368a2.515,2.515,0,0,1,2.265-.093l7.23,4.174c.581.336.508.921-.162,1.308l-2.369,1.367A2.519,2.519,0,0,1,403.655,194.688Z" transform="translate(-313.31 -172.759)"/><path class="j" d="M412.688,199.9l-7.23-4.174c-.581-.336-.508-.921.163-1.308l2.367-1.367a2.519,2.519,0,0,1,2.265-.094l7.231,4.175c.581.334.507.92-.163,1.307l-2.369,1.368A2.515,2.515,0,0,1,412.688,199.9Z" transform="translate(-311.279 -171.587)"/><path class="j" d="M421.722,205.119l-7.231-4.175c-.581-.334-.507-.92.163-1.307l2.369-1.368a2.515,2.515,0,0,1,2.265-.093l7.23,4.174c.581.334.508.92-.163,1.307l-2.368,1.368A2.519,2.519,0,0,1,421.722,205.119Z" transform="translate(-309.249 -170.415)"/><path class="j" d="M472.154,234.235l-7.231-4.174c-.581-.336-.507-.92.163-1.307l2.369-1.368a2.515,2.515,0,0,1,2.265-.093l7.23,4.174c.581.334.508.92-.163,1.308l-2.367,1.367A2.515,2.515,0,0,1,472.154,234.235Z" transform="translate(-297.913 -163.87)"/><path class="j" d="M481.187,239.451l-7.23-4.174c-.581-.336-.508-.921.162-1.308l2.369-1.367a2.515,2.515,0,0,1,2.265-.094l7.231,4.174c.581.336.507.921-.163,1.308l-2.369,1.367A2.516,2.516,0,0,1,481.187,239.451Z" transform="translate(-295.883 -162.698)"/><path class="j" d="M490.22,244.666l-7.23-4.174c-.581-.336-.508-.921.163-1.308l2.368-1.367a2.522,2.522,0,0,1,2.266-.094l7.23,4.175c.581.334.507.92-.163,1.307l-2.367,1.368A2.518,2.518,0,0,1,490.22,244.666Z" transform="translate(-293.852 -161.525)"/><path class="j" d="M499.254,249.882l-7.231-4.174c-.581-.336-.507-.921.163-1.308l2.369-1.368a2.519,2.519,0,0,1,2.265-.093l7.23,4.174c.581.336.508.921-.162,1.308l-2.369,1.367A2.519,2.519,0,0,1,499.254,249.882Z" transform="translate(-291.822 -160.353)"/><path class="j" d="M409.786,209.506l-7.231-4.174c-.581-.336-.507-.921.163-1.308l7.164-4.136a2.518,2.518,0,0,1,2.266-.093l7.23,4.174c.581.336.507.921-.163,1.308l-7.164,4.136A2.515,2.515,0,0,1,409.786,209.506Z" transform="translate(-311.932 -170.051)"/><path class="j" d="M418.9,214.77l-7.23-4.175c-.581-.334-.508-.92.163-1.307L419,205.152a2.519,2.519,0,0,1,2.265-.094l7.23,4.174c.581.336.508.921-.162,1.308l-7.165,4.136A2.519,2.519,0,0,1,418.9,214.77Z" transform="translate(-309.883 -168.868)"/><path class="j" d="M428.019,220.033l-7.231-4.174c-.581-.336-.507-.921.163-1.308l7.164-4.136a2.518,2.518,0,0,1,2.266-.093l7.23,4.174c.581.336.508.92-.163,1.308l-7.164,4.136A2.519,2.519,0,0,1,428.019,220.033Z" transform="translate(-307.833 -167.685)"/><path class="j" d="M437.135,225.3l-7.23-4.175c-.581-.334-.508-.92.163-1.307l7.164-4.136a2.515,2.515,0,0,1,2.265-.094l7.231,4.174c.581.336.507.921-.163,1.308L439.4,225.2A2.522,2.522,0,0,1,437.135,225.3Z" transform="translate(-305.784 -166.502)"/><path class="j" d="M446.252,230.56l-7.23-4.174c-.581-.336-.508-.921.162-1.308l7.165-4.136a2.519,2.519,0,0,1,2.265-.094l7.23,4.175c.581.334.508.92-.163,1.307l-7.164,4.136A2.515,2.515,0,0,1,446.252,230.56Z" transform="translate(-303.735 -165.318)"/><path class="j" d="M455.368,235.823l-7.23-4.174c-.581-.334-.508-.92.163-1.307l7.164-4.137a2.519,2.519,0,0,1,2.265-.093l7.231,4.174c.581.336.507.921-.163,1.308l-7.164,4.136A2.518,2.518,0,0,1,455.368,235.823Z" transform="translate(-301.686 -164.135)"/><path class="j" d="M464.485,241.087l-7.23-4.174c-.581-.336-.508-.921.162-1.308l7.165-4.136a2.519,2.519,0,0,1,2.265-.094l7.23,4.175c.581.334.508.92-.163,1.307l-7.164,4.136A2.515,2.515,0,0,1,464.485,241.087Z" transform="translate(-299.637 -162.952)"/><path class="j" d="M473.6,246.35l-7.23-4.174c-.581-.336-.507-.921.163-1.308l7.164-4.136a2.515,2.515,0,0,1,2.265-.093l7.231,4.174c.581.336.507.921-.163,1.308l-7.164,4.136A2.518,2.518,0,0,1,473.6,246.35Z" transform="translate(-297.588 -161.769)"/><path class="j" d="M482.718,251.614l-7.23-4.175c-.581-.334-.508-.92.162-1.307L482.815,242a2.519,2.519,0,0,1,2.265-.094l7.23,4.175c.581.334.508.92-.163,1.307l-7.164,4.136A2.515,2.515,0,0,1,482.718,251.614Z" transform="translate(-295.538 -160.586)"/><path class="j" d="M360.246,211.646l-21.294-12.294c-.581-.334-.508-.92.163-1.307l7.164-4.136a2.515,2.515,0,0,1,2.265-.094l21.294,12.294c.581.334.508.921-.163,1.307l-7.164,4.137A2.515,2.515,0,0,1,360.246,211.646Z" transform="translate(-326.228 -171.395)"/><path class="j" d="M472.245,276.309l-21.294-12.294c-.581-.336-.508-.921.163-1.308l7.164-4.136a2.515,2.515,0,0,1,2.265-.093l21.294,12.293c.581.336.508.921-.163,1.308l-7.164,4.136A2.519,2.519,0,0,1,472.245,276.309Z" transform="translate(-301.054 -156.86)"/><path class="j" d="M433.206,265.541l-7.231-4.174c-.581-.336-.507-.921.163-1.308l8.534-4.927a2.519,2.519,0,0,1,2.265-.094l7.231,4.175c.579.334.507.92-.163,1.307l-8.534,4.927A2.519,2.519,0,0,1,433.206,265.541Z" transform="translate(-306.667 -157.633)"/><path class="j" d="M367.8,227.777,356.233,221.1c-.581-.336-.508-.921.163-1.308l8.534-4.927a2.515,2.515,0,0,1,2.265-.093l11.563,6.675c.581.336.508.921-.163,1.308l-8.534,4.927A2.519,2.519,0,0,1,367.8,227.777Z" transform="translate(-322.344 -166.684)"/><path class="j" d="M425.217,260.929l-11.563-6.676c-.581-.336-.508-.921.162-1.308l8.534-4.927a2.519,2.519,0,0,1,2.265-.094l11.564,6.676c.581.336.507.921-.163,1.308l-8.534,4.927A2.52,2.52,0,0,1,425.217,260.929Z" transform="translate(-309.437 -159.233)"/><path class="j" d="M380.949,235.371,369.386,228.7c-.581-.336-.507-.921.163-1.308l8.534-4.927a2.515,2.515,0,0,1,2.265-.093l11.563,6.675c.581.336.508.921-.163,1.308l-8.534,4.927A2.519,2.519,0,0,1,380.949,235.371Z" transform="translate(-319.387 -164.977)"/><path class="j" d="M380.34,222.362l50.273,29.025a.688.688,0,0,1,0,1.3l-8.7,5.024a2.5,2.5,0,0,1-2.26,0L369.378,228.69Z" transform="translate(-319.301 -164.927)"/><path class="j" d="M458.351,273.149l8.053,4.65c.476.274.416.754-.132,1.072l-3.492,2.015a2.063,2.063,0,0,1-1.856.077l-8.054-4.649c-.476-.276-.416-.754.134-1.072l3.491-2.016A2.065,2.065,0,0,1,458.351,273.149Z" transform="translate(-300.607 -153.553)"/><path class="j" d="M449.159,267.842l8.053,4.649c.476.276.416.756-.132,1.073l-3.492,2.015a2.065,2.065,0,0,1-1.857.077l-8.053-4.649c-.476-.276-.416-.756.132-1.073l3.492-2.015A2.065,2.065,0,0,1,449.159,267.842Z" transform="translate(-302.673 -154.746)"/><path class="j" d="M440.042,262.579l8.054,4.649c.475.274.416.754-.134,1.072l-3.491,2.016a2.065,2.065,0,0,1-1.857.077l-8.054-4.65c-.475-.274-.416-.754.133-1.072l3.491-2.016A2.061,2.061,0,0,1,440.042,262.579Z" transform="translate(-304.722 -155.929)"/><path class="j" d="M454.193,264.935l8.054,4.65c.475.274.416.754-.134,1.072l-3.492,2.016a2.063,2.063,0,0,1-1.855.077l-8.054-4.651c-.475-.274-.416-.754.133-1.072l3.491-2.016A2.065,2.065,0,0,1,454.193,264.935Z" transform="translate(-301.541 -155.4)"/></g><g transform="translate(169.531 47.175)"><path class="i" d="M500.177,169.288l-60.144-34.724.774-3.91,60.144,34.724Z" transform="translate(-409.556 -86.056)"/><path class="i" d="M479.257,172.751l-41.984-24.239.774-3.91,41.983,24.239Z" transform="translate(-410.176 -82.921)"/><path class="e" d="M474.974,162.507l-36.321-20.97.774-3.91,36.321,20.97Z" transform="translate(-409.866 -84.489)"/><path class="b" d="M491.092,171.813l-18.16-10.485.774-3.91,18.16,10.485Z" transform="translate(-402.161 -80.04)"/><path class="i" d="M438.137,108.636l-18.16-10.485.774-3.91,18.16,10.485Z" transform="translate(-414.064 -94.241)"/><path class="e" d="M436.528,116.055l-18.16-10.485.774-3.91,18.16,10.485Z" transform="translate(-414.426 -92.573)"/><path class="i" d="M509.3,218.96l-18.16-10.485.774-3.91,18.16,10.485Z" transform="translate(-398.068 -69.443)"/><path class="i" d="M433.31,130.893l-18.16-10.485.774-3.91,18.16,10.485Z" transform="translate(-415.149 -89.238)"/></g><g transform="translate(222.259 87.744)"><path class="b" d="M462.871,131.265a2.265,2.265,0,0,1-3.265,1.006,2.842,2.842,0,0,1-1.17-3.565A2.265,2.265,0,0,1,461.7,127.7,2.841,2.841,0,0,1,462.871,131.265Z" transform="translate(-458.201 -127.364)"/><path class="e" d="M469.258,134.953a2.267,2.267,0,0,1-3.265,1.006,2.842,2.842,0,0,1-1.17-3.567,2.266,2.266,0,0,1,3.265-1.006A2.843,2.843,0,0,1,469.258,134.953Z" transform="translate(-456.765 -126.536)"/><path class="i" d="M475.644,138.64a2.266,2.266,0,0,1-3.265,1.006,2.843,2.843,0,0,1-1.17-3.567,2.267,2.267,0,0,1,3.265-1.006A2.842,2.842,0,0,1,475.644,138.64Z" transform="translate(-455.33 -125.707)"/><path class="b" d="M482.031,142.327a2.265,2.265,0,0,1-3.265,1.006,2.842,2.842,0,0,1-1.17-3.565,2.265,2.265,0,0,1,3.265-1.006A2.842,2.842,0,0,1,482.031,142.327Z" transform="translate(-453.894 -124.878)"/></g></g><g transform="translate(482.505 378.466)"><path class="a" d="M568.447,345.568a9.735,9.735,0,0,0-8.806,0l-113.582,65.6c-2.431,1.4-2.431,3.68,0,5.084a9.735,9.735,0,0,0,8.806,0l113.582-65.6C570.878,349.249,570.878,346.972,568.447,345.568Z" transform="translate(-423.109 -309.786)"/><path class="i" d="M562.858,316.4h0a.5.5,0,0,0-.534-.234l-6.871,1.491,2.706,4.6,4.644-5.278A.5.5,0,0,0,562.858,316.4Z" transform="translate(-398.11 -316.16)"/><g transform="translate(82.118 0.759)"><path class="j" d="M564,319.662a3.439,3.439,0,0,0-1.576-2.68,1.122,1.122,0,0,0-1.03-.127A43.878,43.878,0,0,0,538.8,322.9l-.5.292,8.534,14.518,2.519-1.671a43.876,43.876,0,0,0,13.171-13.656l1.079-1.761A1.127,1.127,0,0,0,564,319.662Z" transform="translate(-484.082 -316.78)"/><path class="i" d="M548.869,332.744a13.158,13.158,0,0,0-6.034-10.266c-3.3-1.874-5.957-.314-5.927,3.483a13.16,13.16,0,0,0,6.034,10.266C546.245,338.1,548.9,336.54,548.869,332.744Z" transform="translate(-484.397 -315.677)"/><path class="i" d="M505.771,368.091l50.649-31.554-8.534-14.518-52.2,28.918Z" transform="translate(-493.662 -315.602)"/><path class="i" d="M508.168,358.3a15.548,15.548,0,0,0-7.131-12.13c-3.9-2.213-7.038-.37-7,4.116a15.554,15.554,0,0,0,7.131,12.131C505.068,364.631,508.2,362.789,508.168,358.3Z" transform="translate(-494.034 -310.384)"/></g><g transform="translate(12.222 37.308)"><path class="i" d="M505.809,359.688a15.548,15.548,0,0,0-7.131-12.13c-3.9-2.213-7.039-.37-7,4.116a15.551,15.551,0,0,0,7.131,12.13C502.709,366.018,505.844,364.174,505.809,359.688Z" transform="translate(-424.667 -346.621)"/><rect class="i" width="77.726" height="19.899" transform="translate(2.025 39.869) rotate(-30.447)"/><path class="i" d="M451.1,391.847a15.554,15.554,0,0,0-7.131-12.131c-3.9-2.213-7.039-.37-7,4.116a15.55,15.55,0,0,0,7.129,12.131C448,398.177,451.133,396.334,451.1,391.847Z" transform="translate(-436.965 -339.393)"/><path class="g" d="M448.107,389.749a10.276,10.276,0,0,0-4.817-7.368c-2.507-1.421-4.413-.426-4.259,2.222a10.274,10.274,0,0,0,4.817,7.368C446.355,393.392,448.262,392.4,448.107,389.749Z" transform="translate(-436.502 -338.729)"/></g><g transform="translate(78.831 34.393)"><path class="e" d="M508.066,358.226a15.546,15.546,0,0,0-7.131-12.13,5.5,5.5,0,0,0-4.18-.783c1.266-1.324,3.345-1.48,5.71-.14A15.554,15.554,0,0,1,509.6,357.3c.021,2.679-1.094,4.406-2.823,4.9A5.561,5.561,0,0,0,508.066,358.226Z" transform="translate(-490.135 -344.241)"/><path class="j" d="M508.909,358.057a15.552,15.552,0,0,0-7.131-12.131c-1.951-1.106-3.711-1.2-4.979-.453L493,347.7l1.809,3.078a15.892,15.892,0,0,0,6.466,11l1.81,3.078,3.8-2.232h0C508.151,361.882,508.926,360.3,508.909,358.057Z" transform="translate(-490.978 -344.073)"/><path class="i" d="M505.484,359.879a15.548,15.548,0,0,0-7.131-12.13c-3.9-2.213-7.039-.37-7,4.116A15.548,15.548,0,0,0,498.481,364C502.384,366.209,505.519,364.365,505.484,359.879Z" transform="translate(-491.35 -343.663)"/></g><g transform="translate(0 82.71)"><path class="b" d="M447.658,391.263l-4.35-7.4-14.2,8.349a4.293,4.293,0,0,0-1.526,5.876h0a4.294,4.294,0,0,0,5.876,1.525Z" transform="translate(-426.986 -383.652)"/><path class="b" d="M445.7,389.329a6.713,6.713,0,0,0-3.077-5.235c-1.684-.954-3.037-.159-3.022,1.777a6.712,6.712,0,0,0,3.075,5.233C444.359,392.059,445.712,391.264,445.7,389.329Z" transform="translate(-424.151 -383.69)"/></g><g transform="translate(18.161 40.9)"><path class="j" d="M460.984,370.875l-2.129-1.209c-1.224-.693-2.841-.519-4.556.487l-7.3,4.29a5.555,5.555,0,0,0-2.477,4.366l.029,3.654a3,3,0,0,1-.735,1.835l.273,1.693-1.82-1.042,0,0a.935.935,0,0,1-.435-.889l-.028-3.652a11.588,11.588,0,0,1,5.162-9.106l7.3-4.289c2.439-1.434,4.74-1.679,6.48-.693l2.129,1.208c1.224.693,2.841.521,4.556-.487l29.42-17.293a.944.944,0,0,1,.973-.094v0l1.816,1.04-1.554.6a3,3,0,0,1-1.209,1.6l-29.42,17.293C465.026,371.615,462.725,371.861,460.984,370.875Z" transform="translate(-441.814 -349.554)"/><path class="j" d="M460.361,370.528c-1.224-.693-2.841-.521-4.556.487l-7.3,4.289a5.559,5.559,0,0,0-2.476,4.368l.029,3.652a3.016,3.016,0,0,1-1.344,2.37c-.748.44-1.361.093-1.368-.775l-.028-3.653a11.584,11.584,0,0,1,5.162-9.105l7.3-4.29c2.439-1.433,4.74-1.679,6.48-.693l2.129,1.209c1.224.693,2.841.519,4.556-.489l29.42-17.293c.748-.44,1.361-.092,1.367.775a3.009,3.009,0,0,1-1.342,2.37l-29.42,17.293c-2.438,1.433-4.74,1.679-6.48.693Z" transform="translate(-441.476 -349.36)"/><g transform="translate(4.463 29.992)"><path class="e" d="M445.458,374.964l.028,3.653c0,.023-.011.049-.011.073a2.374,2.374,0,0,0,.1-.677l-.029-3.652c0-.1.016-.213.025-.32A4.14,4.14,0,0,0,445.458,374.964Z" transform="translate(-445.458 -374.042)"/></g></g></g><g transform="translate(223.26 366.314)"><path class="a" d="M227.414,336.343a14.3,14.3,0,0,0,1.776,3.751c-9.325,7.852-7.956,18.666,4.127,25.642,13.64,7.875,35.756,7.875,49.4,0,10.055-5.805,12.689-14.269,7.919-21.472a20.266,20.266,0,0,0,3.4-3.668c8.693,8.444,7.732,19.279-2.887,27.191l11.318,6.625c4.268-1.521,9.536-1.413,12.784.463l41.135,23.748c3.892,2.247,3.4,6.173-1.091,8.767s-11.294,2.877-15.186.63l-41.134-23.748c-2.953-1.7-3.379-4.375-1.453-6.7l-11.415-6.682c-16.476,8.642-41.947,8.4-57.855-.786C212.152,360.809,211.88,345.841,227.414,336.343Z" transform="translate(-215.173 -299.472)"/><path class="k" d="M231.012,320.03c14.87-8.586,38.978-8.586,53.848,0,6.164,3.559,9.765,8.036,10.817,12.669-.928,4.086-3.845,8.049-8.749,11.371a31.206,31.206,0,0,0-4.154-2.859c-14.87-8.584-38.978-8.584-53.847,0-.734.423-1.418.862-2.078,1.31-3.65-2.974-5.867-6.354-6.655-9.823C221.247,328.066,224.847,323.589,231.012,320.03Z" transform="translate(-214.223 -304.586)"/><path class="c" d="M296.895,340.842l-5.81-7.574-17.638-8.2-15.2-1.35-17.8,2.179-12.347,6.381-7.885,5.033-1.418-8.2,2.663-9.442s6.745-4.462,7.159-4.877,15.771-5.914,15.771-5.914l15.356-1.037L272.1,309.4l12.554,3.736,8.3,5.81,6.226,7.885.7,9.857Z" transform="translate(-214.536 -305.876)"/><path class="c" d="M215.319,326.844V342.8l4.266-6.917Z" transform="translate(-215.319 -301.607)"/><path class="c" d="M285.318,329.3c-14.87-8.584-38.978-8.584-53.848,0-4.677,2.7-7.88,5.929-9.616,9.354-1.309-1.172-3-2.094-3.7-3.673A30.032,30.032,0,0,1,227.485,327c17.071-9.856,44.748-9.856,61.819,0a30.94,30.94,0,0,1,8.755,7.222,13.056,13.056,0,0,1-3.119,4.445C293.206,335.238,290,332,285.318,329.3Z" transform="translate(-214.681 -303.233)"/><path class="k" d="M231.012,320.03c14.87-8.586,38.978-8.586,53.848,0,6.164,3.559,9.765,8.036,10.817,12.669-1.052,4.633-4.653,9.11-10.818,12.67-14.87,8.584-38.978,8.584-53.847,0-6.165-3.559-9.765-8.036-10.818-12.669C221.247,328.066,224.847,323.589,231.012,320.03Z" transform="translate(-214.223 -304.586)"/><path class="c" d="M218.795,333.39a5.27,5.27,0,0,0,1.329,1.724l.013-.165,3.943,2.352,4.842,4.5,6.709,2.974,9.269,3.32,8.232,1.938,11.344.484,7.331-.761,14.526-3.8,9.466-8.369c-.077-.168-.138-.337-.223-.5a13.054,13.054,0,0,0,3.119-4.445q.384.48.73.965l3.318-6.913v16.571l-.007-.015c.006,6.463-4.254,12.929-12.8,17.86-17.071,9.857-44.748,9.857-61.819,0C215.144,353.608,212.043,342.579,218.795,333.39Z" transform="translate(-215.317 -301.643)"/><path class="b" d="M278.243,340.6l3.413-3.018c-.077-.168-.138-.337-.223-.5a13.054,13.054,0,0,0,3.119-4.445q.384.48.73.965l3.318-6.913v16.571l-.007-.015c.006,5.81-3.449,11.618-10.351,16.316Z" transform="translate(-201.175 -301.643)"/><path class="b" d="M228.122,349.322c17.071,9.856,44.748,9.856,61.819,0s17.072-25.837,0-35.692-44.748-9.855-61.819,0S211.051,339.466,228.122,349.322Zm3.987-33.39c14.87-8.586,38.978-8.586,53.848,0s14.869,22.5,0,31.09-38.978,8.584-53.847,0S217.239,324.516,232.108,315.932Z" transform="translate(-215.319 -306.238)"/><g transform="translate(75.251 46.91)"><path class="i" d="M304.629,358.769l-24.228-14.1-3.221,5.218,24.339,14.175Z" transform="translate(-276.666 -344.509)"/><path class="l" d="M296.549,360.112c0,1.385.971,1.946,2.172,1.254a4.8,4.8,0,0,0,2.172-3.761c0-1.385-.972-1.946-2.172-1.254A4.8,4.8,0,0,0,296.549,360.112Z" transform="translate(-272.312 -341.951)"/><path class="l" d="M296.549,360.112c0,1.385.971,1.946,2.172,1.254a4.8,4.8,0,0,0,2.172-3.761c0-1.385-.972-1.946-2.172-1.254A4.8,4.8,0,0,0,296.549,360.112Z" transform="translate(-272.312 -341.951)"/><path class="i" d="M276.76,348.6c0,1.385.972,1.946,2.173,1.254a4.8,4.8,0,0,0,2.172-3.761c0-1.385-.973-1.946-2.172-1.254A4.8,4.8,0,0,0,276.76,348.6Z" transform="translate(-276.76 -344.539)"/><path class="j" d="M286.817,363.406c0-5.959,4.184-13.206,9.345-16.185,2.642-1.525,5.023-1.629,6.723-.576l0,0L354.11,376.41l-13.384,22.783-50.682-29.507a4.425,4.425,0,0,1-.974-.567l-.043-.025,0,0C287.651,368.007,286.817,366.061,286.817,363.406Z" transform="translate(-274.499 -344.222)"/><path class="i" d="M349.255,382.719l-57.33-33.1a15.651,15.651,0,0,1,3.089-2.4c2.642-1.525,5.023-1.629,6.723-.576l0,0,51.221,29.769Z" transform="translate(-273.351 -344.222)"/><g transform="translate(59.703 28.32)"><ellipse class="i" cx="13.216" cy="7.63" rx="13.216" ry="7.63" transform="translate(0 22.89) rotate(-59.999)"/><path class="j" d="M334.862,383.37a6.087,6.087,0,1,0,6.087-6.087A6.087,6.087,0,0,0,334.862,383.37Z" transform="translate(-323.403 -365.499)"/><circle class="e" cx="1.798" cy="1.798" r="1.798" transform="translate(18.66 13.842)"/></g><path class="e" d="M337.448,371.217c2.762-1.595,5.236-1.631,6.947-.42-1.657-.773-3.847-.571-6.257.821-5.161,2.98-9.345,10.226-9.345,16.185,0,2.77.913,4.763,2.4,5.815-1.892-.882-3.089-3.039-3.089-6.214C328.1,381.444,332.288,374.2,337.448,371.217Z" transform="translate(-265.219 -338.828)"/></g><g transform="translate(0.013 3.254)"><path class="e" d="M231.072,315.335c14.87-8.586,38.978-8.586,53.848,0,7.743,4.47,11.443,10.387,11.122,16.244-.3-5.389-4-10.729-11.122-14.843-14.87-8.584-38.978-8.584-53.848,0-7.126,4.115-10.827,9.454-11.123,14.844C219.628,325.722,223.329,319.805,231.072,315.335Z" transform="translate(-214.295 -308.895)"/><path class="e" d="M228.119,344.562c17.071,9.856,44.748,9.856,61.819,0,8.228-4.751,12.478-10.923,12.776-17.147.32,6.691-3.93,13.441-12.776,18.547-17.071,9.856-44.748,9.857-61.819,0-8.844-5.106-13.094-11.856-12.773-18.547C215.643,333.641,219.892,339.812,228.119,344.562Z" transform="translate(-215.329 -304.733)"/></g></g><g transform="translate(346.321 184.91)"><g transform="translate(0 0)"><g transform="translate(3.458)"><path class="b" d="M347.176,314.447s-4.593-2.316-7.414,1.132-6.851,11.59-6.976,17.091,4.353,5.129,7.016,3.827S350.24,323.914,350.71,321.7s-.555-5.2-1.3-5.783S347.176,314.447,347.176,314.447Z" transform="translate(-315.434 -123.161)"/><path class="i" d="M346.949,313.6l.212,4.758a2.7,2.7,0,0,1-1.344,2.475,5.3,5.3,0,0,1-3.543.55c-3.459-.556-3.767-1.544-4.015-6.3S346.949,313.6,346.949,313.6Z" transform="translate(-314.205 -123.426)"/><g transform="translate(0 84.629)"><path class="b" d="M333.45,306.977s-4.592-2.316-7.412,1.133-6.851,11.589-6.976,17.09,4.353,5.129,7.014,3.827,10.439-12.582,10.909-14.792-.555-5.2-1.3-5.785S333.45,306.977,333.45,306.977Z" transform="translate(-318.519 -209.469)"/><path class="i" d="M333.224,306.136l.212,4.758a2.7,2.7,0,0,1-1.345,2.474,5.286,5.286,0,0,1-3.542.551c-3.46-.556-3.769-1.544-4.015-6.3S333.224,306.136,333.224,306.136Z" transform="translate(-317.29 -209.734)"/><path class="f" d="M375.53,236.275c-1.359-22.116-23.95,3.254-23.95,3.254l-15.463,15.155L322.193,269.98a13.722,13.722,0,0,0-3.458,11.025l5.632,42.888a4.215,4.215,0,0,0,4.227,3.663,14.474,14.474,0,0,0,2.087-.183,5.239,5.239,0,0,0,4.653-5.56L334.3,281.7l29.24-17.627S376.889,258.391,375.53,236.275Z" transform="translate(-318.618 -227.224)"/></g><path class="f" d="M389.254,243.155c-1.359-22.116-23.95,3.253-23.95,3.253l-15.462,15.155-13.924,15.3a13.722,13.722,0,0,0-3.458,11.025l5.633,42.888a4.214,4.214,0,0,0,4.225,3.663,14.3,14.3,0,0,0,2.087-.184,5.239,5.239,0,0,0,4.654-5.559l-1-38.959,29.211-18.781S390.614,265.271,389.254,243.155Z" transform="translate(-315.533 -141.049)"/><path class="b" d="M373.962,183.983c17.127,7.1,16.784,17.225,16.784,17.225s-3.355,37.117-2.211,61.906c.479,10.363-55.057,11.153-46.774-16.493,9.765-32.6,6.1-58.988,10.676-62.967S369.532,182.146,373.962,183.983Z" transform="translate(-313.606 -152.868)"/><path class="m" d="M375.565,192.489c-.9,3.478-5.451,5.311-10.177,4.093s-7.829-5.023-6.932-8.5,5.451-5.309,10.177-4.093S376.46,189.012,375.565,192.489Z" transform="translate(-309.698 -152.398)"/><path class="e" d="M369.286,194.576,366.135,198a2.08,2.08,0,0,0-.535,1.645l2.167,18.734a2.038,2.038,0,0,1-.405,1.473l-6.78,8.87a.612.612,0,0,1-1.069-.186l-3.691-11.618a2.042,2.042,0,0,1,.038-1.345l6.494-17.016a2.074,2.074,0,0,0,.092-1.167l-.95-4.511Z" transform="translate(-310.278 -150.316)"/><path class="e" d="M368.463,197.928a12.63,12.63,0,0,1-3.128-.4,11.394,11.394,0,0,1-6-3.678,6.552,6.552,0,0,1-1.518-5.82c1.008-3.908,6.015-6.009,11.174-4.681s8.528,5.589,7.521,9.5a6.546,6.546,0,0,1-4.14,4.361A10.457,10.457,0,0,1,368.463,197.928Zm-2.611-13.349c-3.181,0-5.84,1.48-6.452,3.857a4.957,4.957,0,0,0,1.2,4.376,10.384,10.384,0,0,0,11.158,2.875,4.958,4.958,0,0,0,3.165-3.252h0c.783-3.035-2.064-6.4-6.344-7.5A10.885,10.885,0,0,0,365.852,184.579Z" transform="translate(-309.849 -152.547)"/><path class="m" d="M362.318,183.527a42.158,42.158,0,0,1-.148,6.114c-.093,1.706,5.88,3.3,7.425,1.756s.927-3.15,1.3-8.958S362.318,183.527,362.318,183.527Z" transform="translate(-308.829 -153.184)"/><path class="n" d="M370.893,182.012s-1.472,5.384-8.724,7.45l.11-4.894Z" transform="translate(-308.829 -152.757)"/><circle class="m" cx="13.184" cy="13.184" r="13.184" transform="translate(37.844 28.364) rotate(-75.592)"/><path class="n" d="M368.087,174.517s-7.259,3.108-12.286,3.145-3.918-4.174-3.918-4.174l14.92-2.156Z" transform="translate(-311.165 -155.158)"/><path class="i" d="M355.355,178.305s6.324-2.685,11.871-1.565a5.82,5.82,0,0,1,3.352,1.991,1.978,1.978,0,0,0,1.014.735c.983.222,2.594-3.859,4.506-3.952s3.188,1.262,1.62,3.771-1.039,5.318-.317,5.721,9.651-5.829,2.9-19.2-25.17-5.8-27.837-3.088c0,0-2.808,2.448-5.093.269C347.374,162.991,344.813,182.171,355.355,178.305Z" transform="translate(-312.216 -158.126)"/><path class="m" d="M377.783,220.784v10.03a4.083,4.083,0,0,1-1.334,3.019l-20.6,18.784,2.342,3.58,28.385-18.613a5.529,5.529,0,0,0,2.252-3.9l1.941-18.612Z" transform="translate(-310.251 -145.326)"/><path class="b" d="M382.191,193.5s6.25,9.4,8.579,34.144c0,0-10.678,3.453-16.738,1.493S382.191,193.5,382.191,193.5Z" transform="translate(-306.501 -150.175)"/><path class="c" d="M373.3,203.2s-2.447,13.1-2.586,19.252a3.929,3.929,0,0,0,2.586,3.794h0Z" transform="translate(-306.909 -147.994)"/></g><g transform="translate(3.293 99.802)"><path class="j" d="M379.694,259.667l-4.554-.6-29.4-16.972a4.088,4.088,0,0,0-3.677.153l-20.83,12.021-2.753-.364v2.741h0a1.073,1.073,0,0,0,.632.966l33.314,19.233a4.083,4.083,0,0,0,3.677-.152L378.794,263.6a1.485,1.485,0,0,0,.9-1.236h0Z" transform="translate(-318.484 -239.137)"/><path class="g" d="M357.607,247.84l-2.088-1.205H332.558l-11.319,6.53-2.753-.364v2.741h0a1.074,1.074,0,0,0,.632.966l33.314,19.233a3.447,3.447,0,0,0,1.9.356Z" transform="translate(-318.484 -238.034)"/><path class="j" d="M319.706,251.832l-1.221-.162v2.741h0a1.074,1.074,0,0,0,.632.966l.587.338Z" transform="translate(-318.484 -236.902)"/><path class="j" d="M346.477,271.42a4.271,4.271,0,0,0,3.124-.195v-4.664h-3.124Z" transform="translate(-312.192 -233.555)"/><path class="e" d="M352.434,274.582,319.12,255.348c-.942-.544-.824-1.494.265-2.123l22.684-13.093a4.084,4.084,0,0,1,3.677-.152l33.314,19.234c.942.544.824,1.494-.264,2.123L356.11,274.428A4.087,4.087,0,0,1,352.434,274.582Z" transform="translate(-318.484 -239.613)"/><path class="i" d="M350.924,270.376l-27.7-15.992c-.783-.453-.685-1.243.22-1.765l12.156-6.837a3.4,3.4,0,0,1,3.057-.126l27.7,15.993c.784.452.686,1.242-.219,1.765l-12.156,6.835A3.393,3.393,0,0,1,350.924,270.376Z" transform="translate(-317.537 -238.323)"/></g><path class="m" d="M338.89,239.733l-.345,2.3a16.992,16.992,0,0,0,.151,5.895l.409,2.025a2.85,2.85,0,0,0,2.283,2.238h0a1.572,1.572,0,0,0,1.843-1.37l.55-4.914s1.257,1.647,1.864,1.647-.68-4.921-2.053-7.706S338.89,239.733,338.89,239.733Z" transform="translate(-310.724 -140.043)"/><path class="m" d="M350.482,210.967l-3.575,7.074a13.88,13.88,0,0,0-1.462,5.371l-1.553,24.2-4.7-.113-2.135-27.175a9.919,9.919,0,0,1,.121-2.512l2.439-13.781Z" transform="translate(-311.023 -147.808)"/><g transform="translate(0 85.393)"><path class="f" d="M351.8,279.073l-2.794-3.646L319.635,258.42a4.087,4.087,0,0,1-1.7-3.263l.026-24.05-1.689-2.2,1.587-.92v0a1.073,1.073,0,0,1,1.152.066L352.3,247.326a4.086,4.086,0,0,1,1.7,3.263l-.027,26.192a1.486,1.486,0,0,1-.623,1.4h0Z" transform="translate(-315.689 -227.847)"/><path class="g" d="M331.489,265.282l-2.087-1.208-11.457-19.9.012-13.068-1.689-2.2,1.587-.92v0a1.073,1.073,0,0,1,1.152.066L352.3,247.326a3.447,3.447,0,0,1,1.255,1.467Z" transform="translate(-315.689 -227.847)"/><path class="j" d="M317.019,229.881l-.75-.979,1.587-.92v0a1.073,1.073,0,0,1,1.152.066l.587.34Z" transform="translate(-315.689 -227.847)"/><path class="h" d="M346.562,243.925a4.268,4.268,0,0,1,1.391,2.8l-3.253,1.878-1.559-2.707Z" transform="translate(-309.648 -224.234)"/><path class="j" d="M350.821,248.076,317.531,228.8c-.942-.545-1.706.032-1.707,1.288l-.028,26.191a4.084,4.084,0,0,0,1.7,3.263l33.291,19.274c.941.545,1.706-.032,1.707-1.288l.028-26.191A4.088,4.088,0,0,0,350.821,248.076Z" transform="translate(-315.795 -227.679)"/></g><path class="m" d="M359.773,249.307l-.534,1.1a7.407,7.407,0,0,1-2.783,3.085l-3.307,2.038a3.293,3.293,0,0,1-3.376.078c-.038-.022-.075-.045-.113-.069a1.989,1.989,0,0,1-.28-3.056l3.455-3.553s-1.941,1.488-2.485.888c-.4-.438,1.882-2.581,3.634-2.65a6.922,6.922,0,0,0,3.447-1.446Z" transform="translate(-308.377 -138.436)"/><path class="b" d="M353.867,183.221S341.2,197,336.088,209.649a25.86,25.86,0,0,0,14.936,10.866C361.627,223.577,353.867,183.221,353.867,183.221Z" transform="translate(-311.234 -152.486)"/><path class="c" d="M346.846,216.643l2.054-19.834-4.839,18.582A27.363,27.363,0,0,0,346.846,216.643Z" transform="translate(-309.442 -149.431)"/><path class="e" d="M358.975,181.122l-3.4-.936a8.215,8.215,0,0,0,4,3.208c2.372.652,2.742-1.356,2.742-1.356Z" transform="translate(-306.854 -153.168)"/></g><circle class="e" cx="1.896" cy="1.896" r="1.896" transform="translate(66.511 20.609)"/></g><g transform="translate(179.987 282.802)"><path class="a" d="M230.49,285.638c-10.839,6.259-28.414,6.259-39.253,0s-10.839-16.4,0-22.662,28.412-6.259,39.252,0S241.329,279.381,230.49,285.638Z" transform="translate(-179.286 -233.506)"/><path class="b" d="M243.141,264.084v-8.866h-1.674a20.161,20.161,0,0,0-7.575-7.085c-12.331-7.12-32.324-7.12-44.656,0a20.166,20.166,0,0,0-7.574,7.085h-1.672v8.818h0c-.022,4.681,3.057,9.367,9.245,12.939,12.332,7.121,32.325,7.121,44.656,0C240.058,273.416,243.141,268.75,243.141,264.084Z" transform="translate(-179.987 -236.987)"/><ellipse class="b" cx="31.577" cy="18.231" rx="31.577" ry="18.231"/><path class="e" d="M233.887,265.722c-12.331,7.12-32.324,7.12-44.656,0-5.91-3.412-8.956-7.841-9.2-12.311-.267,4.857,2.779,9.765,9.2,13.471,12.332,7.121,32.325,7.121,44.656,0,6.421-3.706,9.466-8.613,9.2-13.47C242.842,257.881,239.8,262.31,233.887,265.722Z" transform="translate(-179.981 -234.601)"/><g transform="translate(15.525 9.588)"><path class="e" d="M193.5,260.56a1.419,1.419,0,0,1-.833-1.164l.032-11.878c0-.905,1.277-1.639,2.846-1.638s2.838.736,2.837,1.644l-.026,9.85,28.585-3.5c1.537-.189,3.045.378,3.371,1.264s-.655,1.758-2.19,1.946L196.095,261a4.5,4.5,0,0,1-2.381-.331C193.638,260.638,193.564,260.6,193.5,260.56Z" transform="translate(-192.663 -245.881)"/></g></g><g transform="translate(352.916 96.789)"><path class="c" d="M384.853,113.821l-47.133-27.2a2.857,2.857,0,0,0-2.676-.195l.01-.031-5.619,2.641s2.11.737,3.349,1.173l-6.8,34.313c-.552,2.791.7,6.034,2.791,7.243l45.05,26-.8,4.026,5.674-2.659-.026-.01A4.1,4.1,0,0,0,380.7,156.1l6.944-35.036C388.2,118.273,386.948,115.03,384.853,113.821Z" transform="translate(-320.13 -86.178)"/><path class="b" d="M371.234,161.159l-47.133-27.2c-2.094-1.209-3.344-4.452-2.79-7.243l6.944-35.035c.554-2.792,2.7-4.076,4.795-2.867l47.133,27.2c2.094,1.209,3.344,4.452,2.79,7.243l-6.944,35.035C375.475,161.086,373.328,162.368,371.234,161.159Z" transform="translate(-321.18 -85.688)"/><path class="e" d="M379.448,115.67l-47.133-27.2a2.819,2.819,0,0,0-3.094.026,2.987,2.987,0,0,1,2.022.394l47.133,27.2c2.094,1.209,3.344,4.452,2.79,7.243l-6.944,35.035a4.32,4.32,0,0,1-1.7,2.84c1.308-.218,2.4-1.388,2.773-3.26l6.944-35.036C382.791,120.122,381.542,116.879,379.448,115.67Z" transform="translate(-319.373 -85.764)"/><g transform="translate(16.535 30.254)"><path class="e" d="M341.124,116.82a2.49,2.49,0,0,1-3.907,1.835,5.526,5.526,0,0,1-2.453-5.505,2.491,2.491,0,0,1,3.908-1.836A5.527,5.527,0,0,1,341.124,116.82Z" transform="translate(-334.68 -110.879)"/><ellipse class="e" cx="3.052" cy="4.263" rx="3.052" ry="4.263" transform="matrix(0.922, -0.387, 0.387, 0.922, 8.432, 6.918)"/><path class="e" d="M356.855,125.9a2.49,2.49,0,0,1-3.907,1.835,5.526,5.526,0,0,1-2.453-5.505,2.491,2.491,0,0,1,3.908-1.836A5.527,5.527,0,0,1,356.855,125.9Z" transform="translate(-331.144 -108.838)"/></g></g><g transform="translate(536.727 38.967)"><g transform="translate(0)"><path class="j" d="M534.93,66.611,487.8,39.407a2.857,2.857,0,0,0-2.676-.195l.01-.031-5.618,2.641s2.109.737,3.347,1.173l-6.8,34.313c-.554,2.791.7,6.034,2.79,7.243l45.05,26-.8,4.026,5.674-2.659-.027-.009a4.1,4.1,0,0,0,2.027-3.023l6.946-35.035C538.274,71.062,537.025,67.82,534.93,66.611Z" transform="translate(-470.207 -38.967)"/><path class="i" d="M521.312,113.949l-47.134-27.2c-2.094-1.209-3.344-4.452-2.79-7.245l6.946-35.035c.552-2.792,2.7-4.075,4.794-2.866L530.26,68.8c2.094,1.209,3.344,4.452,2.79,7.243l-6.944,35.036C525.553,113.874,523.407,115.158,521.312,113.949Z" transform="translate(-471.257 -38.477)"/><path class="e" d="M529.525,68.459l-47.133-27.2a2.817,2.817,0,0,0-3.094.027,2.987,2.987,0,0,1,2.022.394l47.133,27.2c2.094,1.209,3.344,4.452,2.79,7.243L524.3,111.159a4.326,4.326,0,0,1-1.7,2.84c1.308-.219,2.4-1.389,2.773-3.262L532.315,75.7C532.868,72.911,531.619,69.668,529.525,68.459Z" transform="translate(-469.45 -38.553)"/></g><g transform="translate(16.535 30.255)"><path class="e" d="M491.2,69.609a2.492,2.492,0,0,1-3.908,1.836,5.529,5.529,0,0,1-2.453-5.507,2.492,2.492,0,0,1,3.908-1.836A5.529,5.529,0,0,1,491.2,69.609Z" transform="translate(-484.757 -63.669)"/><path class="e" d="M499.068,74.149a2.492,2.492,0,0,1-3.908,1.836,5.529,5.529,0,0,1-2.453-5.507,2.492,2.492,0,0,1,3.908-1.836A5.529,5.529,0,0,1,499.068,74.149Z" transform="translate(-482.989 -62.648)"/><path class="e" d="M506.932,78.689a2.491,2.491,0,0,1-3.907,1.836,5.529,5.529,0,0,1-2.453-5.507,2.492,2.492,0,0,1,3.908-1.836A5.526,5.526,0,0,1,506.932,78.689Z" transform="translate(-481.221 -61.628)"/></g></g></g></svg>