<svg xmlns="http://www.w3.org/2000/svg" xmlns:xlink="http://www.w3.org/1999/xlink" width="723.854" height="565.031" viewBox="0 0 723.854 565.031"><defs><linearGradient id="a" x1="4.513" y1="-3.241" x2="3.024" y2="-2.458" gradientUnits="objectBoundingBox"><stop offset="0" stop-color="#606bf1"/><stop offset="1" stop-color="#58479f"/></linearGradient><linearGradient id="b" x1="8.927" y1="-5.136" x2="7.575" y2="-4.342" xlink:href="#a"/><linearGradient id="c" x1="6.918" y1="-3.36" x2="5.26" y2="-2.587" xlink:href="#a"/></defs><g transform="translate(-29.745 -79.775)"><path d="M748.493,391.017,722.325,574.756H56.941L37.291,434.588a34.882,34.882,0,0,1,21.147-37.015l59.056-24.508v-58.73a34.8,34.8,0,0,1,29.789-34.464l13.964-2.045L184.7,198.514A34.81,34.81,0,0,1,218.1,173.559H458.018a34.786,34.786,0,0,1,34.728,32.3l114.243,12.062a34.856,34.856,0,0,1,31.127,32.6l4.614,79.252,80.729,22.809A34.841,34.841,0,0,1,748.493,391.017Z" transform="translate(4.757 61.866)" fill="#dadaea"/><path d="M73.144,396.023,93.914,541.868H622.071l15.6-111.26a27.687,27.687,0,0,0-16.787-29.381l-46.875-19.453V335.156A27.623,27.623,0,0,0,550.36,307.8l-11.085-1.621-18.618-62.956a27.629,27.629,0,0,0-26.506-19.806H303.712a27.606,27.606,0,0,0-27.565,25.638l-90.682,9.573a27.67,27.67,0,0,0-24.707,25.881l-3.663,62.906L93.015,365.518A27.656,27.656,0,0,0,73.144,396.023Z" transform="translate(28.446 94.753)" fill="#cdd3e0"/><path d="M508.574,433.38a31.615,31.615,0,0,0-27.064-31.311l-12.685-1.857-21.308-72.051a31.622,31.622,0,0,0-30.337-22.669H199.224a31.6,31.6,0,0,0-31.55,29.343L73.311,344.8,93.667,487.726h417.3l-2.392-.992Z" transform="translate(28.739 148.896)" fill="#bdbdd6"/><g transform="translate(29.745 79.775)"><g transform="translate(150.177 32.103)"><rect width="161.907" height="151.119" fill="#112b46"/><g style="mix-blend-mode:screen;isolation:isolate"><rect width="161.907" height="15.983" fill="#1d262d"/></g><g transform="translate(121.049 5.243)"><path d="M199.028,105.206a2.93,2.93,0,1,1-2.931-2.929A2.93,2.93,0,0,1,199.028,105.206Z" transform="translate(-193.168 -102.277)" fill="#606bf1"/><g transform="translate(12.233)"><path d="M206.4,105.206a2.929,2.929,0,1,1-2.929-2.929A2.929,2.929,0,0,1,206.4,105.206Z" transform="translate(-200.539 -102.277)" fill="#fbd15b"/></g><g transform="translate(23.592 0.309)"><path d="M213.242,105.392a2.929,2.929,0,1,1-2.929-2.929A2.929,2.929,0,0,1,213.242,105.392Z" transform="translate(-207.383 -102.463)" fill="#ff8578"/></g></g><g transform="translate(28.789 30.839)"><rect width="22.931" height="1.928" fill="#ff8578"/><g transform="translate(26.915)"><rect width="22.931" height="1.928" fill="#fbd15b"/></g><g transform="translate(7.093 10.382)"><rect width="35.56" height="1.928" fill="#606bf1"/></g><g transform="translate(48.533 10.382)"><rect width="18.075" height="1.928" fill="#ff8578"/></g><g transform="translate(19.429 20.765)"><rect width="15.618" height="1.928" fill="#fbd15b"/></g><g transform="translate(44.072 20.765)"><rect width="51.81" height="1.928" fill="#fbd15b"/></g><g transform="translate(31.559 31.147)"><rect width="59.212" height="1.927" fill="#606bf1"/></g><g transform="translate(16.754 41.53)"><rect width="18.223" height="1.927" fill="#ff8578"/></g><g transform="translate(42.775 41.53)"><rect width="18.223" height="1.927" fill="#606bf1"/></g><g transform="translate(0 53.866)"><g transform="translate(0 41.53)"><rect width="26.511" height="1.928" fill="#ff8578"/></g><g transform="translate(35.795 41.53)"><rect width="26.511" height="1.928" fill="#fbd15b"/></g><g transform="translate(70.626 41.53)"><rect width="26.511" height="1.928" fill="#ff8578"/></g><g transform="translate(7.093 31.147)"><rect width="51.81" height="1.927" fill="#606bf1"/></g><g transform="translate(66.981 31.147)"><rect width="51.81" height="1.927" fill="#ff8578"/></g><g transform="translate(19.429 20.765)"><rect width="51.413" height="1.927" fill="#ff8578"/></g><g transform="translate(75.324 20.765)"><rect width="14.31" height="1.927" fill="#fbd15b"/></g><g transform="translate(16.07 10.382)"><rect width="19.355" height="1.927" fill="#fbd15b"/></g><g transform="translate(45.704 10.382)"><rect width="19.355" height="1.927" fill="#606bf1"/></g><g transform="translate(77.507 10.382)"><rect width="19.355" height="1.927" fill="#ff8578"/></g><g transform="translate(38.507)"><rect width="27.139" height="1.927" fill="#fbd15b"/></g><g transform="translate(1.128)"><rect width="27.139" height="1.927" fill="#606bf1"/></g></g></g><g transform="translate(13.781 28.989)"><g transform="translate(0)"><rect width="2.467" height="2.467" fill="#f9fbfc"/></g><g transform="translate(0 10.015)"><path d="M131,203.124h-2.468v-5.03H131Zm0-12.579h-2.468v-5.03H131Zm0-12.58h-2.468v-5.03H131Zm0-12.579h-2.468v-5.032H131Zm0-12.579h-2.468v-5.032H131Zm0-12.579h-2.468V135.2H131Zm0-12.58h-2.468v-5.03H131Z" transform="translate(-128.535 -122.619)" fill="#f9fbfc"/></g><g transform="translate(0 98.068)"><rect width="2.467" height="2.467" fill="#f9fbfc"/></g></g></g><g transform="translate(346.921)"><rect width="133.321" height="82.178" fill="#ff8578"/><g transform="translate(30.68 16.156)"><path d="M278.361,101.556l-15.863,6.77L278.361,115l-2.076,4.793-19.023-8.5v-5.88l19.023-8.549Z" transform="translate(-257.262 -84.659)" fill="#f9fbfc"/><path d="M290.815,90.744,279.3,134.967l-5.485-1.285,11.563-44.173Z" transform="translate(-246.341 -89.509)" fill="#f9fbfc"/><path d="M309.032,105.411v5.88l-19.025,8.5L287.934,115l15.812-6.67-15.812-6.77,2.073-4.694Z" transform="translate(-237.029 -84.659)" fill="#f9fbfc"/></g></g><g transform="translate(475.662 159.204)"><rect width="75.935" height="54.098" fill="#606bf1"/><g transform="translate(21.257 8.112)"><path d="M339.662,184.155c-2.443,0-3.256.659-3.256,2.481v8.142c0,3.18-1.319,4.149-3.528,4.77,2.209.581,3.528,1.55,3.528,4.69v8.142c0,1.822.853,2.481,3.256,2.481v3.568c-6.164,0-7.91-1.978-7.91-6.088v-7.716c0-2.211-.581-3.064-2.6-3.064v-4.071c2.016,0,2.6-.891,2.6-3.1v-7.714c0-4.149,1.746-6.088,7.91-6.088Z" transform="translate(-329.155 -180.588)" fill="#f1f2f2"/><path d="M350.872,186.676v7.714c0,2.211.581,3.1,2.637,3.1v4.071c-2.056,0-2.637.853-2.637,3.064v7.716c0,4.109-1.744,6.088-7.91,6.088v-3.568c2.4,0,3.258-.659,3.258-2.481v-8.142c0-3.14,1.318-4.109,3.528-4.69-2.211-.621-3.528-1.59-3.528-4.77v-8.142c0-1.822-.815-2.481-3.258-2.481v-3.567C349.128,180.588,350.872,182.526,350.872,186.676Z" transform="translate(-320.047 -180.588)" fill="#f1f2f2"/></g></g><g transform="translate(98.647 11.786)"><rect width="85.189" height="56.979" fill="#fbd15b"/><g transform="translate(25.184 11.073)"><path d="M107.367,98.831a13.982,13.982,0,0,0,18.709,20.326l8.941,8.942a.969.969,0,0,0,1.368,0l2.511-2.513a.964.964,0,0,0,0-1.366l-8.941-8.942a13.983,13.983,0,0,0-22.588-16.447Zm17.946,15.684a9.887,9.887,0,1,1,0-13.981A9.9,9.9,0,0,1,125.313,114.515Z" transform="translate(-104.357 -93.548)" fill="#f9fbfc"/></g></g><path d="M306.061,202.2c-.186,1.882-2.758,21.531-22.965,21.531-21.212,0-17.659-21-17.659-21l-.027-.131a21.146,21.146,0,0,1,6.655-.319v-9.945l24.077-13.47h.875v23.2A43.76,43.76,0,0,1,306.061,202.2Z" transform="translate(125.585 -14.411)" fill="#af6e51"/><g transform="translate(368.697 111.329)"><g transform="translate(0)"><path d="M303.152,155.589a27.513,27.513,0,0,1,7.236,13.417c2.314,10.2.136,20.993-2.823,30.823a15.489,15.489,0,0,1-2.119,4.793,17.051,17.051,0,0,1-2.639,2.665q-6.425,5.594-12.839,11.2c-2.9,2.536-20.728,4.647-24.13,2.214-13.115-9.375-15.637-36.542-13.013-50.43C257.18,147.232,286.793,139,303.152,155.589Z" transform="translate(-251.897 -146.854)" fill="#af6e51"/></g></g><path d="M278.368,171.328c.174-2.217,2.455-4.645,4.743-3.206,2.37,1.49,1.812,5.429.83,7.6-.77,1.7-3.346,3.56-5.09,1.98-1.462-1.326.81-2.888.885-4.1.068-1.089-2.109-1.869-1.218-3.034" transform="translate(134.219 -21.781)" fill="#8c5844"/><path d="M278.639,180.658c2.39.717,6.438-1.105,7.464-4.435a25.5,25.5,0,0,0,.914-7.13,17.088,17.088,0,0,1,.584,7.862c-.619,4.85-2.319,9.468-6.124,9.53S278.639,180.658,278.639,180.658Z" transform="translate(134.368 -20.855)" fill="#af6e51"/><path d="M299.075,196.235a.84.84,0,0,1-.267.08c-1.48.207-2.071-1.583-2.29-2.7a49.879,49.879,0,0,1-.524-7.913,5.959,5.959,0,0,0-.239-2.114c-.833-1.905-3.047-3.142-3.724-5.108-.785-2.287,1.434-4.569.553-7.072-1.349-3.835-6.273-4.718-9.835-4.675-5.346.063-10.555,1.054-15.83,1.872-5.568.863-12.685,1.685-17.592-1.837-5.913-4.244-8.383-15.305-3.97-21.361,2.406-3.3,6.967-5.059,10.965-5.15,4.235-.1,7.815,2.428,11.7,3.7,3.1,1.012,6.089-1.948,8.982-2.528,3.636-.727,5.181,3.243,8.4,3.353,3.125.106,6.191-2.335,9.231-2.889,6.058-1.107,5.7,4.979,9.765,7.057,2.528,1.291,5.791.51,8.346,1.822,1.942,1,2.214,2.75,2.637,4.737a46.7,46.7,0,0,0,.951,5.329c.51,1.467,1.741,2.393,2.7,3.54a12.994,12.994,0,0,1,2.25,4.284,26.689,26.689,0,0,1,1.12,10.882c-.541,6.117-2.509,12.14-4.552,17.9-1.326,3.741-1.819,7.633-3.859,11.171-.548.951-2.981,3.729-3.885,1.66a3.033,3.033,0,0,1-.131-1.431c.269-3.854,3.859-28.69-5.55-25.706a6.668,6.668,0,0,0-4.036,4.144,16.14,16.14,0,0,0-.83,6.871c.017.339.025.679.012,1.017A1.159,1.159,0,0,1,299.075,196.235Z" transform="translate(110.999 -39.883)" fill="#3d3d7a"/><path d="M269.6,195.641c10.7-1.719,17.757-10.17,17.757-10.17s-2.886,14.242-18.4,15Z" transform="translate(128.053 -10.051)" fill="#8c5844"/><g transform="translate(343.404 379.723)"><path d="M1.626,0H13.687a1.626,1.626,0,0,1,1.626,1.626V149.62a0,0,0,0,1,0,0H0a0,0,0,0,1,0,0V1.626A1.626,1.626,0,0,1,1.626,0Z" transform="translate(87.121 149.62) rotate(180)" fill="#0a2033"/><path d="M6.314,0H77.9a6.314,6.314,0,0,1,6.314,6.314v6.464a0,0,0,0,1,0,0H0a0,0,0,0,1,0,0V6.314A6.314,6.314,0,0,1,6.314,0Z" transform="translate(121.572 14.878) rotate(180)" fill="#30475e"/><g transform="translate(0 120.789)"><path d="M1.626,0H13.687a1.626,1.626,0,0,1,1.626,1.626V36.745a0,0,0,0,1,0,0H0a0,0,0,0,1,0,0V1.626A1.626,1.626,0,0,1,1.626,0Z" transform="translate(87.121 48.155) rotate(180)" fill="#0a2033"/><path d="M236.657,408.527a8.962,8.962,0,1,0,8.962-8.962A8.962,8.962,0,0,0,236.657,408.527Z" transform="translate(-236.657 -369.334)" fill="#0a2033"/><path d="M321.617,408.527a8.962,8.962,0,1,0,8.962-8.962A8.961,8.961,0,0,0,321.617,408.527Z" transform="translate(-180.612 -369.334)" fill="#0a2033"/><rect width="30.807" height="26.92" transform="translate(94.868 26.92) rotate(180)" fill="#30475e"/><path d="M0,0H158.928a0,0,0,0,1,0,0V6.917a5.751,5.751,0,0,1-5.751,5.751H5.751A5.751,5.751,0,0,1,0,6.917V0A0,0,0,0,1,0,0Z" transform="translate(158.929 33.254) rotate(180)" fill="#fbd15b"/></g><rect width="5.312" height="100.489" transform="translate(74.153 17.898)" fill="#30475e"/></g><path d="M363.843,244.4a6.246,6.246,0,0,0-6.449,6.6c1.052,18.24-2.815,62.735-19.8,77.918-20.772,18.562-79.647,16.032-79.647,16.032s-9.722,11.933,9.724,14.585,74.246.883,87.5-11.491c12.834-11.978,20.454-43.36,14.711-97.983a6.287,6.287,0,0,0-6.039-5.656Z" transform="translate(119.186 28.822)" fill="#fbd15b"/><path d="M262.861,379.9l7,15.963-21.452,9.413-7.027-16.016Z" transform="translate(109.864 118.207)" fill="#af6e51"/><path d="M384.151,273c-1.326,2.652-96.64.053-105.642.876,0,0-58.337,27.842-66.715,53.907a28.478,28.478,0,0,0-.823,10.235c2.333,36.7,44.124,124.576,44.124,124.576l6.418-2.81,21.478-9.36,3.05-1.326s-33.147-98.775-26.516-104.077,81.75-18.562,107.816-25.615C393.432,312.325,384.151,273,384.151,273Z" transform="translate(89.735 47.687)" fill="#56548c"/><path d="M214.354,382.4l1.676,23.982H192.615l-1.676-24.035Z" transform="translate(76.589 119.818)" fill="#af6e51"/><path d="M297.994,273.031l-.85.372s-97.661,13.709-113.57,41.1c-10.341,17.818,9.676,148.023,9.676,148.023l34.551.08s-5.168-108.46-3.444-114.506c1.935-6.894,5.25-9.387,6.576-10.1a28.478,28.478,0,0,1,.823-10.235c8.378-26.065,66.715-53.907,66.715-53.907A1.664,1.664,0,0,1,297.994,273.031Z" transform="translate(69.773 47.708)" fill="#3d3d7a"/><path d="M346.231,218.661l-6.551.9a320.131,320.131,0,0,1-5.488,35.321L252.6,285.854l-1.114,5.913c-.344-.027-.689-.053-1.007-.08.027,1.22.027,2.413.08,3.527.186,6.815.637,11.721,1.353,13.682a1.677,1.677,0,0,0,.478.823c2.216,1.807,31.074-1.7,62.27,9.759,27.057,9.935,42.222,20.787,42.924,19.33C366.086,321.13,350.606,251.755,346.231,218.661Z" transform="translate(115.864 11.843)" fill="#ff8578"/><path d="M337.719,258.767c-2.174,10.448-7.8,31.236-18.827,34.021-14.4,3.66-42.24,3.474-68.333,2.068-.053-1.114-.053-2.307-.08-3.527.319.027.664.053,1.007.08L252.6,285.5l81.592-30.971a320.131,320.131,0,0,0,5.488-35.321,2.3,2.3,0,0,0,.027.292C339.867,222.228,340.98,243.335,337.719,258.767Z" transform="translate(115.864 12.201)" fill="#f4675d"/><path d="M262.259,202.956c-1.459,2.65-3.553,31.024-4.694,59.185l-16.678-15.566C247.966,232.866,262.259,202.956,262.259,202.956Z" transform="translate(109.538 1.483)" fill="#f4675d"/><path d="M274.2,272.306c-14.081,2.44-27.021,4.534-27.021,4.534l-.027.689c-15.672-12.515-39.51-47.967-39.51-47.967s7.133-8.565,8.909-10.819c.266-.345,39.14,26.41,41.128,26.171.5-.051,2.493-3.553,5.145-8.75L279.5,251.73c-.266,6.708-.476,13.39-.609,19.728C277.325,271.748,275.76,272.014,274.2,272.306Z" transform="translate(87.605 11.894)" fill="#af6e51"/><path d="M248.461,255.718l-.345,11.614H205.69s4.216-16.573,15.7-16.573,15.911,6.073,15.911,6.073Z" transform="translate(86.319 33.016)" fill="#af6e51"/><path d="M226.955,223.328l.317.266c-1.776,2.254-8.909,10.819-8.909,10.819l-4.428-3.13a11.008,11.008,0,0,1-10.554-.133c-5.913-3.208-2.254-10.869-1.95-11.777-1.147.324-8.232,6.049-9.346,5.44s-1.937-2.626,5.991-10.448c7.9-7.822,18.668,2.227,18.986,2.227Z" transform="translate(76.881 7.043)" fill="#af6e51"/><path d="M199.358,224.192s-1.709,3.2,1.329,4.592a30.281,30.281,0,0,0,11.491,2.151c2.539-.246,4.559-3.8,4.559-3.8l-7.693-7.218H202.9Z" transform="translate(81.826 12.672)" fill="#af6e51"/><path d="M199.563,225.821c.456-1.572,4.825-.734,7.532-.671,1.995.048,3.087-.475,3.7-1.993s-2.28-3.942-2.85-3.182,1.044,1.829,1.092,2.836-2.85,1.343-5.08,1.343a54.331,54.331,0,0,0-6.083.581Z" transform="translate(81.166 12.615)" fill="#8c5844"/><path d="M342.729,255.41l-41.551-14.716c-3.022,5.648-6.259,9.89-9.467,10.738-4.853,1.273-16.572,3.474-28.4,5.543-1.565.29-3.13.556-4.694.848-14.081,2.44-27.021,4.534-27.021,4.534l-.027.689v.451l-.319,10.474v2.657a293.647,293.647,0,0,1,31.9.524c24.9,1.778,57.011,2.838,67.644-2.174,4.984-2.36,8.962-10.1,12.091-19.649Z" transform="translate(103.182 26.377)" fill="#af6e51"/><path d="M273.963,240.694l41.552,14.717-1.881,5.553-41.125-17.642Z" transform="translate(130.396 26.377)" fill="#8c5844"/><path d="M288.435,272.207c-3.022,5.648-6.259,9.89-9.467,10.738-4.853,1.273-16.572,3.474-28.4,5.543.133-6.338.344-13.02.609-19.728,1.14-28.161,3.235-56.535,4.694-59.185,2.387-4.43,8.909-14.054,19.2-16.255l.027.131s-3.553,21,17.659,21c20.206,0,22.779-19.649,22.965-21.531,10.394,1.167,26.331,6.363,28.531,27.258.451,4.138,1.087,9.44,1.909,15.46l-6.549.9s-2.652,29.434-9.467,50.3l-.159.08Z" transform="translate(115.924 -5.136)" fill="#ff8578"/><path d="M273.126,254.351l16.592-40.165-12.223,41.787Z" transform="translate(130.804 8.891)" fill="#8c5844"/><path d="M314.116,192.922h-9.043s-12.867,14.129-21.139,14.129S280.121,193,280.121,193h-4.035a22.811,22.811,0,0,0-22.661,20.223c-.149,1.319-.287,2.571-.4,3.7-.885,8.547,33.741,14.768,33.741,14.768l17.828-1,10.826-21.122,2.158-8.65Z" transform="translate(117.53 -5.136)" fill="#ff8578"/><g transform="translate(322.505 512.659)"><path d="M224.095,411.19c.807,4.322,3.8,7.392,8.121,6.586l57.59-10.741a2.683,2.683,0,0,0,2.146-3.13l-.953-5.11s-60.569,10.6-66.934,12.364Z" transform="translate(-224.065 -381.99)" fill="#f1f2f2"/><path d="M241.229,403.369c.6-.521,1.178-1.037,1.779-1.558,1.155-1.034,2.292-2.041,3.386-3.016.578-.516,1.155-1.034,1.691-1.519,1.052-.943,2.043-1.826,2.931-2.617.639-.578,1.235-1.122,1.771-1.607.984-.883,1.787-1.6,2.352-2.108a1.3,1.3,0,0,1,1.714-.035c2.367,1.99,10.019,6.541,23.879-2.035a1.33,1.33,0,0,1,1.885.491L291,405.473s-60.569,10.6-66.934,12.364C226.158,416.533,233.89,409.841,241.229,403.369Z" transform="translate(-224.065 -388.669)" fill="#3d3d7a"/></g><g transform="translate(231.81 519.447)"><path d="M169.441,406.55c.108,4.393,2.574,7.9,6.967,7.8l58.568-1.431a2.685,2.685,0,0,0,2.617-2.748l-.128-5.195s-61.485.813-68.048,1.542Z" transform="translate(-169.418 -384.703)" fill="#f1f2f2"/><path d="M188.667,403.02c.675-.418,1.329-.836,2-1.256,1.306-.836,2.587-1.648,3.824-2.436.652-.418,1.3-.836,1.91-1.23,1.188-.763,2.309-1.477,3.311-2.118.722-.468,1.4-.909,2-1.3,1.112-.715,2.021-1.3,2.659-1.706a1.3,1.3,0,0,1,1.7.237c2.021,2.342,8.851,8.054,23.9,1.8a1.331,1.331,0,0,1,1.784.785l5.708,17.239s-61.485.813-68.048,1.542C171.69,413.616,180.39,408.242,188.667,403.02Z" transform="translate(-169.418 -392.759)" fill="#3d3d7a"/></g><path d="M156.761,295.5l-31.278-83.421H214.53L245.808,295.5Z" transform="translate(33.41 7.503)" fill="#606bf1"/><path d="M215.919,295.5h-5.5l-31.278-83.421,5,.223,28.931,75.508Z" transform="translate(68.803 7.503)" fill="#414daa"/><path d="M128.369,256.914H240.481" transform="translate(35.314 37.077)" fill="none"/><g transform="translate(281.792 297.746)"><path d="M200.737,264.436h58.84l-.159-5.259H199.534" transform="translate(-199.534 -259.177)" fill="#414daa"/></g><g transform="translate(98.898 303.006)"><g transform="translate(420.61 15.909)"><rect width="14.167" height="232.74" fill="#8495a0"/></g><g transform="translate(343.711 15.909)"><rect width="14.167" height="232.74" transform="translate(0)" fill="#abb5ba"/></g><g transform="translate(97.354 15.909)"><rect width="14.166" height="232.74" fill="#8495a0"/></g><g transform="translate(20.457 15.909)"><rect width="14.167" height="232.74" fill="#abb5ba"/></g><rect width="455.839" height="16.794" rx="4.149" fill="#141b56"/></g><path d="M134.441,217.366l1.523,4.062H153.7l-1.523-4.062Z" transform="translate(39.319 10.988)" fill="#ff8578"/><path d="M241.394,229.238l-1.273,2.46,17.952,18.552V244.8Z" transform="translate(109.031 18.82)" fill="#8c5844"/><g transform="translate(0 337.359)"><rect width="716.832" height="16.368" transform="translate(0 211.305)" fill="#a5b7c6"/><g transform="translate(503.818)"><g transform="translate(61.98 26.103)"><path d="M408.042,362.574c-2.848,13.817-1.99,37.352-20.269,41.08-4.921,1-9.676-2.408-12.537-6.318-3.744-5.117-4.64-15.948-4.576-22.142.053-4.909,1.726-10.384,2.265-15.337.583-5.349,1.056-10.71,1.68-16.056,2.249-19.265,12.313-35.412,29.336-45.028,1.318,6.323,4.322,11.676,6.969,17.748a62.857,62.857,0,0,1,3.082,8.589c1.392,5.137-.292,10.328-1.54,15.249C410.6,347.633,409.559,355.215,408.042,362.574Z" transform="translate(-370.657 -298.773)" fill="url(#a)"/><path d="M383.367,401.379c.129-1.158.274-2.317.427-3.475,2.184-.005,4.458-1.246,6.292-2.2a33.418,33.418,0,0,0,8.255-6.537c.134-.135-.091-.354-.234-.234a37.19,37.19,0,0,1-8.039,5.5c-1.653.772-4.069,2.03-6.107,2.274q.289-2.074.634-4.141c2.274-.279,4.357-1.772,6.284-2.914a71.827,71.827,0,0,0,9.005-6.876.033.033,0,0,0-.042-.051c-4.463,3.241-9.435,7.855-15.081,8.866.3-1.726.616-3.449.978-5.158.018-.09.038-.178.058-.267,6.534-1.653,10.954-6.778,15.958-10.92.081-.068-.007-.206-.091-.139-4.927,3.826-9.556,8.194-15.647,10.049.528-2.446,1.077-4.884,1.63-7.322a34.878,34.878,0,0,0,14.766-10.469c.07-.081-.045-.194-.119-.116-4.277,4.451-8.987,7.007-14.411,9.541.548-2.413,1.089-4.825,1.6-7.243,2.558-1.26,5.248-2.025,7.61-3.678a20.828,20.828,0,0,0,5.922-6,.116.116,0,0,0-.2-.125c-3.309,4.755-8.3,6.235-13.116,8.736.47-2.254.908-4.516,1.3-6.79,5.372-2.958,11.208-5.7,14.251-11.367.03-.055-.048-.111-.083-.055-3.225,5.206-8.861,7.45-13.976,10.285.066-.4.139-.808.2-1.215.33-2.108.637-4.22.939-6.332a51.552,51.552,0,0,0,8.806-4.79c1.972-1.283,4.078-2.556,5.367-4.571a.117.117,0,0,0-.191-.134c-2.881,4.128-9.189,6.514-13.85,8.579q.453-3.2.906-6.4c5.17-3.128,11.254-4.859,14.436-10.5a.151.151,0,0,0-.256-.159c-3.294,5.15-9.1,6.738-14.039,9.661q.286-1.982.583-3.962c5.583-2.053,12.076-6.728,15.022-11.775a.25.25,0,0,0-.422-.269,31.343,31.343,0,0,1-14.436,11c.33-2.139.675-4.275,1.056-6.408a.562.562,0,0,0,.083-.188c2.508-.739,4.986-2.506,7.15-3.842a19.542,19.542,0,0,0,6.723-6.126c.179-.292-.3-.563-.465-.262-2.481,4.426-8.366,7.392-13.239,9.083.143-.777.284-1.555.438-2.332.229-1.162.466-2.322.7-3.482,1.995-1.377,4.528-2.036,6.531-3.492A36.949,36.949,0,0,0,408,318.3c.149-.154-.071-.39-.227-.242a31.451,31.451,0,0,1-6.562,5.04c-1.376.735-2.944,1.155-4.277,1.963.39-1.9.778-3.794,1.15-5.694.023,0,.046-.01.07-.015l.071.015a.356.356,0,0,0,.329-.1c2.712-.684,4.788-3.021,6.61-5.01a.05.05,0,0,0-.07-.071c-1.914,1.769-4.086,3.726-6.649,4.486a.179.179,0,0,0-.027-.012l-.2-.03q.448-2.32.838-4.647a.355.355,0,0,0,.32-.4,28.56,28.56,0,0,0,3.972-3.4.1.1,0,0,0-.136-.146,23.169,23.169,0,0,1-3.967,2.8,95.86,95.86,0,0,0,1.079-9.686c.017-.3-.44-.305-.466-.008-.284,3.133-.74,6.237-1.278,9.326a28.811,28.811,0,0,1-4.076-6.232c-.048-.116-.232-.07-.193.056a17.779,17.779,0,0,0,1.983,3.857,23.452,23.452,0,0,0,2.1,3.389q-.453,2.487-.969,4.964a9.152,9.152,0,0,1-4.989-1.955,9.059,9.059,0,0,1-3.067-6.235c-.022-.3-.493-.3-.466,0a10.315,10.315,0,0,0,2.654,6.073c1.628,1.774,3.537,2.34,5.728,2.793q-.6,2.86-1.23,5.716a44.492,44.492,0,0,1-4.677-3.474c-2.4-1.915-3.822-4.221-5.908-6.376-.209-.216-.551.1-.344.315,1.955,2.078,3.276,4.328,5.5,6.2a31.7,31.7,0,0,0,5.278,4.023l-.066.3c-.022.018-.043.033-.063.053a.306.306,0,0,0-.043.427c-.4,1.822-.8,3.646-1.187,5.474-.025.115-.045.231-.068.345-4.252-1.947-10.605-5.329-11.168-10.262a.333.333,0,1,0-.647.143c1.258,5.581,7.394,8.054,11.619,11.1q-.625,3.1-1.148,6.217a25.162,25.162,0,0,1-7.663-3.947c-2.1-1.668-5.064-3.679-6.008-6.263-.03-.081-.149-.028-.123.053.875,2.568,3.537,4.332,5.472,6.084a20.475,20.475,0,0,0,8.132,5,.56.56,0,0,0-.008.277q-.324,1.977-.627,3.957c-5.163-.4-12.388-4.318-15.026-8.224-.013-.018-.038,0-.027.02,1.8,2.979,4.521,4.722,7.588,6.234,2.29,1.129,4.766,2.465,7.359,2.657-.37,2.443-.729,4.889-1.094,7.332-2.241-.835-4.614-1.235-6.829-2.123a16.911,16.911,0,0,1-7.754-6.6c-.116-.176-.41-.028-.294.156,3.575,5.683,8.716,7.349,14.741,9.478q-.453,3.007-.946,6.01c-4.929-.946-11.307-3.955-13.8-8.237-.184-.314-.684-.053-.5.264,1.577,2.745,4.29,4.479,7.06,5.878,1.995,1.007,4.742,2.677,7.118,2.856-.012.065-.022.131-.033.2-.486,2.881-1.056,5.746-1.671,8.6-5.507-1.384-9.067-5.465-13.07-9.284-.279-.266-.714.141-.436.412,4.078,4.015,7.659,8.225,13.325,9.709q-.762,3.485-1.61,6.952a25.445,25.445,0,0,1-12.368-8.464c-.216-.271-.592.1-.388.367a27.39,27.39,0,0,0,12.54,9q-.914,3.719-1.875,7.429c-4.82-.734-8.532-3.751-11.5-7.563-.07-.09-.224.027-.158.12,2.635,3.668,6.625,7.9,11.423,8.348q-.306,1.185-.611,2.368c-.123.476-.252.959-.383,1.446a27.337,27.337,0,0,1-10-4.823c-.085-.068-.181.061-.1.133a26.085,26.085,0,0,0,9.908,5.417c-.4,1.485-.831,3.012-1.253,4.569a20.342,20.342,0,0,0-2.76-1.175c-1.807-.543-2.977-1.688-4.551-2.634-.144-.086-.307.118-.163.212,1.381.9,2.352,2.061,3.928,2.655,1.167.44,2.267,1,3.394,1.5-1.656,6.174-3.12,12.735-2.325,18.661.176,1.314,2.38,1.663,2.72.264C382.932,410.359,382.878,405.771,383.367,401.379Z" transform="translate(-369.345 -296.034)" fill="#747ded"/></g><g transform="translate(0 29.839)"><path d="M374.83,357.132c3.251,13.729,13.961,34.7-1.036,45.8-4.04,2.987-9.789,1.9-14.034-.435-5.553-3.059-10.937-12.5-13.491-18.142-2.026-4.473-2.818-10.144-4.42-14.861-1.731-5.1-3.563-10.155-5.254-15.264-6.093-18.416-3.782-37.3,7.591-53.2,3.864,5.177,8.846,8.761,13.808,13.15a62.8,62.8,0,0,1,6.42,6.484c3.43,4.071,4.094,9.488,5.039,14.475C370.848,342.507,373.1,349.823,374.83,357.132Z" transform="translate(-333.312 -301.024)" fill="url(#b)"/><path d="M369.983,401.761q-.558-1.661-1.08-3.333c1.978-.926,3.515-3.011,4.777-4.647a33.46,33.46,0,0,0,4.725-9.412c.063-.178-.232-.281-.31-.111a37.239,37.239,0,0,1-4.967,8.381c-1.172,1.4-2.831,3.557-4.576,4.637q-.615-2-1.175-4.021c1.945-1.212,3.2-3.445,4.466-5.293a71.988,71.988,0,0,0,5.263-10.034.034.034,0,0,0-.06-.031c-2.679,4.823-5.24,11.1-9.93,14.4-.458-1.691-.9-3.386-1.291-5.089-.022-.09-.04-.178-.06-.267,5.225-4.257,7.07-10.768,9.857-16.635.045-.1-.091-.184-.141-.088-2.853,5.548-5.206,11.462-9.945,15.715-.553-2.441-1.085-4.884-1.613-7.327a34.844,34.844,0,0,0,8.969-15.724.084.084,0,0,0-.158-.055c-2,5.84-5.19,10.145-9.037,14.731-.523-2.417-1.049-4.833-1.6-7.243,1.789-2.219,3.9-4.048,5.347-6.544a20.8,20.8,0,0,0,2.835-7.943.116.116,0,0,0-.231-.03c-.992,5.706-4.889,9.153-8.2,13.455q-.787-3.363-1.686-6.7c3.621-4.949,7.755-9.9,8.122-16.319,0-.063-.091-.081-.1-.015-.725,6.081-4.888,10.492-8.33,15.222-.109-.4-.214-.792-.327-1.187q-.889-3.077-1.822-6.136a51.564,51.564,0,0,0,5.963-8.059c1.245-1.995,2.617-4.04,2.936-6.41a.116.116,0,0,0-.229-.042c-.871,4.959-5.583,9.784-8.936,13.624q-.939-3.094-1.88-6.184c3.367-5.021,8.152-9.156,8.657-15.611a.151.151,0,0,0-.3-.037c-.813,6.059-5.4,9.948-8.648,14.685q-.58-1.919-1.145-3.839c4.2-4.217,8.109-11.2,8.648-17.015a.25.25,0,0,0-.5-.066,31.321,31.321,0,0,1-8.446,16.061c-.6-2.078-1.192-4.161-1.746-6.254a.613.613,0,0,0-.005-.206c1.962-1.728,3.462-4.377,4.859-6.5a19.558,19.558,0,0,0,3.51-8.391.267.267,0,0,0-.533-.043c-.38,5.06-4.464,10.233-8.169,13.823-.2-.765-.4-1.53-.588-2.3q-.421-1.725-.83-3.454c1.226-2.091,3.245-3.757,4.446-5.922a36.811,36.811,0,0,0,2.481-5.935.166.166,0,0,0-.309-.123,31.335,31.335,0,0,1-3.822,7.337c-.936,1.25-2.181,2.292-3.047,3.586-.448-1.884-.9-3.767-1.361-5.646.02-.013.037-.03.056-.045l.071-.017a.352.352,0,0,0,.254-.231c2.171-1.764,3.067-4.758,3.879-7.332a.05.05,0,0,0-.093-.035c-.989,2.411-2.133,5.1-4.134,6.873a.172.172,0,0,1-.03,0l-.189.055q-.575-2.29-1.2-4.566a.355.355,0,0,0,.123-.5,28.36,28.36,0,0,0,2.164-4.758.1.1,0,0,0-.184-.076,23.163,23.163,0,0,1-2.415,4.212,95.951,95.951,0,0,0-3.11-9.236c-.111-.281-.526-.091-.427.189,1.065,2.961,1.963,5.966,2.778,8.994a28.825,28.825,0,0,1-6.327-3.928c-.091-.086-.239.035-.149.131a17.842,17.842,0,0,0,3.426,2.66,23.665,23.665,0,0,0,3.334,2.186c.428,1.63.83,3.266,1.218,4.908a9.154,9.154,0,0,1-5.349.335,9.055,9.055,0,0,1-5.412-4.36c-.146-.261-.573-.06-.422.2a10.329,10.329,0,0,0,4.969,4.387c2.224.921,4.192.627,6.371.115q.665,2.845,1.3,5.7a44.591,44.591,0,0,1-5.706-1.173c-2.987-.724-5.248-2.214-8.049-3.288a.233.233,0,0,0-.179.43c2.65,1.061,4.8,2.543,7.6,3.3a31.585,31.585,0,0,0,6.483,1.421l.066.3c-.01.027-.025.05-.035.076a.306.306,0,0,0,.143.4c.4,1.824.812,3.646,1.235,5.465.025.113.056.226.083.34-4.675.03-11.863-.353-14.456-4.587-.247-.4-.827.01-.526.4,3.5,4.529,10.1,4.182,15.217,5.158q.744,3.075,1.582,6.121a25.174,25.174,0,0,1-8.612-.344c-2.606-.627-6.142-1.2-8.089-3.143-.061-.06-.148.038-.09.1,1.877,1.96,5.035,2.436,7.53,3.206a20.457,20.457,0,0,0,9.482,1.1.577.577,0,0,0,.11.256q.54,1.927,1.1,3.85c-4.848,1.821-13.052,1.315-17.093-1.112-.018-.012-.033.017-.015.028,2.888,1.942,6.091,2.373,9.508,2.45,2.554.056,5.362.221,7.794-.7.7,2.37,1.4,4.738,2.1,7.108-2.383.189-4.7.828-7.088.959a16.917,16.917,0,0,1-9.815-2.714c-.179-.109-.383.148-.2.266,5.64,3.643,11.005,2.986,17.365,2.372q.859,2.918,1.68,5.847c-4.869,1.225-11.92,1.188-15.989-1.641-.3-.207-.642.241-.342.451,2.587,1.822,5.781,2.249,8.881,2.348,2.234.071,5.429.427,7.659-.415.017.063.037.128.053.193.773,2.816,1.467,5.653,2.114,8.5-5.576,1.07-10.527-1.127-15.767-2.9-.365-.123-.588.428-.222.558,5.391,1.917,10.416,4.224,16.178,3.177q.779,3.483,1.475,6.982a25.458,25.458,0,0,1-14.786-2.453c-.309-.156-.5.337-.2.495a27.359,27.359,0,0,0,15.164,2.863c.5,2.506.969,5.017,1.436,7.527-4.679,1.369-9.317.2-13.617-2-.1-.051-.191.12-.093.176,3.938,2.212,9.344,4.37,13.881,2.747q.224,1.2.445,2.4c.09.483.178.976.264,1.472a27.37,27.37,0,0,1-11.106-.149c-.1-.027-.136.131-.035.163a26.067,26.067,0,0,0,11.269.729c.259,1.519.516,3.082.792,4.672a19.994,19.994,0,0,0-3,.1c-1.867.271-3.412-.274-5.238-.466-.168-.018-.229.236-.056.261,1.631.234,3,.876,4.68.748,1.243-.095,2.478-.05,3.711-.073,1.1,6.3,2.544,12.864,5.767,17.9.714,1.117,2.86.5,2.579-.909C373.379,410.086,371.392,405.947,369.983,401.761Z" transform="translate(-332.11 -298.127)" fill="#747ded"/></g><g transform="translate(26.67)"><path d="M395.911,358.352c.772,17.441,8.937,45.42-11.865,55.434-5.6,2.7-12.34.045-16.958-3.779-6.044-5-10.4-17.727-12.2-25.179-1.427-5.907-1.079-12.983-1.934-19.088-.923-6.6-1.98-13.171-2.853-19.775-3.142-23.8,4.038-46.221,21.547-62.921,3.5,7.188,8.725,12.7,13.742,19.182a77.779,77.779,0,0,1,6.3,9.37c3.228,5.742,2.782,12.482,2.773,18.764C394.455,339.651,395.5,349.065,395.911,358.352Z" transform="translate(-349.382 -283.045)" fill="url(#c)"/><path d="M378.872,411.7q-.294-2.143-.543-4.3c2.619-.669,4.971-2.848,6.881-4.542a41.44,41.44,0,0,0,7.925-10.348c.12-.2-.217-.4-.352-.209a46.064,46.064,0,0,1-7.978,9.039c-1.749,1.426-4.267,3.669-6.639,4.581q-.284-2.579-.495-5.161c2.644-1.024,4.69-3.447,6.654-5.4,3.338-3.323,5.955-7.191,8.721-10.979a.041.041,0,0,0-.065-.051c-4.373,5.243-8.941,12.286-15.408,15.211-.166-2.161-.307-4.323-.392-6.486,0-.113-.007-.224-.012-.337,7.339-3.965,11.09-11.455,15.836-17.943.076-.1-.07-.244-.153-.139-4.752,6.086-8.982,12.73-15.727,16.8-.108-3.1-.189-6.189-.264-9.279a43.147,43.147,0,0,0,14.542-17.04.1.1,0,0,0-.178-.1c-3.782,6.639-8.658,11.133-14.4,15.817-.075-3.059-.156-6.117-.274-9.176,2.689-2.284,5.684-4.018,8.016-6.718a25.766,25.766,0,0,0,5.284-9,.144.144,0,0,0-.274-.091c-2.526,6.71-8.063,10-13.086,14.461-.121-2.848-.28-5.694-.5-8.541,5.548-5.178,11.72-10.235,13.652-17.959.02-.076-.091-.12-.116-.042-2.29,7.224-8.373,11.624-13.652,16.578-.042-.506-.075-1.012-.123-1.52-.244-2.629-.515-5.256-.793-7.882a63.637,63.637,0,0,0,9.115-8.416c1.975-2.138,4.116-4.3,5.054-7.112a.145.145,0,0,0-.271-.1c-2.206,5.825-9.052,10.6-14.016,14.492q-.426-3.976-.853-7.953c5.254-5.321,12.029-9.241,14.137-16.973a.185.185,0,0,0-.354-.111c-2.393,7.176-8.873,10.843-13.916,15.846q-.259-2.465-.5-4.931c6.076-4.154,12.449-11.732,14.452-18.681a.31.31,0,0,0-.588-.2c-2.26,6.224-8.041,13.828-13.986,17.569-.252-2.665-.486-5.334-.677-8.006a.732.732,0,0,0,.043-.252c2.785-1.646,5.221-4.519,7.414-6.776,2.642-2.722,5.064-5.722,6.209-9.389a.331.331,0,0,0-.637-.174c-1.633,6.063-7.8,11.407-13.131,14.912-.063-.976-.131-1.952-.181-2.929q-.115-2.2-.211-4.391c1.977-2.257,4.815-3.817,6.776-6.171a45.749,45.749,0,0,0,4.391-6.639.206.206,0,0,0-.349-.221,38.86,38.86,0,0,1-6.343,8.036c-1.427,1.3-3.183,2.28-4.537,3.653-.106-2.395-.216-4.788-.347-7.18.028-.013.053-.028.08-.04l.091-.005a.434.434,0,0,0,.362-.221c3.047-1.643,4.83-5.075,6.413-8.016a.062.062,0,0,0-.1-.065c-1.761,2.7-3.774,5.711-6.617,7.4-.013,0-.023,0-.036,0l-.244.023q-.167-2.92-.4-5.83a.438.438,0,0,0,.266-.574,35.362,35.362,0,0,0,3.733-5.284.124.124,0,0,0-.207-.134,28.768,28.768,0,0,1-3.91,4.562,118.866,118.866,0,0,0-1.643-11.949c-.071-.367-.619-.232-.563.133.611,3.845,1.006,7.707,1.294,11.576-2.392-1.9-5-3.822-6.78-6.242-.093-.125-.3-.012-.214.126a22.061,22.061,0,0,0,3.548,4.026,29.354,29.354,0,0,0,3.548,3.431c.143,2.08.252,4.164.344,6.249-2.27.2-4.378.292-6.579-.831a11.2,11.2,0,0,1-5.57-6.554c-.118-.35-.684-.206-.559.144a12.769,12.769,0,0,0,5.025,6.483c2.49,1.635,4.952,1.734,7.719,1.615q.149,3.612.257,7.229a54.8,54.8,0,0,1-6.664-2.748c-3.465-1.57-5.867-3.905-9.024-5.86-.317-.2-.632.282-.319.483,2.977,1.9,5.245,4.2,8.481,5.767a39.078,39.078,0,0,0,7.551,3.226l.013.382c-.02.03-.041.055-.06.085a.38.38,0,0,0,.078.524c.071,2.309.143,4.619.236,6.927.007.144.017.289.023.433-5.691-1.046-14.341-3.177-16.512-8.924a.411.411,0,1,0-.732.365c3.2,6.317,11.312,7.424,17.307,9.8q.189,3.908.5,7.807a31.116,31.116,0,0,1-10.389-2.413c-3.022-1.364-7.191-2.879-9.107-5.693-.061-.088-.189.012-.131.1,1.827,2.816,5.555,4.128,8.409,5.643,3.623,1.922,7.211,3.426,11.272,3.535a.7.7,0,0,0,.075.335q.209,2.467.446,4.936c-6.317,1.089-16.173-1.424-20.523-5.311-.02-.018-.045.013-.027.031,3.064,3.031,6.858,4.3,11,5.178,3.092.661,6.466,1.512,9.636.958.3,3.044.607,6.088.911,9.13-2.941-.322-5.91-.083-8.839-.476a20.915,20.915,0,0,1-11.3-5.57c-.194-.174-.5.091-.307.277,6.013,5.734,12.688,6.176,20.561,6.9q.368,3.747.687,7.5c-6.2.36-14.766-1.316-19.056-5.7-.315-.32-.836.144-.521.47,2.724,2.815,6.508,4.073,10.253,4.911,2.7.6,6.5,1.776,9.405,1.27.008.081.015.164.022.246.289,3.6.475,7.213.6,10.824-7.029.01-12.537-3.807-18.5-7.175-.415-.234-.813.383-.4.626,6.111,3.58,11.686,7.546,18.933,7.609q.142,4.411.176,8.829a31.5,31.5,0,0,1-17.406-6.406c-.34-.261-.68.3-.353.556a33.879,33.879,0,0,0,17.773,6.992c.022,3.16.017,6.322,0,9.482-6,.581-11.374-1.914-16.09-5.588-.11-.086-.262.1-.154.191,4.275,3.6,10.346,7.477,16.24,6.554q-.008,1.514-.017,3.027-.005.914-.02,1.851c-4.685-.183-9.126-.724-13.468-2.753-.121-.058-.2.128-.08.189a32.3,32.3,0,0,0,13.531,3.5c-.036,1.905-.086,3.867-.119,5.862a25.1,25.1,0,0,0-3.668-.573c-2.332-.1-4.084-1.122-6.259-1.779-.2-.061-.334.234-.129.3,1.929.661,3.445,1.759,5.517,1.993,1.535.174,3.024.513,4.528.772-.116,7.91.116,16.226,2.868,23.1.609,1.524,3.361,1.273,3.346-.508C381.071,422.6,379.615,417.112,378.872,411.7Z" transform="translate(-347.778 -279.458)" fill="#747ded"/></g><path d="M406.995,366.66l-.77,14.179-1.2,22.078-1.975,36.276H353.933l-1.975-36.276-1.2-22.078-.77-14.179Z" transform="translate(-322.315 -227.888)" fill="#95a8b5"/><path d="M405.919,375.2l-.158,2.844-.158,2.942-.889,16.292H351.652l-.889-16.292-.158-2.942-.158-2.844Z" transform="translate(-322.009 -222.252)" fill="#a5b7c6"/><path d="M405.7,376.916l-.158,2.942H350.7l-.158-2.942Z" transform="translate(-321.946 -221.122)" fill="#95a8b5"/></g></g></g></g></svg>