<svg xmlns="http://www.w3.org/2000/svg" width="821.034" height="458.238" viewBox="0 0 821.034 458.238"><defs><style>.a{fill:#d14040;}.b{fill:#dd5252;}.c{fill:#a0e045;}.d{fill:#b6eef2;}.e{fill:#8ce097;}.f{fill:#a9d8d5;}.g{fill:#0095e0;}.h{fill:#78d5e4;}.i{fill:#2f518e;}.j{fill:#fdfefe;}.k{fill:#fc6454;}.l{fill:#58d05b;}.m{fill:#7194bf;}.n{fill:#19bbd2;}.o{opacity:0.1;mix-blend-mode:overlay;isolation:isolate;}.p{fill:#fff;}.q{fill:#7bd7e2;}.r{fill:#f07248;}.s{fill:#e55b36;}.t{fill:#f2e8e0;}.u{fill:#fce059;}.v{fill:#f9bd5b;}.w{fill:#b4f463;}.x{fill:#bfd1d0;}.y{fill:#a6bcbb;}.z{fill:#f4edcb;}.aa{fill:#80cec7;}.ab{fill:#afe7e8;}.ac{fill:#d2f9fe;}.ad{fill:#abefef;}</style></defs><g transform="translate(-61.952 -85.04)"><path class="a" d="M155.1,486.423a17.555,17.555,0,0,0-2.143-9.6c-5.109-8.967-19.145-13.294-33.756-8.765-14.612-4.529-28.647-.2-33.756,8.765a17.563,17.563,0,0,0-2.144,9.6c-.41,10.105,5.115,21.5,11.793,28.147a33.8,33.8,0,0,0,21.024,9.717,29.065,29.065,0,0,0,3.083.043,29.044,29.044,0,0,0,3.082-.043,33.811,33.811,0,0,0,21.025-9.717C149.983,507.925,155.508,496.527,155.1,486.423Z"/><path class="b" d="M145.178,483.9a14.8,14.8,0,0,0-1.808-8.1c-4.31-7.565-16.15-11.214-28.476-7.394-12.326-3.82-24.166-.171-28.476,7.394a14.811,14.811,0,0,0-1.808,8.1c-.346,8.524,4.315,18.14,9.948,23.744a28.507,28.507,0,0,0,17.736,8.2,24.12,24.12,0,0,0,2.6.037,24.148,24.148,0,0,0,2.6-.037,28.507,28.507,0,0,0,17.735-8.2C140.864,502.039,145.524,492.424,145.178,483.9Z"/><path class="c" d="M118.448,468.248s8.021-16.779,30.073-19.321C148.521,448.927,142.5,466.109,118.448,468.248Z"/><path class="d" d="M519.16,172.062s14.877-9.48,8.858-32.1S506,137.8,499,119.574,450,78.35,451,109.35C451,109.35,510.32,141.774,519.16,172.062Z"/><path class="d" d="M519.16,172.062S481.123,185.453,478,154.917s-61-22.567-27-45.567C451,109.35,506.32,138.774,519.16,172.062Z"/><path class="e" d="M182.538,510.051c-.141-14.321,1.556-28.866,3.25-42.738q.963-7.893,2.1-15.782V387.222a14.168,14.168,0,1,0-28.225,1.772l8.588,68.151v50.388Z"/><path class="e" d="M177.754,417.2s-37.5,13.525-40.5-32.579-58.147,43.457,40.5,54.464Z"/><path class="e" d="M177.754,437.725s25.934,9.354,28.009-22.533,40.216,30.056-28.009,37.669Z"/><path class="f" d="M189.626,527.4H158.949l-2.265-34.464H191.89Z"/><rect class="g" width="821.034" height="4.233" transform="translate(61.952 525.667)"/><rect class="h" width="328.484" height="225.394" rx="7.633" transform="translate(296.971 291.166)"/><rect class="i" width="306.234" height="210.128" rx="7.633" transform="translate(308.095 298.8)"/><rect class="j" width="40.244" height="4.464" transform="translate(355.884 320.045)"/><rect class="j" width="25.642" height="4.464" transform="translate(355.884 330.045)"/><rect class="j" width="103.116" height="4.464" transform="translate(395.884 330.045)"/><rect class="k" width="54" height="4.464" transform="translate(509 330.045)"/><rect class="l" width="65.116" height="4.464" transform="translate(365.884 340.045)"/><rect class="j" width="97.018" height="4.464" transform="translate(451 340.045)"/><rect class="k" width="91.558" height="4.464" transform="translate(355.884 350.045)"/><rect class="h" width="65.116" height="4.464" transform="translate(455.884 350.045)"/><rect class="j" width="65.116" height="4.464" transform="translate(365.884 360.045)"/><rect class="j" width="95.116" height="4.464" transform="translate(355.884 370.045)"/><rect class="j" width="65.116" height="4.464" transform="translate(355.884 380.045)"/><rect class="k" width="108.618" height="4.464" transform="translate(375.884 390.045)"/><rect class="j" width="35.116" height="4.464" transform="translate(495.884 390.045)"/><rect class="j" width="35.116" height="4.464" transform="translate(545.884 390.045)"/><rect class="j" width="44.309" height="4.464" transform="translate(385.884 400.045)"/><rect class="k" width="59.109" height="4.464" transform="translate(385.884 410.045)"/><rect class="j" width="65.116" height="4.464" transform="translate(465.884 410.045)"/><rect class="k" width="27.116" height="4.464" transform="translate(545.884 410.045)"/><rect class="j" width="40" height="4.464" transform="translate(355.884 420.045)"/><rect class="j" width="65.116" height="4.464" transform="translate(355.884 430.045)"/><rect class="j" width="118.116" height="4.464" transform="translate(385.884 440.045)"/><rect class="h" width="73.116" height="4.464" transform="translate(515.884 440.045)"/><rect class="j" width="40.116" height="4.464" transform="translate(385.884 450.045)"/><rect class="l" width="40.116" height="4.464" transform="translate(435.884 450.045)"/><rect class="j" width="40.116" height="4.464" transform="translate(485.884 450.045)"/><rect class="j" width="65.116" height="4.464" transform="translate(355.884 460.045)"/><rect class="l" width="65.116" height="4.464" transform="translate(375.884 470.045)"/><rect class="l" width="65.116" height="4.464" transform="translate(453.326 470.045)"/><rect class="j" width="36.498" height="4.464" transform="translate(451.944 490.045)"/><rect class="j" width="96.585" height="4.464" transform="translate(375.884 480.045)"/><rect class="m" width="4.464" height="4.464" transform="translate(326.237 320.045)"/><rect class="m" width="4.464" height="4.464" transform="translate(326.237 330.045)"/><rect class="m" width="4.464" height="4.464" transform="translate(326.237 340.045)"/><rect class="m" width="4.464" height="4.464" transform="translate(326.237 350.045)"/><rect class="m" width="4.464" height="4.464" transform="translate(326.237 360.045)"/><rect class="m" width="4.464" height="4.464" transform="translate(326.237 370.045)"/><rect class="m" width="4.464" height="4.464" transform="translate(326.237 380.045)"/><rect class="m" width="4.464" height="4.464" transform="translate(326.237 390.045)"/><rect class="m" width="4.464" height="4.464" transform="translate(326.237 400.045)"/><rect class="m" width="4.464" height="4.464" transform="translate(326.237 410.045)"/><rect class="m" width="4.464" height="4.464" transform="translate(326.237 420.045)"/><rect class="m" width="4.464" height="4.464" transform="translate(326.237 430.045)"/><rect class="m" width="4.464" height="4.464" transform="translate(326.237 440.045)"/><rect class="m" width="4.464" height="4.464" transform="translate(326.237 450.045)"/><rect class="m" width="4.464" height="4.464" transform="translate(326.237 460.045)"/><rect class="m" width="4.464" height="4.464" transform="translate(326.237 470.045)"/><rect class="m" width="4.464" height="4.464" transform="translate(326.237 480.045)"/><rect class="m" width="4.464" height="4.464" transform="translate(326.237 490.045)"/><rect class="j" width="48.292" height="4.464" transform="translate(375.884 490.045)"/><path class="j" d="M565.215,494.418l-19-8.068v-3.29l19-8.068V478.5L550.136,484.7l15.079,6.208Z"/><path class="j" d="M578.572,470.154l-8.3,28.71h-2.84l8.3-28.71Z"/><path class="j" d="M599.78,486.35l-19,8.068v-3.505l15.08-6.208-15.08-6.208v-3.505l19,8.068Z"/><path class="n" d="M617.457,524.9H300.468a20,20,0,0,1-20-20H637.454A20,20,0,0,1,617.457,524.9Z"/><g class="o"><path class="p" d="M409.876,508.927,484.5,298.8h-28.35L381.527,508.927Z"/><path class="p" d="M315.728,508.927h13.319L403.673,298.8H315.728a7.656,7.656,0,0,0-7.633,7.633V501.294A7.656,7.656,0,0,0,315.728,508.927Z"/><path class="p" d="M568.027,508.927H606.7a7.656,7.656,0,0,0,7.634-7.633V378.55Z"/></g><g class="o"><path class="p" d="M464.756,508.927h51.9L591.281,298.8h-51.9Z"/></g><path class="q" d="M634.757,514.9a19.876,19.876,0,0,0,2.7-10H280.471a19.875,19.875,0,0,0,2.7,10Z"/><path class="r" d="M797.907,525.666H651.88a13.4,13.4,0,0,1-13.4-13.4h0a13.4,13.4,0,0,1,13.4-13.4H797.907Z"/><path class="s" d="M789.345,525.666h82.836v-26.8H789.345a13.4,13.4,0,0,0-13.4,13.4h0A13.4,13.4,0,0,0,789.345,525.666Z"/><path class="t" d="M793.819,520.649h78.362V502.9H793.819a8.875,8.875,0,0,0-8.875,8.875h0A8.875,8.875,0,0,0,793.819,520.649Z"/><path class="u" d="M774.235,499.106H651.611a22.3,22.3,0,0,1-22.3-22.3h0a22.3,22.3,0,0,1,22.3-22.3H774.235Z"/><path class="v" d="M776.569,499.106h84.807v-44.6H776.569a22.3,22.3,0,0,0-22.3,22.3h0A22.3,22.3,0,0,0,776.569,499.106Z"/><path class="t" d="M777.218,490.757h84.158V461.224H777.218a14.767,14.767,0,0,0-14.767,14.766h0A14.767,14.767,0,0,0,777.218,490.757Z"/><path class="a" d="M824.063,543.278l-10.552-6.2-10.552,6.2V507.487h21.1Z"/><path class="a" d="M850.494,508.828l-10.552-6.2-10.552,6.2V473.037h21.1Z"/><path class="w" d="M790.326,454.776H681.939A9.773,9.773,0,0,1,672.166,445h0a9.773,9.773,0,0,1,9.773-9.773H790.326Z"/><path class="c" d="M783.822,454.776h77.554V435.229H783.822A9.773,9.773,0,0,0,774.049,445h0A9.773,9.773,0,0,0,783.822,454.776Z"/><path class="t" d="M787.191,451.116h74.185V438.172H787.191a6.473,6.473,0,0,0-6.472,6.472h0A6.472,6.472,0,0,0,787.191,451.116Z"/><path class="a" d="M802.958,464.509l-5.276-3.875-5.276,3.875V442.15h10.552Z"/><path class="a" d="M697.955,476.686h0A22.174,22.174,0,0,1,718.193,454.6v-.09h-44.4a22.177,22.177,0,0,0-22.177,22.177h0a22.178,22.178,0,0,0,22.177,22.178h44.4v-.09A22.175,22.175,0,0,1,697.955,476.686Z"/><rect class="x" width="61.147" height="17.901" transform="translate(214.184 413.327)"/><rect class="y" width="61.147" height="13.877" transform="translate(214.184 417.35)"/><rect class="x" width="18.943" height="12.313" transform="translate(246.916 405.037)"/><path class="j" d="M270.331,525.383H219.184l-10-95.338h71.147Z"/><path class="z" d="M270.331,525.383H219.184l-10-95.338,10.557,43.933a69.956,69.956,0,0,0,50.59,51.4Z"/><rect class="y" width="83.996" height="5.984" transform="translate(202.76 427.996)"/><rect class="x" width="83.996" height="10.943" transform="translate(202.76 420.045)"/><path class="f" d="M272.689,502.9l5.544-52.854H211.282l5.544,52.854Z"/><circle class="aa" cx="19.249" cy="19.249" r="19.249" transform="translate(223.603 474.505) rotate(-43.604)"/><path class="aa" d="M211.282,450.045l5.544,52.854h55.863l-30.939-5.51a27.3,27.3,0,0,1-21.2-18.523Z"/><rect class="d" width="434.862" height="10.129" transform="translate(444.994 253.574)"/><rect class="d" width="29.446" height="110.624" transform="translate(821.048 142.95)"/><path class="d" d="M730.494,253.16V127.35H701.048V253.574h29.1C730.259,253.435,730.374,253.3,730.494,253.16Zm-28.446-.586V128.35h27.446V252.574Z"/><rect class="d" width="14.723" height="73.433" transform="translate(708.409 154.917)"/><rect class="d" width="29.446" height="9.967" transform="translate(701.048 134.982)"/><rect class="d" width="29.446" height="9.967" transform="translate(701.048 235.639)"/><path class="d" d="M803,167.131l-7.362-10.219-7.361,10.219V118.769H803Z"/><path class="d" d="M821.048,252.913V119.574h-36.1v134h35.443C820.6,253.35,820.819,253.126,821.048,252.913Zm-35.1-.339v-132h34.1v132Z"/><rect class="ab" width="36.104" height="134" transform="translate(658.896 119.574)"/><rect class="d" width="23.896" height="102.919" transform="translate(635 150.654)"/><rect class="d" width="36.104" height="15.409" transform="translate(658.896 135.245)"/><path class="d" d="M757.506,254.876,784.944,147.79l-24.272-6.219L733.215,248.733l24.169,6.193C757.424,254.908,757.465,254.893,757.506,254.876Zm3.887-112.088,22.334,5.723L756.766,253.735l-22.334-5.722Z"/><path class="d" d="M778.749,171.969l3.086-12.043-24.272-6.219-3.11,12.136,24.178,6.195C778.67,172.014,778.71,171.993,778.749,171.969Zm-20.466-17.045,22.335,5.722-2.613,10.2-22.335-5.723Z"/><path class="d" d="M553.143,254.574H526.366a27.889,27.889,0,0,1-27.857-27.858V197.262H581v29.454A27.889,27.889,0,0,1,553.143,254.574Zm-52.634-55.312v27.454a25.887,25.887,0,0,0,25.857,25.858h26.777A25.887,25.887,0,0,0,579,226.716V199.262Z"/><path class="d" d="M527.027,198.389c-.065-.506-7.13-50.891-62.719-78.726l.9-1.788c56.577,28.33,63.741,79.744,63.807,80.26Z"/><path class="d" d="M540.127,203.035l-1.332-4.489c-.238-.807-5.637-20.292,13.282-65.838l1.846.768c-13.869,33.389-14.427,52.755-13.793,60.517,2.5-5.269,9.464-14.312,28.595-19.785l.55,1.922c-26.271,7.515-28.509,22.113-28.529,22.26Z"/><path class="d" d="M540.26,174.986s24.794,3.5,27.767-20.069S559,134.8,574,119.574s18-8.224,6-20.224-25.479-22.457-39.74-5.229-24.223,22.738-12.242,35.983,3.894,19.8,0,28.411S540.26,174.986,540.26,174.986Z"/><path class="d" d="M553.008,165.226s7.959,20.524,21.292,8.039a16.615,16.615,0,0,0,5.162-7.97c1.473-5.72-1.279-8.954.656-10.734,1.86-1.71,4.722,1.07,10.849.218,1.93-.269,6.542-.911,8-4,1.3-2.747-.49-6.18-1.4-7.928-2.466-4.742-5.982-5.864-5.562-8.607a5.833,5.833,0,0,1,1.956-3.057,9.625,9.625,0,0,1,4.341-2.393c7.16-2,10.531-.954,12.866-2.755,3.218-2.482,3.423-9.569,1.131-13.927-5.387-10.243-28.446-12.765-42.666-4.667C553.83,116.445,546.46,139.976,553.008,165.226Z"/><path class="ac" d="M518.718,172.3c-.236-.443-24.027-44.447-57.63-53.044l.248-.968c34.033,8.706,58.026,53.094,58.265,53.542Z"/><path class="ac" d="M493.505,148.389c-4.133,0-9.922-1.738-17.329-8.042l.648-.762c14.52,12.357,22.352,6.58,23.492,5.6.988-14.752-10.362-25.941-10.478-26.053l.7-.718c.119.115,11.9,11.718,10.766,27.043l-.014.187-.134.132A11.158,11.158,0,0,1,493.505,148.389Z"/><path class="ac" d="M516.326,167.53l-.986-.163c2.43-14.7-7.969-26.959-8.074-27.081l.757-.654C508.131,139.758,518.832,152.369,516.326,167.53Z"/><path class="ac" d="M471.01,134.089a21.074,21.074,0,0,1-15.364-6.385l.707-.707c11.038,11.038,25.543,3.935,27.64,2.817-.089-1.862-1.071-12.385-11.814-20.057l.581-.814C484.966,117.66,485,129.985,485,130.109l0,.283-.245.144A30.41,30.41,0,0,1,471.01,134.089Z"/><path class="ac" d="M540.741,175.123l-.962-.274a476.641,476.641,0,0,0,10.348-47.58c4.36-26.548,12.223-33.261,12.556-33.534l.635.772c-.078.066-7.92,6.837-12.2,32.924A477.747,477.747,0,0,1,540.741,175.123Z"/><path class="ac" d="M562.5,175c-.006-.242-.467-24.635,17.062-56.471l.876.482c-17.4,31.6-16.945,55.722-16.938,55.962Z"/><path class="ac" d="M563.984,163.841l-3.449-8.74.93-.368,2.844,7.207c1.972-2.193,8.87-9.468,15.528-11.758l.326.945c-7.448,2.563-15.558,11.987-15.639,12.082Z"/><path class="ac" d="M513.893,165.432a25.212,25.212,0,0,1-18.73-8.326l.739-.673a24.043,24.043,0,0,0,20.157,7.874l.161.987A16.558,16.558,0,0,1,513.893,165.432Z"/><path class="ac" d="M569.4,143.262l-3.273-8.529.933-.359,2.586,6.736c1.867-2.547,8.307-10.373,17.7-11.5l.119.993c-10.533,1.267-17.46,11.734-17.529,11.839Z"/><path class="ac" d="M542.867,167.35l-.475-2.305c-.021-.1-2.2-10.425-7.665-13.971l.545-.839c4.645,3.014,6.979,10.25,7.777,13.267,1.121-1.671,4.1-4.621,11.833-7.207l.317.949c-10.792,3.607-11.82,7.766-11.829,7.807Z"/><path class="ac" d="M547.865,145.056l-.978-.206c.124-.611,2.854-15.059-12.119-22.92l.464-.886c10.5,5.514,12.614,14.366,12.856,19.641a33.6,33.6,0,0,1,12.656-16.264l.513.858A32.555,32.555,0,0,0,547.865,145.056Z"/><rect class="ad" width="99.345" height="82.902" rx="12" transform="translate(244.757 184.467)"/><path class="ad" d="M336.37,249.244l4.034,36.25L312.07,260.766Z"/><path class="ac" d="M323.5,214.523l-10.4-11.307-5.249,3.951a24.56,24.56,0,0,0-2.629-1.42l-.49-8.6-15.349-.64-.189,1.337-.673-.028-.946,6.7a24.827,24.827,0,0,0-2.417.872l-5.4-4.82-11.307,10.4,4.353,5.784q-.56,1.074-1.009,2.189l-8.04.457-.64,15.35,8.077,1.14c.063.195.125.39.193.583l-5.425,6.079,10.4,11.307,5.72-4.306c.311.185.625.361.941.532l-.406,7.812,15.189,2.3,1.946-7.653a24.831,24.831,0,0,0,3.422-.952l5.457,4.87,11.307-10.4-3.848-5.113c.347-.583.666-1.177.962-1.782l8.056-.458.64-15.35-6.867-.969c-.165-.683-.362-1.36-.586-2.03ZM308,216.085a17.963,17.963,0,1,1-25.381-1.059A17.982,17.982,0,0,1,308,216.085Z"/></g></svg>