<svg xmlns="http://www.w3.org/2000/svg" xmlns:xlink="http://www.w3.org/1999/xlink" width="458.393" height="397.065" viewBox="0 0 458.393 397.065"><defs><style>.a,.d,.f{fill:#fff;}.a,.g,.i,.k{stroke:#263238;}.a,.g,.i,.k,.m,.p{stroke-linecap:round;stroke-linejoin:round;}.b,.k{fill:#c6ff00;}.c{fill:#898989;opacity:0.24;}.e{opacity:0.15;}.f{opacity:0.5;}.g,.m,.p{fill:none;}.h,.i{fill:#263238;}.j{clip-path:url(#a);}.l{clip-path:url(#b);}.m,.p{stroke:#fff;}.m{stroke-width:0.5px;}.n{fill:#ddb800;}.o{fill:#ffda00;}.p{stroke-width:0.75px;}.q{clip-path:url(#c);}</style><clipPath id="a"><path class="a" d="M181.124,279.768h79.123a1.658,1.658,0,0,0,1.519-.992l23.174-51.6a1.657,1.657,0,0,0-1.518-2.323H204.3a1.656,1.656,0,0,0-1.518.992l-23.174,51.6A1.658,1.658,0,0,0,181.124,279.768Z" transform="translate(-179.465 -224.85)"/></clipPath><clipPath id="b"><path class="a" d="M296.847,274.651H346.69a.967.967,0,0,0,.886-.579l13.8-31.465a.969.969,0,0,0-.887-1.357H310.647a.967.967,0,0,0-.886.579l-13.8,31.465A.968.968,0,0,0,296.847,274.651Z" transform="translate(-295.878 -241.25)"/></clipPath><clipPath id="c"><path class="a" d="M113.577,280.675s-3.829-16.168-3.4-25.1,8.509-20.423,31.06-19.147S175.7,259.4,174,276.846s0,51.485,11.913,58.718,38.719,2.128,38.719,2.128,3.829.851.851,3.829-27.657,7.234-40,8.935c-9.414,1.3-33.189.615-43.936.218a21.2,21.2,0,0,1-14.756-6.5,22.207,22.207,0,0,1-3.855-5.63C116.687,325.413,113.577,280.675,113.577,280.675Z" transform="translate(-110.141 -236.327)"/></clipPath></defs><g transform="translate(-64.041 -83.782)"><g transform="translate(64.041 83.782)"><path class="b" d="M506.551,283.379c-18.594,48.005-62.048,84.423-107.2,101.752C364.3,398.583,327,397.255,289.833,385.7c-35.27-10.962-67.7-28.74-103.878-20.725-28.421,6.3-60.463,15.307-86.145-10.628C86.988,341.4,78.479,323.842,72.86,305.867c-17.839-57.067-8.882-117.445,29.314-154.9,32.724-32.092,79.5-47.56,124.631-44.819a146.157,146.157,0,0,1,25.711,3.809c22.295,5.424,46.624,13.916,69.505,10.837,26.956-3.628,45.664-24.125,70.222-33.526,25.365-9.711,51.669,1.763,71.881,23.629C506.428,156.661,528.954,225.535,506.551,283.379Z" transform="translate(-64.041 -83.782)"/><path class="c" d="M506.551,283.379c-18.594,48.005-62.048,84.423-107.2,101.752C364.3,398.583,327,397.255,289.833,385.7c-35.27-10.962-67.7-28.74-103.878-20.725-28.421,6.3-60.463,15.307-86.145-10.628C86.988,341.4,78.479,323.842,72.86,305.867c-17.839-57.067-8.882-117.445,29.314-154.9,32.724-32.092,79.5-47.56,124.631-44.819a146.157,146.157,0,0,1,25.711,3.809c22.295,5.424,46.624,13.916,69.505,10.837,26.956-3.628,45.664-24.125,70.222-33.526,25.365-9.711,51.669,1.763,71.881,23.629C506.428,156.661,528.954,225.535,506.551,283.379Z" transform="translate(-64.041 -83.782)"/></g><g transform="translate(104.616 126.372)"><g transform="translate(137.216 0.662)"><path class="d" d="M311.376,127.708H203.325l1.094-10.041H312.469Z" transform="translate(-203.325 -117.667)"/><path class="d" d="M311.376,138.722H203.325l1.094-10.042H312.469Z" transform="translate(-203.325 -114.622)"/><path class="d" d="M311.376,149.735H203.325l1.094-10.042H312.469Z" transform="translate(-203.325 -111.577)"/><path class="d" d="M311.376,160.748H203.325l1.094-10.041H312.469Z" transform="translate(-203.325 -108.532)"/><path class="d" d="M311.376,171.762H203.325l1.094-10.042H312.469Z" transform="translate(-203.325 -105.487)"/><path class="d" d="M311.376,182.775H203.325l1.094-10.042H312.469Z" transform="translate(-203.325 -102.442)"/><path class="d" d="M311.376,193.788H203.325l1.094-10.042H312.469Z" transform="translate(-203.325 -99.398)"/><path class="d" d="M311.376,204.8H203.325l1.094-10.042H312.469Z" transform="translate(-203.325 -96.353)"/><path class="d" d="M311.376,215.815H203.325l1.094-10.042H312.469Z" transform="translate(-203.325 -93.308)"/><path class="d" d="M311.376,226.828H203.325l1.094-10.041H312.469Z" transform="translate(-203.325 -90.263)"/><path class="d" d="M311.376,237.842H203.325l1.094-10.042H312.469Z" transform="translate(-203.325 -87.218)"/></g><g transform="translate(251.465 0.662)"><path class="d" d="M400.879,127.708H292.828l1.094-10.041H401.973Z" transform="translate(-292.828 -117.667)"/><path class="d" d="M400.879,138.722H292.828l1.094-10.042H401.973Z" transform="translate(-292.828 -114.622)"/><path class="d" d="M400.879,149.735H292.828l1.094-10.042H401.973Z" transform="translate(-292.828 -111.577)"/><path class="d" d="M400.879,160.748H292.828l1.094-10.041H401.973Z" transform="translate(-292.828 -108.532)"/><path class="d" d="M400.879,171.762H292.828l1.094-10.042H401.973Z" transform="translate(-292.828 -105.487)"/><path class="d" d="M400.879,182.775H292.828l1.094-10.042H401.973Z" transform="translate(-292.828 -102.442)"/><path class="d" d="M400.879,193.788H292.828l1.094-10.042H401.973Z" transform="translate(-292.828 -99.398)"/><path class="d" d="M400.879,204.8H292.828l1.094-10.042H401.973Z" transform="translate(-292.828 -96.353)"/><path class="d" d="M400.879,215.815H292.828l1.094-10.042H401.973Z" transform="translate(-292.828 -93.308)"/><path class="d" d="M400.879,226.828H292.828l1.094-10.041H401.973Z" transform="translate(-292.828 -90.263)"/><path class="d" d="M400.879,237.842H292.828l1.094-10.042H401.973Z" transform="translate(-292.828 -87.218)"/></g><g transform="translate(0 0)"><path class="d" d="M5.127,0H49.739a0,0,0,0,1,0,0V13.089a0,0,0,0,1,0,0H5.127A5.127,5.127,0,0,1,0,7.962V5.127A5.127,5.127,0,0,1,5.127,0Z" transform="translate(5.211 31.414)"/><path class="d" d="M149.65,128.94H106.455a6.545,6.545,0,0,0-6.544,6.544h0a6.544,6.544,0,0,0,6.544,6.544H149.65Z" transform="translate(-94.699 -113.887)"/><rect class="d" width="15.707" height="43.849" transform="translate(58.878)"/><rect class="d" width="15.707" height="43.849" transform="translate(78.512)"/><rect class="d" width="15.707" height="43.849" transform="translate(98.146)"/><path class="e" d="M219.163,152.417H95.828v7.309h10.006V177.84h5.957V159.725h88.5V177.84h5.957V159.725h12.913Z" transform="translate(-95.828 -107.397)"/></g></g><g transform="translate(458.043 275.336)"><path class="b" d="M390.313,256.186s-4.468,5.106-7.021,15.318,8.935,17.871,5.106,28.721-10.85,15.956-8.935,26.806,10.212,11.488,3.829,23.615-12.126,16.594-10.212,28.082,26.168,26.168,26.168,26.168,16.594-18.509,17.232-30.635-14.679-19.785-12.126-30.635,8.935-19.785,8.3-30-12.765-17.871-12.765-25.529,5.106-12.126,5.106-21.062-11.488-16.594-11.488-21.7,2.553-11.488,2.553-11.488S383.931,241.507,390.313,256.186Z" transform="translate(-372.707 -233.848)"/><path class="f" d="M390.313,256.186s-4.468,5.106-7.021,15.318,8.935,17.871,5.106,28.721-10.85,15.956-8.935,26.806,10.212,11.488,3.829,23.615-12.126,16.594-10.212,28.082,26.168,26.168,26.168,26.168,16.594-18.509,17.232-30.635-14.679-19.785-12.126-30.635,8.935-19.785,8.3-30-12.765-17.871-12.765-25.529,5.106-12.126,5.106-21.062-11.488-16.594-11.488-21.7,2.553-11.488,2.553-11.488S383.931,241.507,390.313,256.186Z" transform="translate(-372.707 -233.848)"/><g transform="translate(10.184 29.358)"><line class="g" x1="1.276" y1="137.859" transform="translate(12.528)"/><path class="g" d="M407.365,340.126l-12.506,12.506-14.174-12.506" transform="translate(-380.685 -233.824)"/><path class="g" d="M402.023,297.017l-9.171,14.174-7.921-12.923" transform="translate(-379.511 -245.742)"/><path class="g" d="M386.564,264.63l5.419,6.67,4.586-7.921" transform="translate(-379.06 -255.042)"/></g><rect class="h" width="31.912" height="35.741" transform="translate(8.033 167.217)"/></g><g transform="translate(131.216 220.594)"><g transform="translate(0 100.889)"><g transform="translate(1.97 12.005)"><path class="i" d="M282.472,279.405l12.017,142.982a1.555,1.555,0,0,0,1.878,1.307,1.528,1.528,0,0,0,1.162-1.652l-8.181-142.638Z" transform="translate(-72.797 -279.405)"/><path class="i" d="M345.7,279.405l12.056,143.46a1.554,1.554,0,0,0,1.878,1.306,1.527,1.527,0,0,0,1.162-1.652l-8.209-143.114Z" transform="translate(-55.316 -279.405)"/><path class="i" d="M182.818,279.405l-6.341,141.731a1.575,1.575,0,0,0,1.182,1.666h0a1.511,1.511,0,0,0,1.862-1.282l10.157-142.116Z" transform="translate(-102.103 -279.405)"/><path class="i" d="M124.536,279.405l-6.32,141.254a1.575,1.575,0,0,0,1.182,1.667,1.512,1.512,0,0,0,1.862-1.283l10.122-141.638Z" transform="translate(-118.21 -279.405)"/></g><rect class="a" width="304.243" height="12.277" transform="translate(3.811 4.086)"/><rect class="i" width="304.243" height="4.211" transform="translate(3.811 4.086)"/><rect class="i" width="107.001" height="12.277" transform="translate(201.054 4.086)"/><rect class="a" width="311.865" height="4.68"/><rect class="i" width="106.354" height="4.68" transform="translate(205.511)"/></g><g transform="translate(73.453 39.194)"><path class="i" d="M253.945,257.223l9.277,15.978H247.232Z" transform="translate(-154.022 -211.837)"/><path class="i" d="M175.987,282.937H267.42a1.774,1.774,0,0,0,1.625-1.062l25.316-57.721a1.775,1.775,0,0,0-1.626-2.488H201.3a1.775,1.775,0,0,0-1.626,1.062l-25.315,57.719A1.776,1.776,0,0,0,175.987,282.937Z" transform="translate(-174.21 -221.667)"/><g transform="translate(6.707 4.063)"><path class="d" d="M181.124,279.768h79.123a1.658,1.658,0,0,0,1.519-.992l23.174-51.6a1.657,1.657,0,0,0-1.518-2.323H204.3a1.656,1.656,0,0,0-1.518.992l-23.174,51.6A1.658,1.658,0,0,0,181.124,279.768Z" transform="translate(-179.465 -224.85)"/><g class="j"><g transform="translate(4.239)"><path class="k" d="M267.7,258.485c-12.059-2.086-16.242-13.028-27.7-28.3a23.738,23.738,0,0,0-5.6-5.332H201.116a1.656,1.656,0,0,0-1.518.992l-8.62,19.194c23.957,10,27.614-3.677,50.772,5.586a66.544,66.544,0,0,1,22.734,15.014Z" transform="translate(-180.521 -224.85)"/><path class="k" d="M241.678,252.85C222.99,251.1,186.2,265.7,186.2,265.7l-3.411,6.368h17.483c13.169-5.111,28.925-10.181,38.489-9.872,10.064.324,12.184,5.519,12.486,9.872h2.838C255.513,265.017,254.585,254.06,241.678,252.85Z" transform="translate(-182.786 -217.149)"/><path class="k" d="M267.24,240.694c0-3.144-4.388-10.466-7.915-15.844H248.759C254.354,231.028,267.24,244.809,267.24,240.694Z" transform="translate(-164.546 -224.85)"/></g></g><path class="g" d="M181.124,279.768h79.123a1.658,1.658,0,0,0,1.519-.992l23.174-51.6a1.657,1.657,0,0,0-1.518-2.323H204.3a1.656,1.656,0,0,0-1.518.992l-23.174,51.6A1.658,1.658,0,0,0,181.124,279.768Z" transform="translate(-179.465 -224.85)"/></g></g><g transform="translate(235.333)"><rect class="h" width="25.478" height="6.533" transform="translate(65.949 101.258) rotate(180)"/><g transform="translate(51.31 29.783)"><path class="h" d="M343.781,281.463a2.553,2.553,0,0,0,2.544-2.378l4.245-62.062a2.552,2.552,0,1,0-5.093-.348l-4.246,62.061a2.551,2.551,0,0,0,2.372,2.721C343.663,281.46,343.723,281.463,343.781,281.463Z" transform="translate(-341.226 -214.294)"/></g><g transform="translate(16.093 1.233)"><path class="h" d="M355.978,226.238a2.552,2.552,0,0,0,1.525-4.6l-41.869-29.462a1.251,1.251,0,0,0-1.493,2.007l40.315,31.552A2.543,2.543,0,0,0,355.978,226.238Z" transform="translate(-313.636 -191.928)"/></g><circle class="h" cx="3.92" cy="3.92" r="3.92" transform="translate(54.516 28.744)"/><circle class="h" cx="3.92" cy="3.92" r="3.92" transform="translate(12.707)"/><path class="h" d="M301.029,200.1l14.779,11.855,4.954-12.8a5.587,5.587,0,0,0-1.716-6.376h0a5.589,5.589,0,0,0-6.6-.291Z" transform="translate(-301.029 -190.801)"/></g><g transform="translate(195.725 61.319)"><path class="a" d="M292.6,278.145h58.415a1.134,1.134,0,0,0,1.038-.679l16.174-36.876a1.134,1.134,0,0,0-1.039-1.59H308.769a1.133,1.133,0,0,0-1.038.679l-16.174,36.876A1.134,1.134,0,0,0,292.6,278.145Z" transform="translate(-264.067 -239)"/><g transform="translate(33.033 2.872)"><path class="d" d="M296.847,274.651H346.69a.967.967,0,0,0,.886-.579l13.8-31.465a.969.969,0,0,0-.887-1.357H310.647a.967.967,0,0,0-.886.579l-13.8,31.465A.968.968,0,0,0,296.847,274.651Z" transform="translate(-295.878 -241.25)"/><g class="l"><g transform="translate(-0.963 -1.002)"><path class="k" d="M333.222,243.862a15.6,15.6,0,0,0-3.727-3.4H307.332a1.1,1.1,0,0,0-1.011.632l-5.742,12.229c15.955,6.372,18.389-2.342,33.81,3.558a44.5,44.5,0,0,1,15.139,9.565l2.139-4.554C343.636,260.564,340.85,253.592,333.222,243.862Z" transform="translate(-293.616 -240.465)"/><path class="k" d="M334.341,258.3c-12.444-1.116-36.945,8.185-36.945,8.185l-2.272,4.058h11.643c8.769-3.256,19.261-6.486,25.63-6.289,6.7.207,8.113,3.517,8.315,6.289H342.6C343.553,266.053,342.935,259.073,334.341,258.3Z" transform="translate(-295.124 -235.559)"/><path class="k" d="M346.092,240.465h-7.036c3.726,3.937,12.306,12.715,12.306,10.094C351.362,248.557,348.441,243.891,346.092,240.465Z" transform="translate(-282.978 -240.465)"/></g></g><path class="g" d="M296.847,274.651H346.69a.967.967,0,0,0,.886-.579l13.8-31.465a.969.969,0,0,0-.887-1.357H310.647a.967.967,0,0,0-.886.579l-13.8,31.465A.968.968,0,0,0,296.847,274.651Z" transform="translate(-295.878 -241.25)"/></g><rect class="a" width="87.757" height="2.872" transform="translate(0 36.698)"/><rect class="a" width="42.542" height="2.872" transform="translate(45.215 36.698)"/></g><g transform="translate(188.426 78.075)"><rect class="a" width="15.478" height="22.871"/><g transform="translate(11.43 4.268)"><path class="a" d="M276.591,270.96h-1.616a1.276,1.276,0,1,1,0-2.553h1.616a2.423,2.423,0,0,0,2.42-2.419v-5.545a2.423,2.423,0,0,0-2.42-2.419h-2.078a1.276,1.276,0,1,1,0-2.553h2.078a4.977,4.977,0,0,1,4.973,4.972v5.545A4.977,4.977,0,0,1,276.591,270.96Z" transform="translate(-273.236 -255.471)"/></g></g></g><g transform="translate(155.15 184.913)"><g transform="translate(37.603 14.786)"><path class="a" d="M201.7,176.754s3.506,10.873,3.506,12.977a38.073,38.073,0,0,1-.351,4.56l3.1,4.794a1.332,1.332,0,0,1-.444,1.873l-4.762,2.8s-.7,11.223-1.4,12.626-12.626,1.052-12.626,1.052l-3.859,7.365-19.991-7.716,5.262-14.379-1.053-21.745S181.36,170.091,201.7,176.754Z" transform="translate(-164.876 -174.593)"/><path class="a" d="M182.735,197.443l2.806.7a9.652,9.652,0,0,0,2.1,7.365" transform="translate(-159.939 -168.276)"/><line class="g" y1="4.888" x2="19.749" transform="translate(26.033 16.766)"/><path class="g" d="M196.76,187.422l4.5.2s1.565,5.084-3.129,5.67" transform="translate(-156.061 -171.046)"/></g><g transform="translate(38.55)"><path class="i" d="M178.35,171.89s-7.716-2.455-11.574,8.066,3.157,24.2,3.157,25.953,5.961,3.157,10.521,3.157a11.281,11.281,0,0,0,7.014-2.1s-1.753-7.015-.35-8.418,4.909,1.754,4.909,1.754a10.337,10.337,0,0,0,3.157-1.052c1.052-.7,6.313-3.508,4.56-6.664s-5.262-5.961-2.456-8.066,10.171-2.455,10.522-9.118-3.857-8.067-8.066-7.365-2.806-5.962-10.873-4.911S176.947,168.734,178.35,171.89Z" transform="translate(-165.617 -163.01)"/><path class="m" d="M176.82,188.676a14.46,14.46,0,0,0-1.25,3.342" transform="translate(-162.866 -155.914)"/><path class="m" d="M194.258,178.863s-2.441,2.136-10.07,5.188a14.819,14.819,0,0,0-6.678,5.3" transform="translate(-162.33 -158.627)"/><path class="m" d="M192.928,183.4s-8.85,5.8-12.816,7.018" transform="translate(-161.61 -157.371)"/></g><path class="i" d="M240.012,227a84.92,84.92,0,0,0,13.473,16.229s-4.891-10.888-12.144-17.324C240.7,225.345,239.569,226.282,240.012,227Z" transform="translate(-106.527 -145.667)"/><path class="a" d="M220.751,267.76,246.6,248.294s0-8.935,1.276-10.85,11.807-5.106,11.807-5.106,2.872-3.51,4.468,0a6.489,6.489,0,0,1-.638,6.382,59.18,59.18,0,0,1,0,7.659c-.319,1.915-11.488,6.7-11.488,6.7s-15.318,22.657-22.976,29.04-9.254,7.659-12.446,8.935-8.935-7.978-8.935-7.978Z" transform="translate(-115.442 -144.274)"/><g transform="translate(38.959 272.089)"><path class="i" d="M185.377,376.933s18.19,11.488,21.381,11.488,4.787,2.872,3.191,3.191-11.488.638-18.19.957-11.169-.319-15-.319-8.3.319-10.212-.638,1.276-11.807,1.276-13.722S183.144,375.656,185.377,376.933Z" transform="translate(-165.938 -376.167)"/><path class="a" d="M208.848,386.231c-7.067,2.33-18.514.8-25.385.172-5.436-.494-13.908-.6-17.468-.631-.14,1.638-.038,2.887.555,3.184,1.915.957,6.382.638,10.212.638s8.3.638,15,.319,16.594-.638,18.19-.957C211.14,388.719,210.551,387.057,208.848,386.231Z" transform="translate(-165.938 -373.511)"/></g><path class="n" d="M199.741,315l-14.346,71.925,2.991,7.475a15.037,15.037,0,0,1-9.068,6.123,69.35,69.35,0,0,1-12.446,1.276s-1.6-7.978-.638-8.935,1.276-4.787,1.276-4.787l8.3-72.44Z" transform="translate(-126.982 -120.989)"/><g transform="translate(92.811 267.206)"><path class="i" d="M231.793,375.561s11.169,9.254,16.275,10.85S258.6,389.6,258.6,391.2s-12.126,3.191-21.381,2.234-23.3-5.106-26.487-5.106-2.553-8.3-2.553-9.574S223.815,367.264,231.793,375.561Z" transform="translate(-208.126 -372.342)"/><path class="a" d="M258.53,388.407c0-.574-.71-1.148-1.846-1.722a98.511,98.511,0,0,1-27.513-.193c-9.187-1.312-16.87-3.074-20.8-4.053.331,1.716.989,3.1,2.289,3.1,3.191,0,17.232,4.149,26.487,5.106S258.53,390,258.53,388.407Z" transform="translate(-208.058 -369.551)"/></g><g transform="translate(3.383 161.363)"><path class="o" d="M195.636,289.84a145.455,145.455,0,0,1,28.721.638c16.275,1.915,40.209,4.149,40.847,8.3s-15.8,90.5-15.8,92.73,2.553,4.468,3.191,5.744a7.381,7.381,0,0,1,.638,2.872s-7.816,8.43-13.879,10.664-11.159.152-12.435.152-1.276-8.616-.319-12.765,2.553-14.679,2.872-15.637,5.415-62.38,5.415-62.38-35.1,7.659-63.5,4.468-31.273-7.659-32.869-14.36,1.6-20.1,1.6-20.1Z" transform="translate(-138.067 -289.423)"/><path class="o" d="M180.819,305.944a20.459,20.459,0,0,1-2.152,2.624" transform="translate(-126.842 -284.856)"/><path class="o" d="M188.54,292.5a119.368,119.368,0,0,1-6.338,13.4" transform="translate(-125.865 -288.573)"/><path class="o" d="M187.761,295a33.959,33.959,0,0,1-16.594,14.041" transform="translate(-128.916 -287.882)"/><path class="o" d="M231.215,309.048c1.084-.415,2.134-.849,3.13-1.3" transform="translate(-112.314 -284.357)"/><path class="o" d="M213.917,314.5A162.919,162.919,0,0,0,232,309.875" transform="translate(-117.097 -283.769)"/></g><g transform="translate(0 54.479)"><path class="i" d="M169.563,206.724s-24.891,11.807-28.4,14.041-5.744,30-5.744,34.784,3.51,51.7,4.468,59.675,31.593,13.4,41.8,10.531,20.1-10.212,20.1-12.765-.957-24.253-.319-28.4,6.382-21.7,6.382-21.7l10.85,30.954a116.151,116.151,0,0,0,13.4-4.468c9.254-3.829,11.488-16.594,11.488-16.594s-10.212-17.871-13.084-26.806-4.149-15.637-5.425-17.232-30-15-35.1-18.509S178.5,204.171,169.563,206.724Z" transform="translate(-135.417 -205.689)"/><line class="p" x1="8.297" y1="12.126" transform="translate(64.142 45.073)"/><line class="p" x1="14.605" y1="7.206" transform="translate(56.483 48.264)"/></g></g><g transform="translate(122.886 278.501)"><path class="i" d="M157.189,321.146l12.747,90.622a1.529,1.529,0,0,0,1.866,1.274h0a1.527,1.527,0,0,0,1.168-1.633l-8.983-91.754Z" transform="translate(-97.134 -213.29)"/><path class="i" d="M133.125,321.4l-21.309,89a1.527,1.527,0,0,0,1.27,1.867h0a1.528,1.528,0,0,0,1.685-1.091l24.737-86.371Z" transform="translate(-109.69 -212.806)"/><path class="i" d="M161.756,320.542l-13.566,90.5a1.528,1.528,0,0,0,1.427,1.751h0a1.529,1.529,0,0,0,1.584-1.233l17.207-88.18Z" transform="translate(-99.626 -213.045)"/><path class="i" d="M187.522,321.146l12.748,90.622a1.527,1.527,0,0,0,1.865,1.274h0a1.526,1.526,0,0,0,1.168-1.633l-8.983-91.754Z" transform="translate(-88.748 -213.29)"/><path class="d" d="M113.577,280.675s-3.829-16.168-3.4-25.1,8.509-20.423,31.06-19.147S175.7,259.4,174,276.846s0,51.485,11.913,58.718,38.719,2.128,38.719,2.128,3.829.851.851,3.829-27.657,7.234-40,8.935c-9.414,1.3-33.189.615-43.936.218a21.2,21.2,0,0,1-14.756-6.5,22.207,22.207,0,0,1-3.855-5.63C116.687,325.413,113.577,280.675,113.577,280.675Z" transform="translate(-110.141 -236.327)"/><g class="q"><path class="b" d="M185.486,347.541c3.021-.417,6.786-.988,10.787-1.654-5.267-.462-10.247-1.478-13.945-3.412-13.322-6.969-15.226-39.762-13.322-56.569s-11.419-37.712-36.636-38.942c-9.392-.458-16.538.791-21.835,2.983a16.664,16.664,0,0,0-.36,2.711c-.426,8.935,3.4,25.1,3.4,25.1s3.109,44.738,9.362,57.867a22.206,22.206,0,0,0,3.855,5.63,21.2,21.2,0,0,0,14.756,6.5C152.3,348.157,176.072,348.84,185.486,347.541Z" transform="translate(-110.141 -233.413)"/><path class="f" d="M185.486,347.541c3.021-.417,6.786-.988,10.787-1.654-5.267-.462-10.247-1.478-13.945-3.412-13.322-6.969-15.226-39.762-13.322-56.569s-11.419-37.712-36.636-38.942c-9.392-.458-16.538.791-21.835,2.983a16.664,16.664,0,0,0-.36,2.711c-.426,8.935,3.4,25.1,3.4,25.1s3.109,44.738,9.362,57.867a22.206,22.206,0,0,0,3.855,5.63,21.2,21.2,0,0,0,14.756,6.5C152.3,348.157,176.072,348.84,185.486,347.541Z" transform="translate(-110.141 -233.413)"/></g><path class="g" d="M113.577,280.675s-3.829-16.168-3.4-25.1,8.509-20.423,31.06-19.147S175.7,259.4,174,276.846s0,51.485,11.913,58.718,38.719,2.128,38.719,2.128,3.829.851.851,3.829-27.657,7.234-40,8.935c-9.414,1.3-33.189.615-43.936.218a21.2,21.2,0,0,1-14.756-6.5,22.207,22.207,0,0,1-3.855-5.63C116.687,325.413,113.577,280.675,113.577,280.675Z" transform="translate(-110.141 -236.327)"/></g><rect class="h" width="439.831" height="6.968" transform="translate(82.603 473.88)"/></g></svg>